<?xml version="1.0" encoding="utf-8"?>
<!-- Generator: Adobe Illustrator 23.1.1, SVG Export Plug-In . SVG Version: 6.00 Build 0)  -->
<svg version="1.1" xmlns="http://www.w3.org/2000/svg" xmlns:xlink="http://www.w3.org/1999/xlink" x="0px" y="0px"
	 viewBox="0 0 48 48" enable-background="new 0 0 48 48" xml:space="preserve">
<g id="Icon_Grid" display="none">
</g>
<g id="BG" display="none">
	<rect display="inline" fill="#FFFFFF" width="48" height="48"/>
</g>
<g id="Mengenal_Surabaya">
</g>
<g id="Layanan_Publik">
</g>
<g id="Informasi_Publik">
</g>
<g id="Home">
</g>
<g id="Tentang_Surabaya">
</g>
<g id="Pemerintahan">
</g>
<g id="Ada_Apa_di_Surabaya_x3F_">
	<g>
		<g>
			<path fill="#FDD300" d="M35.555,3.743c0.471,0.249,0.932,0.514,1.384,0.794C36.486,4.257,36.025,3.992,35.555,3.743z"/>
			<path fill="#FDD300" d="M33.884,2.941c0.473,0.204,0.936,0.426,1.392,0.659C34.819,3.367,34.356,3.145,33.884,2.941z"/>
			<path fill="#FDD300" d="M32.206,2.292c0.52,0.179,1.033,0.371,1.536,0.585C33.239,2.663,32.726,2.471,32.206,2.292z"/>
			<path fill="#FDD300" d="M30.288,1.717c0.535,0.135,1.062,0.292,1.583,0.462C31.351,2.008,30.823,1.852,30.288,1.717z"/>
			<path fill="#FDD300" d="M37.222,4.718c0.43,0.274,0.853,0.56,1.263,0.861C38.074,5.278,37.651,4.993,37.222,4.718z"/>
			<path fill="#FDD300" d="M24.497,1c0.59,0,1.173,0.029,1.752,0.071C25.67,1.029,25.087,1,24.497,1z"/>
			<path fill="#FDD300" d="M38.572,5.641l2.692,5.303C37.297,6.1,31.254,3,24.497,3C12.577,3,2.88,12.645,2.88,24.5
				c0,4.066,1.144,8.015,3.307,11.418c0.159,0.25,0.199,0.557,0.109,0.839l-2.762,8.707l-2.49,1.234
				c-0.113,0.356-0.019,0.745,0.246,1.009C1.48,47.897,1.736,48,1.997,48C2.099,48,2.2,47.985,2.3,47.953l10.173-3.228
				C16.102,46.869,20.249,48,24.497,48c13.023,0,23.618-10.542,23.618-23.5C48.115,16.786,44.359,9.928,38.572,5.641z
				 M13.127,42.784c-0.002-0.001-0.003-0.001-0.005-0.002l-0.521-0.147c0.182,0,0.362,0.051,0.521,0.147L24.497,46
				C20.465,46,16.533,44.888,13.127,42.784z M28.445,40.567c0,0.701-0.148,1.165-0.441,1.393c-0.047,0.089-0.197,0.215-0.445,0.372
				c-0.254,0.092-0.488,0.137-0.717,0.137h-2.971c-0.752,0-1.264-0.385-1.537-1.154c-0.045-0.137-0.07-0.249-0.07-0.341v-3.126
				c0-0.385,0.16-0.746,0.479-1.085c0.32-0.296,0.695-0.443,1.129-0.443h2.971c0.729,0,1.24,0.375,1.537,1.121
				c0.043,0.158,0.066,0.398,0.066,0.714V40.567z M35.924,18.896c0,2.58-0.85,4.936-2.559,7.064
				c-0.797,0.883-1.459,1.507-1.982,1.869c-0.912,0.611-1.764,1.086-2.561,1.426c-0.502,0.317-0.752,0.735-0.752,1.256v1.088
				c0,0.724-0.207,1.221-0.615,1.495c-0.225,0.226-0.66,0.338-1.299,0.338h-2.32c-0.729,0-1.217-0.157-1.469-0.475
				c-0.318-0.316-0.479-0.645-0.479-0.986v-5.671c0-0.859,0.41-1.552,1.232-2.071c0.314-0.229,0.818-0.341,1.502-0.341
				c1.844,0,3.311-0.804,4.404-2.413c0.479-0.836,0.715-1.719,0.715-2.649v-0.034c0-1.517-0.637-2.818-1.91-3.906
				c-0.936-0.724-1.992-1.086-3.176-1.086c-1.432,0-2.697,0.589-3.791,1.765c-0.5,0.566-0.877,1.259-1.127,2.073
				c-0.408,0.792-1.07,1.188-1.98,1.188h-1.877c-0.98,0-1.676-0.474-2.082-1.426c-0.049-0.227-0.082-0.443-0.103-0.645
				c0.111-1.133,0.648-2.491,1.603-4.077c0.344-0.52,0.885-1.167,1.641-1.936c2.275-2.037,4.871-3.058,7.785-3.058
				c2.572,0,4.928,0.827,7.07,2.481c0.816,0.7,1.408,1.301,1.775,1.798c1.57,2.085,2.354,4.347,2.354,6.793V18.896z"/>
			<path fill="#FDD300" d="M28.556,1.355c0.512,0.088,1.017,0.192,1.517,0.313C29.573,1.547,29.067,1.443,28.556,1.355z"/>
			<path fill="#FDD300" d="M26.605,1.099c0.56,0.049,1.115,0.117,1.663,0.205C27.72,1.215,27.165,1.148,26.605,1.099z"/>
		</g>
		<g>
			<g>
				<path fill="#004AE1" d="M0.997,47c-0.261,0-0.517-0.103-0.707-0.293c-0.265-0.264-0.359-0.653-0.246-1.009L3.25,35.591
					C1.044,31.959-0.12,27.789-0.12,23.5C-0.12,10.542,10.475,0,23.497,0C36.52,0,47.115,10.542,47.115,23.5S36.52,47,23.497,47
					c-4.248,0-8.396-1.131-12.024-3.275L1.3,46.953C1.2,46.985,1.099,47,0.997,47z M11.602,41.635c0.184,0,0.366,0.051,0.525,0.149
					C15.533,43.888,19.465,45,23.497,45c11.92,0,21.618-9.645,21.618-21.5S35.417,2,23.497,2C11.577,2,1.88,11.645,1.88,23.5
					c0,4.066,1.143,8.015,3.307,11.418c0.159,0.25,0.199,0.557,0.109,0.839l-2.762,8.707l8.765-2.782
					C11.398,41.65,11.5,41.635,11.602,41.635z"/>
			</g>
			<g>
				<path fill="#004AE1" d="M25.154,42h-2.971c-1.182,0-2.062-0.646-2.479-1.819c-0.09-0.272-0.128-0.48-0.128-0.676v-3.126
					c0-0.636,0.26-1.248,0.75-1.77c0.552-0.513,1.177-0.758,1.857-0.758c0.553,0,1,0.448,1,1c0,0.552-0.447,1-1,1
					c-0.181,0-0.315,0.053-0.45,0.177c-0.157,0.171-0.157,0.306-0.157,0.351v3.126C21.75,39.965,21.937,40,22.184,40h2.971
					c0.085,0,0.178-0.015,0.28-0.045c0.028-0.02,0.054-0.038,0.075-0.055c0.053-0.073,0.116-0.138,0.187-0.194l0,0
					c-0.014,0,0.062-0.162,0.062-0.608v-2.412c0-0.226-0.015-0.353-0.023-0.411c-0.174-0.391-0.366-0.424-0.58-0.424
					c-0.553,0-1-0.448-1-1c0-0.552,0.447-1,1-1c1.141,0,2.017,0.622,2.466,1.751c0.015,0.035,0.026,0.07,0.036,0.107
					c0.068,0.25,0.102,0.57,0.102,0.977v2.412c0,0.951-0.229,1.631-0.697,2.071c-0.144,0.178-0.352,0.348-0.655,0.539
					c-0.061,0.039-0.125,0.07-0.192,0.095C25.849,41.936,25.502,42,25.154,42z M24.844,32.746h-2.32
					c-1.029,0-1.754-0.263-2.212-0.803c-0.488-0.5-0.735-1.058-0.735-1.657v-5.671c0-1.207,0.587-2.215,1.698-2.917
					c0.438-0.321,1.121-0.495,2.036-0.495c1.504,0,2.674-0.646,3.577-1.975c0.352-0.62,0.542-1.324,0.542-2.087
					c0-1.254-0.51-2.283-1.56-3.18c-0.726-0.56-1.564-0.847-2.526-0.847c-1.153,0-2.153,0.473-3.059,1.446
					c-0.387,0.438-0.696,1.012-0.903,1.686c-0.018,0.057-0.04,0.112-0.067,0.165c-0.583,1.132-1.575,1.73-2.869,1.73h-1.877
					c-1.376,0-2.442-0.722-3.002-2.033c-0.024-0.059-0.044-0.12-0.058-0.182c-0.057-0.264-0.096-0.515-0.12-0.749
					c-0.008-0.068-0.008-0.136-0.001-0.204c0.127-1.289,0.696-2.759,1.742-4.496c0.414-0.628,1.007-1.33,1.784-2.121
					C17.415,6.115,20.259,5,23.412,5c2.786,0,5.37,0.905,7.682,2.689c0.919,0.787,1.551,1.429,1.969,1.996
					c1.69,2.244,2.549,4.731,2.549,7.387v0.136c0,2.807-0.935,5.394-2.779,7.69c-0.416,0.465-0.769,0.831-1.091,1.14
					c-0.397,0.382-1.032,0.37-1.414-0.029c-0.382-0.398-0.369-1.031,0.029-1.414c0.291-0.28,0.61-0.611,0.953-0.992
					c1.537-1.917,2.302-4.023,2.302-6.396v-0.136c0-2.243-0.704-4.269-2.152-6.192c-0.329-0.445-0.874-0.995-1.628-1.641
					C27.891,7.743,25.778,7,23.412,7c-2.684,0-5.012,0.917-7.118,2.803c-0.631,0.645-1.156,1.263-1.474,1.742
					c-0.824,1.372-1.312,2.567-1.431,3.523c0.014,0.109,0.031,0.222,0.055,0.339c0.244,0.52,0.575,0.734,1.124,0.734h1.877
					c0.512,0,0.822-0.168,1.055-0.578c0.291-0.907,0.729-1.695,1.303-2.345c1.304-1.402,2.826-2.104,4.541-2.104
					c1.402,0,2.677,0.436,3.788,1.295c1.537,1.312,2.298,2.882,2.298,4.697c0,1.14-0.285,2.198-0.847,3.179
					c-1.327,1.957-3.087,2.916-5.273,2.916c-0.688,0-0.892,0.134-0.913,0.149c-0.734,0.466-0.821,0.917-0.821,1.263v5.671
					c0,0.043,0.048,0.142,0.184,0.276c0.027,0.028,0.054,0.057,0.078,0.087v0c0.007,0,0.168,0.097,0.686,0.097h2.32
					c0.482,0,0.634-0.079,0.635-0.08c0.047-0.046,0.053-0.052,0.107-0.089c0.108-0.072,0.172-0.32,0.172-0.664v-1.088
					c0-0.607,0.211-1.465,1.218-2.102c0.468-0.296,1.086-0.155,1.379,0.311c0.296,0.467,0.156,1.085-0.311,1.38
					c-0.286,0.181-0.286,0.314-0.286,0.411v1.088c0,1.267-0.518,1.932-0.983,2.272C26.35,32.562,25.717,32.746,24.844,32.746z"/>
			</g>
		</g>
	</g>
</g>
<g id="Pengaduan_Masyarakat">
</g>
<g id="Perizinan">
</g>
<g id="Kesehatan">
</g>
<g id="Pendidikan">
</g>
<g id="Sosial_Masyarakat">
</g>
<g id="Kependudukan">
</g>
<g id="Pemberdayaan_Ekonomi">
</g>
<g id="Whistle_Blower_System">
</g>
<g id="JDIH">
</g>
<g id="PPID">
</g>
<g id="Open_Data">
</g>
<g id="Satu_Peta">
</g>
<g id="Foto">
</g>
<g id="Video">
</g>
<g id="Infografis">
</g>
<g id="Podcast">
</g>
<g id="Berita_Terbaru">
</g>
<g id="Siaran_Pers">
</g>
<g id="Visi__x26__Misi">
</g>
<g id="Struktur_Organisasi_Pemerintahan_Surabaya">
</g>
<g id="Perangkat_Daerah">
</g>
<g id="Profil_Walikota_Surabaya">
</g>
<g id="Alamat_Pemerintah_Kota_Surabaya">
</g>
<g id="Transportasi">
</g>
<g id="Bisnis__x26__Investasi">
</g>
<g id="Akomodasi">
</g>
<g id="Wisata">
</g>
<g id="Media_Center">
</g>
<g id="SSW_Alfa">
</g>
<g id="EHealth">
</g>
<g id="Lawan_Covid">
</g>
<g id="Wadul_Sertifikat_Vaksin">
</g>
<g id="Profil_Sekolah">
</g>
<g id="Rapor_Online">
</g>
<g id="Sistem_Informasi_Aplikasi_Guru">
</g>
<g id="EPemuktakhiran_Data">
</g>
<g id="Klampid">
</g>
<g id="EPeken_Surabaya">
</g>
<g id="Username">
</g>
<g id="Password_1_">
</g>
<g id="Pencarian">
</g>
<g id="Share">
</g>
<g id="Lihat_Semua">
</g>
<g id="User">
</g>
<g id="Contact">
</g>
<g id="Location">
</g>
<g id="Play_Podcast">
</g>
<g id="Previous_Blue">
</g>
<g id="Next">
</g>
<g id="Navigasi_Previous">
</g>
<g id="Navigasi_Next">
</g>
<g id="Play_Video">
</g>
<g id="Facebook_1_">
</g>
<g id="Twitter">
</g>
<g id="Instagram_1_">
</g>
<g id="Youtube">
</g>
</svg>
