<?xml version="1.0" encoding="utf-8"?>
<!-- Generator: Adobe Illustrator 23.1.1, SVG Export Plug-In . SVG Version: 6.00 Build 0)  -->
<svg version="1.1" xmlns="http://www.w3.org/2000/svg" xmlns:xlink="http://www.w3.org/1999/xlink" x="0px" y="0px"
	 viewBox="0 0 48 48" enable-background="new 0 0 48 48" xml:space="preserve">
<g id="Icon_Grid" display="none">
</g>
<g id="BG" display="none">
	<rect display="inline" fill="#FFFFFF" width="48" height="48"/>
</g>
<g id="Mengenal_Surabaya">
</g>
<g id="Layanan_Publik">
</g>
<g id="Informasi_Publik">
</g>
<g id="Home">
</g>
<g id="Tentang_Surabaya">
</g>
<g id="Pemerintahan">
</g>
<g id="Ada_Apa_di_Surabaya_x3F_">
</g>
<g id="Pengaduan_Masyarakat">
</g>
<g id="Perizinan">
</g>
<g id="Kesehatan">
</g>
<g id="Pendidikan">
</g>
<g id="Sosial_Masyarakat">
</g>
<g id="Kependudukan">
</g>
<g id="Pemberdayaan_Ekonomi">
</g>
<g id="Whistle_Blower_System">
</g>
<g id="JDIH">
</g>
<g id="PPID">
</g>
<g id="Open_Data">
</g>
<g id="Satu_Peta">
	<g>
		<g>
			<polygon fill="#FDD300" points="7.143,45 21.824,45 14.632,37.806 			"/>
			<path fill="#FDD300" d="M24.083,30.652c1.364-0.059,6.385-5.737,9.09-12.321c0.806-1.956,1.231-3.66,1.231-4.927
				C34.404,7.667,29.737,3,24,3c-5.737,0-10.404,4.667-10.404,10.404c0,1.418,0.587,3.391,1.696,5.704
				c0.006,0.012,0.012,0.023,0.017,0.036C18.109,24.954,22.89,30.398,24.083,30.652z M18.217,13.404
				c0-3.188,2.595-5.781,5.783-5.781c3.188,0,5.783,2.593,5.783,5.781c0,3.189-2.595,5.783-5.783,5.783
				C20.811,19.188,18.217,16.593,18.217,13.404z"/>
			<polygon fill="#FDD300" points="26.85,41.457 30.393,45 44.706,45 44.699,44.972 33.817,34.489 			"/>
			<path fill="#FDD300" d="M42.652,37.132l-6.447-6.446c-0.188-0.188-0.293-0.441-0.293-0.707c0-0.265,0.105-0.52,0.293-0.707
				l3.488-3.487L39.489,25h-1.923L23.271,39.295c-0.187,0.188-0.441,0.293-0.707,0.293c-0.266,0-0.52-0.105-0.707-0.293
				L8.315,25.751L7.713,28.06l4.559,4.559c0.391,0.391,0.391,1.024,0,1.414l-8.272,8.273L3.295,45h0.962l9.696-9.315
				c0.392-0.378,1.014-0.371,1.399,0.014l9.3,9.302h2.912l-2.836-2.836c-0.391-0.391-0.391-1.024,0-1.414l8.369-8.369
				c0.387-0.386,1.01-0.391,1.4-0.013l9.233,8.895l-0.439-1.684L42.652,37.132z"/>
			<path fill="#FDD300" d="M36.404,13.404c0,1.548-0.465,3.461-1.382,5.688c-2.243,5.46-7.834,13.56-10.96,13.56
				c-1.81,0-5.048-3.691-7.672-7.652h-5.998l12.172,12.174L34.738,25h-0.217c-0.553,0-1-0.448-1-1s0.447-1,1-1h0.119
				c0.535-1.01,1.007-1.996,1.382-2.908c0.917-2.227,1.382-4.14,1.382-5.688c0-3.674-1.615-6.97-4.161-9.243
				C35.202,7.355,36.404,10.238,36.404,13.404z"/>
			<path fill="#FDD300" d="M47.968,46.748l-0.439-1.682c-0.008-0.018-0.005-0.038-0.013-0.055l-1.573-6.027l-3.168-12.144
				c-0.001-0.003,0-0.006-0.001-0.008l-0.545-2.085c-0.087-0.33-0.332-0.585-0.641-0.692c-0.093-0.032-0.191-0.045-0.292-0.049
				l0.478,1.827c0.001,0.002,0,0.005,0.001,0.008l3.168,12.144l1.573,6.027c0.008,0.017,0.005,0.037,0.013,0.055l0.439,1.682
				c0.078,0.299,0.013,0.618-0.177,0.863C46.602,46.856,46.31,47,46,47H29.978h-5.74H4.659H2.025c0,0.066-0.019,0.134-0.005,0.199
				c0.03,0.148,0.094,0.289,0.189,0.412C2.397,47.856,2.69,48,3,48h2.659h19.579h5.74H47c0.31,0,0.602-0.144,0.791-0.389
				C47.98,47.366,48.046,47.047,47.968,46.748z"/>
			<polygon fill="#FDD300" points="10.15,33.326 7.128,30.303 4.994,38.482 			"/>
			<polygon fill="#FDD300" points="38.326,29.979 41.656,33.308 40.278,28.027 			"/>
		</g>
		<g>
			<path fill="#004AE1" d="M23,18.188c3.188,0,5.783-2.594,5.783-5.783c0-3.188-2.595-5.781-5.783-5.781
				c-3.189,0-5.783,2.593-5.783,5.781C17.217,15.593,19.811,18.188,23,18.188z M23,8.623c2.086,0,3.783,1.696,3.783,3.781
				c0,2.086-1.697,3.783-3.783,3.783c-2.086,0-3.783-1.697-3.783-3.783C19.217,10.319,20.914,8.623,23,8.623z"/>
			<path fill="#004AE1" d="M12.484,18.962c0.006,0.015,0.013,0.029,0.018,0.043c2.454,5.093,7.969,12.647,10.56,12.647
				c3.126,0,8.717-8.1,10.96-13.56c0.917-2.227,1.382-4.14,1.382-5.688C35.404,5.564,29.84,0,23,0
				c-6.84,0-12.404,5.564-12.404,12.404c0,1.74,0.637,3.95,1.866,6.507C12.468,18.927,12.476,18.945,12.484,18.962z M23,2
				c5.737,0,10.404,4.667,10.404,10.404c0,1.267-0.426,2.971-1.231,4.927c-2.705,6.584-7.726,12.262-9.09,12.32
				c-1.193-0.254-5.974-5.698-8.774-11.508c-0.005-0.012-0.011-0.024-0.017-0.036c-1.109-2.313-1.696-4.286-1.696-5.704
				C12.596,6.667,17.263,2,23,2z"/>
			<path fill="#004AE1" d="M45.968,44.748l-0.439-1.682c-0.008-0.018-0.005-0.038-0.013-0.055l-1.573-6.027l-3.168-12.144
				c-0.001-0.003,0-0.006-0.001-0.008l-0.545-2.085c-0.087-0.33-0.332-0.585-0.641-0.692C39.485,22.019,39.375,22,39.262,22h-3.109
				h-2.631c-0.553,0-1,0.448-1,1s0.447,1,1,1h0.217L21.564,36.174L9.393,24h3.086c0.553,0,1-0.448,1-1s-0.447-1-1-1h-5.5h-0.24
				c-0.455,0-0.853,0.307-0.968,0.748l-1.138,4.362l0,0L0.187,44.151l-0.155,0.596c-0.039,0.149-0.042,0.305-0.012,0.452
				c0.03,0.148,0.094,0.289,0.189,0.412C0.397,45.856,0.69,46,1,46h2.659h19.579h5.74H45c0.31,0,0.602-0.144,0.791-0.389
				C45.98,45.366,46.046,45.047,45.968,44.748z M40.656,32.308l-3.33-3.329l1.952-1.952L40.656,32.308z M6.128,29.303l3.022,3.023
				l-5.156,5.156L6.128,29.303z M6.143,44l7.489-7.194L20.824,44H6.143z M23.652,44l-9.3-9.302
				c-0.386-0.385-1.008-0.392-1.399-0.014L3.257,44H2.295l0.704-2.693l8.272-8.273c0.391-0.391,0.391-1.023,0-1.414L6.713,27.06
				l0.602-2.309l13.542,13.544c0.188,0.188,0.441,0.293,0.707,0.293c0.266,0,0.52-0.105,0.707-0.293L36.566,24h1.923l0.204,0.784
				l-3.488,3.487c-0.188,0.188-0.293,0.442-0.293,0.707c0,0.265,0.105,0.519,0.293,0.707l6.447,6.446l0.64,2.447l0.439,1.684
				l-9.233-8.894c-0.391-0.378-1.014-0.373-1.4,0.013l-8.369,8.369c-0.391,0.391-0.391,1.023,0,1.414L26.564,44H23.652z M29.393,44
				l-3.543-3.543l6.968-6.968l10.882,10.482L43.706,44H29.393z"/>
		</g>
	</g>
</g>
<g id="Foto">
</g>
<g id="Video">
</g>
<g id="Infografis">
</g>
<g id="Podcast">
</g>
<g id="Berita_Terbaru">
</g>
<g id="Siaran_Pers">
</g>
<g id="Visi__x26__Misi">
</g>
<g id="Struktur_Organisasi_Pemerintahan_Surabaya">
</g>
<g id="Perangkat_Daerah">
</g>
<g id="Profil_Walikota_Surabaya">
</g>
<g id="Alamat_Pemerintah_Kota_Surabaya">
</g>
<g id="Transportasi">
</g>
<g id="Bisnis__x26__Investasi">
</g>
<g id="Akomodasi">
</g>
<g id="Wisata">
</g>
<g id="Media_Center">
</g>
<g id="SSW_Alfa">
</g>
<g id="EHealth">
</g>
<g id="Lawan_Covid">
</g>
<g id="Wadul_Sertifikat_Vaksin">
</g>
<g id="Profil_Sekolah">
</g>
<g id="Rapor_Online">
</g>
<g id="Sistem_Informasi_Aplikasi_Guru">
</g>
<g id="EPemuktakhiran_Data">
</g>
<g id="Klampid">
</g>
<g id="EPeken_Surabaya">
</g>
<g id="Username">
</g>
<g id="Password_1_">
</g>
<g id="Pencarian">
</g>
<g id="Share">
</g>
<g id="Lihat_Semua">
</g>
<g id="User">
</g>
<g id="Contact">
</g>
<g id="Location">
</g>
<g id="Play_Podcast">
</g>
<g id="Previous_Blue">
</g>
<g id="Next">
</g>
<g id="Navigasi_Previous">
</g>
<g id="Navigasi_Next">
</g>
<g id="Play_Video">
</g>
<g id="Facebook_1_">
</g>
<g id="Twitter">
</g>
<g id="Instagram_1_">
</g>
<g id="Youtube">
</g>
</svg>
