<?xml version="1.0" encoding="utf-8"?>
<!-- Generator: Adobe Illustrator 23.1.1, SVG Export Plug-In . SVG Version: 6.00 Build 0)  -->
<svg version="1.1" xmlns="http://www.w3.org/2000/svg" xmlns:xlink="http://www.w3.org/1999/xlink" x="0px" y="0px"
	 viewBox="0 0 48 48" enable-background="new 0 0 48 48" xml:space="preserve">
<g id="Icon_Grid" display="none">
</g>
<g id="BG" display="none">
	<rect display="inline" fill="#FFFFFF" width="48" height="48"/>
</g>
<g id="Mengenal_Surabaya">
</g>
<g id="Layanan_Publik">
</g>
<g id="Informasi_Publik">
</g>
<g id="Home">
</g>
<g id="Tentang_Surabaya">
</g>
<g id="Pemerintahan">
</g>
<g id="Ada_Apa_di_Surabaya_x3F_">
</g>
<g id="Pengaduan_Masyarakat">
</g>
<g id="Perizinan">
</g>
<g id="Kesehatan">
</g>
<g id="Pendidikan">
</g>
<g id="Sosial_Masyarakat">
</g>
<g id="Kependudukan">
</g>
<g id="Pemberdayaan_Ekonomi">
</g>
<g id="Whistle_Blower_System">
</g>
<g id="JDIH">
</g>
<g id="PPID">
</g>
<g id="Open_Data">
</g>
<g id="Satu_Peta">
</g>
<g id="Foto">
</g>
<g id="Video">
</g>
<g id="Infografis">
	<g>
		<g>
			<g>
				<g>
					<path fill="#FDD300" d="M43.288,16.712c1.12-1.491,1.712-3.27,1.712-5.143C45,6.844,41.158,3,36.435,3
						c-4.724,0-8.566,3.844-8.566,8.569v8.57h8.566C39.153,20.139,41.651,18.89,43.288,16.712z"/>
					<path fill="#FDD300" d="M44.376,4.621C46.004,6.48,47,8.908,47,11.569c0,2.31-0.731,4.504-2.112,6.345
						c-2.019,2.685-5.1,4.225-8.452,4.225h-9.566c0,0.552,0.447,1,1,1h9.566c3.353,0,6.434-1.54,8.452-4.225
						C47.269,17.074,48,14.879,48,12.569C48,9.4,46.592,6.56,44.376,4.621z"/>
				</g>
				<g>
					<path fill="#FDD300" d="M11.564,45c4.724,0,8.566-3.845,8.566-8.57v-8.57h-8.566C6.842,27.859,3,31.704,3,36.43
						S6.842,45,11.564,45z"/>
					<path fill="#FDD300" d="M22.131,26.859v9.57c0,5.828-4.74,10.57-10.566,10.57c-2.657,0-5.081-0.994-6.939-2.62
						C6.562,46.593,9.399,48,12.564,48c5.826,0,10.566-4.742,10.566-10.57v-9.57C23.131,27.307,22.684,26.859,22.131,26.859z"/>
				</g>
			</g>
			<g>
				<path fill="#FDD300" d="M44.376,4.621C46.004,6.48,47,8.908,47,11.569c0,2.31-0.731,4.504-2.112,6.345
					c-2.019,2.685-5.1,4.225-8.452,4.225h-9.566c0,0.552,0.447,1,1,1h9.566c3.353,0,6.434-1.54,8.452-4.225
					C47.269,17.074,48,14.879,48,12.569C48,9.4,46.592,6.56,44.376,4.621z"/>
				<path fill="#FDD300" d="M22.131,26.859v9.57c0,5.828-4.74,10.57-10.566,10.57c-2.657,0-5.081-0.994-6.939-2.62
					C6.562,46.593,9.399,48,12.564,48c5.826,0,10.566-4.742,10.566-10.57v-9.57C23.131,27.307,22.684,26.859,22.131,26.859z"/>
			</g>
			<g>
				<path fill="#FDD300" d="M25,43.131C25,44.161,25.839,45,26.869,45h16.262C44.161,45,45,44.161,45,43.131V26.869
					C45,25.838,44.161,25,43.131,25H25V43.131z M29.738,28.739h10.523c0.553,0,1,0.448,1,1c0,0.552-0.447,1-1,1H29.738
					c-0.553,0-1-0.448-1-1C28.738,29.187,29.185,28.739,29.738,28.739z M29.738,33.521h10.523c0.553,0,1,0.447,1,1s-0.447,1-1,1
					H29.738c-0.553,0-1-0.447-1-1S29.185,33.521,29.738,33.521z M29.738,38.305h10.523c0.553,0,1,0.447,1,1s-0.447,1-1,1H29.738
					c-0.553,0-1-0.447-1-1S29.185,38.305,29.738,38.305z"/>
				<path fill="#FDD300" d="M25,4.869V23h1V5.869c0-1.322-0.668-2.489-1.683-3.187C24.746,3.305,25,4.058,25,4.869z"/>
				<path fill="#FDD300" d="M4.869,23H23V4.869C23,3.838,22.161,3,21.131,3H4.869C3.839,3,3,3.838,3,4.869v16.262
					C3,22.162,3.839,23,4.869,23z M7.738,7.695h10.523c0.553,0,1,0.448,1,1c0,0.552-0.447,1-1,1H7.738c-0.553,0-1-0.448-1-1
					C6.738,8.143,7.185,7.695,7.738,7.695z M7.738,12.479h10.523c0.553,0,1,0.448,1,1c0,0.552-0.447,1-1,1H7.738
					c-0.553,0-1-0.448-1-1C6.738,12.926,7.185,12.479,7.738,12.479z M7.738,17.261h10.523c0.553,0,1,0.448,1,1c0,0.552-0.447,1-1,1
					H7.738c-0.553,0-1-0.448-1-1C6.738,17.708,7.185,17.261,7.738,17.261z"/>
				<path fill="#FDD300" d="M23,25H4.869c-0.812,0-1.563-0.253-2.186-0.682C3.381,25.332,4.547,26,5.869,26H23V25z"/>
				<path fill="#FDD300" d="M46.317,24.682C46.746,25.305,47,26.058,47,26.869v16.262C47,45.265,45.265,47,43.131,47H26.869
					c-0.811,0-1.564-0.254-2.186-0.683C25.381,47.332,26.547,48,27.869,48h16.262C46.265,48,48,46.265,48,44.131V27.869
					C48,26.547,47.332,25.38,46.317,24.682z"/>
			</g>
		</g>
		<g>
			<path fill="#004AE1" d="M42.131,46H25.869C23.735,46,22,44.265,22,42.131V24H3.869C1.735,24,0,22.264,0,20.131V3.869
				C0,1.736,1.735,0,3.869,0h16.262C22.265,0,24,1.736,24,3.869V22h18.131C44.265,22,46,23.736,46,25.869v16.262
				C46,44.265,44.265,46,42.131,46z M24,24v18.131C24,43.161,24.839,44,25.869,44h16.262C43.161,44,44,43.161,44,42.131V25.869
				C44,24.838,43.161,24,42.131,24H24z M3.869,2C2.839,2,2,2.838,2,3.869v16.262C2,21.162,2.839,22,3.869,22H22V3.869
				C22,2.838,21.161,2,20.131,2H3.869z"/>
			<path fill="#004AE1" d="M35.435,21.139h-9.566c-0.553,0-1-0.448-1-1v-9.57C24.869,4.741,29.609,0,35.435,0
				C41.261,0,46,4.741,46,10.569c0,2.31-0.731,4.504-2.112,6.345C41.869,19.599,38.788,21.139,35.435,21.139z M26.869,19.139h8.566
				c2.718,0,5.216-1.249,6.853-3.427c1.12-1.491,1.712-3.27,1.712-5.143C44,5.844,40.158,2,35.435,2
				c-4.724,0-8.566,3.844-8.566,8.569V19.139z"/>
			<path fill="#004AE1" d="M10.564,46C4.739,46,0,41.258,0,35.43c0-5.829,4.739-10.57,10.564-10.57h9.566c0.553,0,1,0.448,1,1v9.57
				C21.131,41.258,16.391,46,10.564,46z M10.564,26.859C5.842,26.859,2,30.704,2,35.43S5.842,44,10.564,44
				c4.724,0,8.566-3.845,8.566-8.57v-8.57H10.564z"/>
			<path fill="#004AE1" d="M17.262,13.479H6.738c-0.553,0-1-0.448-1-1c0-0.552,0.447-1,1-1h10.523c0.553,0,1,0.448,1,1
				C18.262,13.031,17.814,13.479,17.262,13.479z"/>
			<path fill="#004AE1" d="M17.262,8.695H6.738c-0.553,0-1-0.448-1-1c0-0.552,0.447-1,1-1h10.523c0.553,0,1,0.448,1,1
				C18.262,8.248,17.814,8.695,17.262,8.695z"/>
			<path fill="#004AE1" d="M17.262,18.261H6.738c-0.553,0-1-0.448-1-1c0-0.552,0.447-1,1-1h10.523c0.553,0,1,0.448,1,1
				C18.262,17.813,17.814,18.261,17.262,18.261z"/>
			<path fill="#004AE1" d="M39.262,34.521H28.738c-0.553,0-1-0.447-1-1s0.447-1,1-1h10.523c0.553,0,1,0.447,1,1
				S39.814,34.521,39.262,34.521z"/>
			<path fill="#004AE1" d="M39.262,39.305H28.738c-0.553,0-1-0.447-1-1s0.447-1,1-1h10.523c0.553,0,1,0.447,1,1
				S39.814,39.305,39.262,39.305z"/>
			<path fill="#004AE1" d="M39.262,29.739H28.738c-0.553,0-1-0.448-1-1c0-0.552,0.447-1,1-1h10.523c0.553,0,1,0.448,1,1
				C40.262,29.292,39.814,29.739,39.262,29.739z"/>
		</g>
	</g>
</g>
<g id="Podcast">
</g>
<g id="Berita_Terbaru">
</g>
<g id="Siaran_Pers">
</g>
<g id="Visi__x26__Misi">
</g>
<g id="Struktur_Organisasi_Pemerintahan_Surabaya">
</g>
<g id="Perangkat_Daerah">
</g>
<g id="Profil_Walikota_Surabaya">
</g>
<g id="Alamat_Pemerintah_Kota_Surabaya">
</g>
<g id="Transportasi">
</g>
<g id="Bisnis__x26__Investasi">
</g>
<g id="Akomodasi">
</g>
<g id="Wisata">
</g>
<g id="Media_Center">
</g>
<g id="SSW_Alfa">
</g>
<g id="EHealth">
</g>
<g id="Lawan_Covid">
</g>
<g id="Wadul_Sertifikat_Vaksin">
</g>
<g id="Profil_Sekolah">
</g>
<g id="Rapor_Online">
</g>
<g id="Sistem_Informasi_Aplikasi_Guru">
</g>
<g id="EPemuktakhiran_Data">
</g>
<g id="Klampid">
</g>
<g id="EPeken_Surabaya">
</g>
<g id="Username">
</g>
<g id="Password_1_">
</g>
<g id="Pencarian">
</g>
<g id="Share">
</g>
<g id="Lihat_Semua">
</g>
<g id="User">
</g>
<g id="Contact">
</g>
<g id="Location">
</g>
<g id="Play_Podcast">
</g>
<g id="Previous_Blue">
</g>
<g id="Next">
</g>
<g id="Navigasi_Previous">
</g>
<g id="Navigasi_Next">
</g>
<g id="Play_Video">
</g>
<g id="Facebook_1_">
</g>
<g id="Twitter">
</g>
<g id="Instagram_1_">
</g>
<g id="Youtube">
</g>
</svg>
