<?xml version="1.0" encoding="utf-8"?>
<!-- Generator: Adobe Illustrator 23.1.1, SVG Export Plug-In . SVG Version: 6.00 Build 0)  -->
<svg version="1.1" xmlns="http://www.w3.org/2000/svg" xmlns:xlink="http://www.w3.org/1999/xlink" x="0px" y="0px"
	 viewBox="0 0 48 48" enable-background="new 0 0 48 48" xml:space="preserve">
<g id="Icon_Grid" display="none">
</g>
<g id="BG" display="none">
	<rect display="inline" fill="#FFFFFF" width="48" height="48"/>
</g>
<g id="Mengenal_Surabaya">
</g>
<g id="Layanan_Publik">
</g>
<g id="Informasi_Publik">
</g>
<g id="Home">
</g>
<g id="Tentang_Surabaya">
</g>
<g id="Pemerintahan">
</g>
<g id="Ada_Apa_di_Surabaya_x3F_">
</g>
<g id="Pengaduan_Masyarakat">
</g>
<g id="Perizinan">
</g>
<g id="Kesehatan">
</g>
<g id="Pendidikan">
</g>
<g id="Sosial_Masyarakat">
</g>
<g id="Kependudukan">
</g>
<g id="Pemberdayaan_Ekonomi">
</g>
<g id="Whistle_Blower_System">
</g>
<g id="JDIH">
	<g>
		<g>
			<path fill="#FDD300" d="M23,44.11V34.022c-2.56,0.05-5.084,0.287-7.531,0.706C17.173,38.269,19.719,41.47,23,44.11z"/>
			<path fill="#FDD300" d="M23,3.891c-3.282,2.64-5.828,5.841-7.531,9.38c2.447,0.42,4.972,0.657,7.531,0.706V3.891z"/>
			<path fill="#FDD300" d="M23,25h-9.969c0.109,2.707,0.654,5.344,1.612,7.838c2.711-0.492,5.515-0.762,8.356-0.815V25z"/>
			<path fill="#FDD300" d="M23,15.977c-2.842-0.053-5.646-0.323-8.357-0.815c-0.958,2.495-1.502,5.132-1.611,7.838H23V15.977z"/>
			<path fill="#FDD300" d="M20.6,44.699c-3.11-2.755-5.533-6.009-7.165-9.575c-2.076,0.45-4.082,1.033-5.993,1.744
				C10.623,40.954,15.273,43.826,20.6,44.699z"/>
			<path fill="#FDD300" d="M6.255,35.18c2.041-0.788,4.187-1.437,6.411-1.936c-0.973-2.629-1.528-5.398-1.634-8.244H3.051
				C3.228,28.73,4.374,32.204,6.255,35.18z"/>
			<path fill="#FDD300" d="M12.665,14.756c-2.224-0.499-4.369-1.147-6.411-1.936C4.373,15.796,3.228,19.27,3.051,23h7.981
				C11.138,20.155,11.693,17.384,12.665,14.756z"/>
			<path fill="#FDD300" d="M20.6,3.301c-5.326,0.873-9.976,3.745-13.159,7.831c1.912,0.711,3.917,1.294,5.993,1.744
				C15.066,9.31,17.49,6.056,20.6,3.301z"/>
			<path fill="#FDD300" d="M33.356,15.162c-2.711,0.492-5.515,0.763-8.356,0.815V23h9.969
				C34.859,20.294,34.315,17.657,33.356,15.162z"/>
			<path fill="#FDD300" d="M27.4,3.301c3.11,2.755,5.533,6.008,7.166,9.575c2.075-0.45,4.081-1.033,5.993-1.744
				C37.377,7.045,32.727,4.174,27.4,3.301z"/>
			<path fill="#FDD300" d="M41.745,12.82c-2.041,0.788-4.186,1.437-6.41,1.935c0.973,2.629,1.527,5.399,1.634,8.245h7.98
				C44.772,19.27,43.627,15.796,41.745,12.82z"/>
			<path fill="#FDD300" d="M44.949,25h-7.98c-0.106,2.846-0.661,5.615-1.634,8.244c2.224,0.499,4.369,1.148,6.41,1.937
				C43.627,32.204,44.772,28.73,44.949,25z"/>
			<path fill="#FDD300" d="M40.719,8.232C44.608,12.353,47,17.9,47,24c0,4.81-1.486,9.278-4.021,12.974
				c-0.022,0.032-0.042,0.066-0.067,0.095c-4.125,5.951-10.98,9.87-18.74,9.928H24.17L24,47c-0.012,0-0.107-0.002-0.119-0.003
				c-6.047-0.031-11.546-2.412-15.64-6.269C12.44,45.199,18.397,48,25,48c12.683,0,23-10.317,23-23
				C48,18.393,45.195,12.432,40.719,8.232z"/>
			<path fill="#FDD300" d="M40.56,36.868c-1.912-0.711-3.917-1.294-5.993-1.743c-1.633,3.565-4.056,6.819-7.165,9.574
				C32.727,43.826,37.377,40.954,40.56,36.868z"/>
			<path fill="#FDD300" d="M25,3.89v10.087c2.56-0.049,5.083-0.286,7.532-0.706C30.828,9.731,28.282,6.53,25,3.89z"/>
			<path fill="#FDD300" d="M32.532,34.729C30.084,34.31,27.56,34.072,25,34.022v10.087C28.282,41.47,30.828,38.269,32.532,34.729z"
				/>
			<path fill="#FDD300" d="M25,32.022c2.842,0.054,5.646,0.323,8.357,0.816c0.958-2.495,1.502-5.132,1.611-7.839H25V32.022z"/>
		</g>
		<path fill="#004AE1" d="M41.979,35.974C44.514,32.278,46,27.81,46,23C46,10.361,35.752,0.074,23.129,0.003c0,0-0.001,0-0.002,0
			C23.115,0.002,23.012,0,23,0l-0.178,0.004c-0.001,0-0.001,0-0.002,0C10.221,0.102,0,10.378,0,23
			c0,12.643,10.253,22.932,22.881,22.997l0,0C22.893,45.998,22.988,46,23,46l0.17-0.004h0.002c7.761-0.058,14.615-3.977,18.74-9.928
			C41.938,36.039,41.957,36.006,41.979,35.974z M2.051,24h7.981c0.106,2.846,0.662,5.615,1.634,8.244
			c-2.224,0.499-4.37,1.148-6.411,1.936C3.374,31.204,2.228,27.73,2.051,24z M5.254,11.82c2.042,0.789,4.187,1.437,6.411,1.936
			c-0.972,2.628-1.527,5.399-1.634,8.244H2.051C2.228,18.27,3.373,14.796,5.254,11.82z M43.949,22h-7.98
			c-0.106-2.845-0.661-5.616-1.634-8.245c2.224-0.499,4.369-1.147,6.41-1.935C42.627,14.796,43.772,18.27,43.949,22z M33.969,22H24
			v-7.023c2.842-0.053,5.646-0.323,8.356-0.815C33.315,16.657,33.859,19.294,33.969,22z M24,12.977V2.89
			c3.282,2.64,5.828,5.841,7.532,9.381C29.083,12.691,26.56,12.928,24,12.977z M22,12.977c-2.56-0.049-5.084-0.286-7.532-0.706
			c1.704-3.539,4.25-6.74,7.532-9.38V12.977z M22,14.977V22h-9.969c0.109-2.706,0.653-5.343,1.611-7.838
			C16.354,14.654,19.158,14.924,22,14.977z M12.031,24H22v7.022c-2.842,0.054-5.646,0.323-8.356,0.815
			C12.685,29.344,12.141,26.707,12.031,24z M22,33.022V43.11c-3.281-2.641-5.827-5.842-7.531-9.382
			C16.916,33.31,19.44,33.072,22,33.022z M24,33.022c2.56,0.05,5.084,0.287,7.532,0.706c-1.704,3.54-4.25,6.741-7.532,9.381V33.022z
			 M24,31.022V24h9.969c-0.109,2.707-0.653,5.344-1.611,7.839C29.646,31.346,26.842,31.076,24,31.022z M35.969,24h7.98
			c-0.177,3.73-1.322,7.204-3.204,10.181c-2.041-0.789-4.186-1.438-6.41-1.937C35.308,29.615,35.862,26.846,35.969,24z
			 M39.56,10.132c-1.912,0.711-3.918,1.294-5.993,1.744c-1.633-3.566-4.056-6.82-7.166-9.575
			C31.727,3.174,36.377,6.045,39.56,10.132z M19.6,2.301c-3.109,2.755-5.533,6.009-7.166,9.575c-2.076-0.45-4.081-1.032-5.993-1.744
			C9.624,6.045,14.274,3.174,19.6,2.301z M6.441,35.868c1.912-0.711,3.917-1.294,5.993-1.744c1.633,3.566,4.055,6.82,7.165,9.575
			C14.273,42.826,9.624,39.954,6.441,35.868z M26.401,43.699c3.109-2.755,5.532-6.009,7.165-9.574
			c2.076,0.449,4.081,1.032,5.993,1.743C36.377,39.954,31.727,42.826,26.401,43.699z"/>
	</g>
</g>
<g id="PPID">
</g>
<g id="Open_Data">
</g>
<g id="Satu_Peta">
</g>
<g id="Foto">
</g>
<g id="Video">
</g>
<g id="Infografis">
</g>
<g id="Podcast">
</g>
<g id="Berita_Terbaru">
</g>
<g id="Siaran_Pers">
</g>
<g id="Visi__x26__Misi">
</g>
<g id="Struktur_Organisasi_Pemerintahan_Surabaya">
</g>
<g id="Perangkat_Daerah">
</g>
<g id="Profil_Walikota_Surabaya">
</g>
<g id="Alamat_Pemerintah_Kota_Surabaya">
</g>
<g id="Transportasi">
</g>
<g id="Bisnis__x26__Investasi">
</g>
<g id="Akomodasi">
</g>
<g id="Wisata">
</g>
<g id="Media_Center">
</g>
<g id="SSW_Alfa">
</g>
<g id="EHealth">
</g>
<g id="Lawan_Covid">
</g>
<g id="Wadul_Sertifikat_Vaksin">
</g>
<g id="Profil_Sekolah">
</g>
<g id="Rapor_Online">
</g>
<g id="Sistem_Informasi_Aplikasi_Guru">
</g>
<g id="EPemuktakhiran_Data">
</g>
<g id="Klampid">
</g>
<g id="EPeken_Surabaya">
</g>
<g id="Username">
</g>
<g id="Password_1_">
</g>
<g id="Pencarian">
</g>
<g id="Share">
</g>
<g id="Lihat_Semua">
</g>
<g id="User">
</g>
<g id="Contact">
</g>
<g id="Location">
</g>
<g id="Play_Podcast">
</g>
<g id="Previous_Blue">
</g>
<g id="Next">
</g>
<g id="Navigasi_Previous">
</g>
<g id="Navigasi_Next">
</g>
<g id="Play_Video">
</g>
<g id="Facebook_1_">
</g>
<g id="Twitter">
</g>
<g id="Instagram_1_">
</g>
<g id="Youtube">
</g>
</svg>
