<?xml version="1.0" encoding="utf-8"?>
<!-- Generator: Adobe Illustrator 23.1.1, SVG Export Plug-In . SVG Version: 6.00 Build 0)  -->
<svg version="1.1" xmlns="http://www.w3.org/2000/svg" xmlns:xlink="http://www.w3.org/1999/xlink" x="0px" y="0px"
	 viewBox="0 0 48 48" enable-background="new 0 0 48 48" xml:space="preserve">
<g id="Icon_Grid" display="none">
</g>
<g id="BG" display="none">
	<rect display="inline" fill="#FFFFFF" width="48" height="48"/>
</g>
<g id="Mengenal_Surabaya">
</g>
<g id="Layanan_Publik">
</g>
<g id="Informasi_Publik">
</g>
<g id="Home">
</g>
<g id="Tentang_Surabaya">
</g>
<g id="Pemerintahan">
</g>
<g id="Ada_Apa_di_Surabaya_x3F_">
</g>
<g id="Pengaduan_Masyarakat">
</g>
<g id="Perizinan">
</g>
<g id="Kesehatan">
</g>
<g id="Pendidikan">
</g>
<g id="Sosial_Masyarakat">
</g>
<g id="Kependudukan">
	<g>
		<g>
			<path fill="#FDD300" d="M14.062,14.664c0,5.778,4.7,10.478,10.479,10.478c5.778,0,10.478-4.7,10.478-10.478
				c0-5.778-4.7-10.479-10.478-10.479C18.763,4.185,14.062,8.886,14.062,14.664z M19.342,16.43c0.553,0,1,0.448,1,1
				c0,2.085,1.697,3.782,3.783,3.782c2.086,0,3.783-1.697,3.783-3.782c0-0.552,0.447-1,1-1s1,0.448,1,1
				c0,3.188-2.595,5.782-5.783,5.782c-3.189,0-5.783-2.594-5.783-5.782C18.342,16.877,18.789,16.43,19.342,16.43z"/>
			<path fill="#FDD300" d="M42.639,17.661c1.43-1.69,2.265-3.858,2.265-6.146c0-4.586-3.261-8.423-7.585-9.317l2.454,2.047
				c-1.452-0.72-3.087-1.126-4.813-1.126c-1.338,0-2.644,0.24-3.882,0.715c-0.083,0.032-0.166,0.052-0.25,0.068
				c3.697,2.168,6.192,6.174,6.192,10.762c0,3.291-1.29,6.279-3.379,8.511l-1.649,1.475c-2.082,1.558-4.656,2.492-7.45,2.492
				c-2.792,0-5.363-0.933-7.445-2.488c-4.108,1.512-6.859,5.435-6.859,9.831v10.438l-1.541-1.541v0.75
				c0,2.134,1.735,3.87,3.869,3.87h24.871c2.134,0,3.869-1.736,3.869-3.87v-8.438c0-0.365-0.021-0.726-0.053-1.085h2.879
				c2.134,0,3.869-1.736,3.869-3.869v-4.514C48,22.534,45.888,19.234,42.639,17.661z"/>
			<path fill="#FDD300" d="M8.236,34.484c0-4.883,2.853-9.276,7.209-11.305c-2.092-2.232-3.383-5.223-3.383-8.516
				c0-4.923,2.873-9.177,7.024-11.206c-0.437-0.412-0.87-0.752-1.075-0.831c-0.04-0.015-0.081-0.025-0.121-0.04
				c0.057,0.2,0.068,0.414-0.012,0.623c-0.197,0.517-0.777,0.774-1.291,0.577c-0.857-0.328-1.761-0.495-2.686-0.495
				c-4.143,0-7.514,3.371-7.514,7.515c0,2.918,1.713,5.596,4.364,6.822c0.501,0.232,0.72,0.826,0.487,1.327
				c-0.169,0.366-0.53,0.581-0.908,0.581c-0.14,0-0.283-0.029-0.419-0.092c-0.591-0.273-1.129-0.621-1.642-1
				c-2.982,1.069-4.979,3.884-4.979,7.073v5.514L2,30.385v0.354c0,2.133,1.735,3.869,3.869,3.869h2.367V34.484z"/>
		</g>
		<g>
			<path fill="#004AE1" d="M5.095,30.608H3.869C2.839,30.608,2,29.77,2,28.739v-4.514c0-3.189,1.997-6.004,4.979-7.073
				c0.513,0.379,1.051,0.727,1.642,1c0.136,0.063,0.279,0.092,0.419,0.092c0.378,0,0.739-0.215,0.908-0.58
				c0.233-0.501,0.014-1.095-0.487-1.327c-2.651-1.226-4.364-3.903-4.364-6.822C5.097,5.371,8.468,2,12.61,2
				c0.926,0,1.829,0.167,2.687,0.495c0.514,0.197,1.094-0.06,1.291-0.577c0.197-0.516-0.061-1.094-0.576-1.291
				C14.926,0.211,13.781,0,12.61,0C7.364,0,3.097,4.268,3.097,9.515c0,2.288,0.835,4.456,2.265,6.146
				C2.112,17.234,0,20.534,0,24.225v4.514c0,2.133,1.735,3.869,3.869,3.869h1.226c0.553,0,1-0.448,1-1
				C6.095,31.056,5.647,30.608,5.095,30.608z"/>
			<path fill="#004AE1" d="M40.639,15.661c1.43-1.69,2.265-3.858,2.265-6.146C42.903,4.268,38.636,0,33.39,0
				c-1.171,0-2.315,0.211-3.401,0.627c-0.516,0.198-0.774,0.776-0.576,1.291c0.197,0.517,0.778,0.773,1.291,0.577
				C31.56,2.167,32.464,2,33.39,2c4.143,0,7.514,3.371,7.514,7.515c0,2.918-1.713,5.596-4.364,6.822
				c-0.501,0.232-0.72,0.826-0.487,1.327c0.169,0.366,0.53,0.58,0.908,0.58c0.14,0,0.283-0.029,0.419-0.092
				c0.591-0.273,1.129-0.621,1.642-1c2.982,1.069,4.98,3.884,4.98,7.073v4.514c0,1.031-0.839,1.869-1.869,1.869h-1.226
				c-0.553,0-1,0.448-1,1c0,0.552,0.447,1,1,1h1.226c2.134,0,3.869-1.736,3.869-3.869v-4.514C46,20.534,43.888,17.234,40.639,15.661
				z"/>
			<path fill="#004AE1" d="M32.1,22.383c2.089-2.232,3.379-5.22,3.379-8.511c0-6.881-5.598-12.479-12.478-12.479
				c-6.881,0-12.479,5.598-12.479,12.479c0,3.293,1.291,6.283,3.383,8.516c-4.356,2.029-7.209,6.422-7.209,11.305v8.438
				c0,2.134,1.735,3.87,3.869,3.87h24.871c2.134,0,3.869-1.736,3.869-3.87v-8.438C39.305,28.833,36.448,24.415,32.1,22.383z
				 M23,3.394c5.778,0,10.478,4.701,10.478,10.479c0,5.778-4.7,10.478-10.478,10.478c-5.778,0-10.479-4.7-10.479-10.478
				C12.521,8.094,17.222,3.394,23,3.394z M37.305,42.13c0,1.031-0.839,1.87-1.869,1.87H10.564c-1.03,0-1.869-0.839-1.869-1.87
				v-8.438c0-4.396,2.751-8.319,6.859-9.831c2.082,1.555,4.653,2.488,7.445,2.488c2.794,0,5.368-0.934,7.45-2.492
				c4.101,1.511,6.854,5.46,6.854,9.835V42.13z"/>
			<path fill="#004AE1" d="M23,22.087c3.188,0,5.783-2.594,5.783-5.782c0-0.552-0.447-1-1-1c-0.553,0-1,0.448-1,1
				c0,2.085-1.697,3.782-3.783,3.782c-2.086,0-3.783-1.697-3.783-3.782c0-0.552-0.447-1-1-1s-1,0.448-1,1
				C17.217,19.493,19.811,22.087,23,22.087z"/>
		</g>
	</g>
</g>
<g id="Pemberdayaan_Ekonomi">
</g>
<g id="Whistle_Blower_System">
</g>
<g id="JDIH">
</g>
<g id="PPID">
</g>
<g id="Open_Data">
</g>
<g id="Satu_Peta">
</g>
<g id="Foto">
</g>
<g id="Video">
</g>
<g id="Infografis">
</g>
<g id="Podcast">
</g>
<g id="Berita_Terbaru">
</g>
<g id="Siaran_Pers">
</g>
<g id="Visi__x26__Misi">
</g>
<g id="Struktur_Organisasi_Pemerintahan_Surabaya">
</g>
<g id="Perangkat_Daerah">
</g>
<g id="Profil_Walikota_Surabaya">
</g>
<g id="Alamat_Pemerintah_Kota_Surabaya">
</g>
<g id="Transportasi">
</g>
<g id="Bisnis__x26__Investasi">
</g>
<g id="Akomodasi">
</g>
<g id="Wisata">
</g>
<g id="Media_Center">
</g>
<g id="SSW_Alfa">
</g>
<g id="EHealth">
</g>
<g id="Lawan_Covid">
</g>
<g id="Wadul_Sertifikat_Vaksin">
</g>
<g id="Profil_Sekolah">
</g>
<g id="Rapor_Online">
</g>
<g id="Sistem_Informasi_Aplikasi_Guru">
</g>
<g id="EPemuktakhiran_Data">
</g>
<g id="Klampid">
</g>
<g id="EPeken_Surabaya">
</g>
<g id="Username">
</g>
<g id="Password_1_">
</g>
<g id="Pencarian">
</g>
<g id="Share">
</g>
<g id="Lihat_Semua">
</g>
<g id="User">
</g>
<g id="Contact">
</g>
<g id="Location">
</g>
<g id="Play_Podcast">
</g>
<g id="Previous_Blue">
</g>
<g id="Next">
</g>
<g id="Navigasi_Previous">
</g>
<g id="Navigasi_Next">
</g>
<g id="Play_Video">
</g>
<g id="Facebook_1_">
</g>
<g id="Twitter">
</g>
<g id="Instagram_1_">
</g>
<g id="Youtube">
</g>
</svg>
