<?xml version="1.0" encoding="utf-8"?>
<!-- Generator: Adobe Illustrator 23.1.1, SVG Export Plug-In . SVG Version: 6.00 Build 0)  -->
<svg version="1.1" xmlns="http://www.w3.org/2000/svg" xmlns:xlink="http://www.w3.org/1999/xlink" x="0px" y="0px"
	 viewBox="0 0 48 48" enable-background="new 0 0 48 48" xml:space="preserve">
<g id="Icon_Grid" display="none">
</g>
<g id="BG" display="none">
	<rect display="inline" fill="#FFFFFF" width="48" height="48"/>
</g>
<g id="Mengenal_Surabaya">
</g>
<g id="Layanan_Publik">
</g>
<g id="Informasi_Publik">
</g>
<g id="Home">
</g>
<g id="Tentang_Surabaya">
</g>
<g id="Pemerintahan">
</g>
<g id="Ada_Apa_di_Surabaya_x3F_">
</g>
<g id="Pengaduan_Masyarakat">
</g>
<g id="Perizinan">
</g>
<g id="Kesehatan">
	<g>
		<g>
			<path fill="#FDD300" d="M47.496,7.769C40.612,3.884,32.776,1.83,24.838,1.83c-7.829,0-15.551,1.993-22.329,5.764
				C2.195,7.768,2.002,8.101,2.006,8.46C2.283,36.104,19.553,48,25,48c5.425,0,22.65-11.844,22.994-39.366
				C47.999,8.276,47.808,7.945,47.496,7.769z M37.47,24.996c0,1.596-1.298,2.895-2.894,2.895h-3.83c-0.517,0-0.938,0.42-0.938,0.936
				v3.83c0,1.596-1.298,2.894-2.894,2.894h-3.831c-1.595,0-2.893-1.298-2.893-2.894v-3.83c0-0.516-0.421-0.936-0.938-0.936h-3.83
				c-1.596,0-2.894-1.298-2.894-2.895v-3.83c0-1.596,1.299-2.894,2.894-2.894h3.83c0.517,0,0.938-0.42,0.938-0.937v-3.83
				c0-1.596,1.298-2.895,2.893-2.895h3.831c1.596,0,2.894,1.299,2.894,2.895v3.83c0,0.516,0.421,0.937,0.938,0.937h3.83
				c1.596,0,2.894,1.298,2.894,2.894V24.996z"/>
		</g>
		<g>
			<g>
				<path fill="#004AE1" d="M25.459,34.282h-3.914c-1.63,0-2.956-1.327-2.956-2.957v-3.913c0-0.527-0.43-0.957-0.957-0.957h-3.913
					c-1.631,0-2.957-1.327-2.957-2.957v-3.913c0-1.63,1.326-2.957,2.957-2.957h3.913c0.527,0,0.957-0.429,0.957-0.956v-3.913
					c0-1.63,1.326-2.957,2.956-2.957h3.914c1.63,0,2.956,1.327,2.956,2.957v3.913c0,0.527,0.43,0.956,0.957,0.956h3.913
					c1.631,0,2.957,1.327,2.957,2.957v3.913c0,1.63-1.326,2.957-2.957,2.957h-3.913c-0.527,0-0.957,0.429-0.957,0.957v3.913
					C28.415,32.955,27.089,34.282,25.459,34.282z M13.719,18.628c-0.527,0-0.957,0.429-0.957,0.957v3.913
					c0,0.528,0.43,0.957,0.957,0.957h3.913c1.631,0,2.957,1.326,2.957,2.957v3.913c0,0.528,0.429,0.957,0.956,0.957h3.914
					c0.527,0,0.956-0.429,0.956-0.957v-3.913c0-1.63,1.326-2.957,2.957-2.957h3.913c0.527,0,0.957-0.429,0.957-0.957v-3.913
					c0-0.528-0.43-0.957-0.957-0.957h-3.913c-1.631,0-2.957-1.326-2.957-2.956v-3.913c0-0.528-0.429-0.957-0.956-0.957h-3.914
					c-0.527,0-0.956,0.429-0.956,0.957v3.913c0,1.63-1.326,2.956-2.957,2.956H13.719z"/>
			</g>
			<g>
				<path fill="#004AE1" d="M23.502,47C17.936,47,0.293,34.846,0.01,6.603C0.006,6.236,0.203,5.897,0.523,5.719
					C7.449,1.866,15.338-0.17,23.336-0.17c8.111,0,16.116,2.098,23.149,6.067c0.318,0.18,0.514,0.518,0.509,0.884
					C46.643,34.9,29.044,47,23.502,47z M2.019,7.181C2.541,34.688,19.946,45,23.502,45c3.54,0,20.894-10.266,21.482-37.648
					C38.376,3.737,30.904,1.83,23.336,1.83C15.878,1.83,8.52,3.679,2.019,7.181z"/>
			</g>
		</g>
	</g>
</g>
<g id="Pendidikan">
</g>
<g id="Sosial_Masyarakat">
</g>
<g id="Kependudukan">
</g>
<g id="Pemberdayaan_Ekonomi">
</g>
<g id="Whistle_Blower_System">
</g>
<g id="JDIH">
</g>
<g id="PPID">
</g>
<g id="Open_Data">
</g>
<g id="Satu_Peta">
</g>
<g id="Foto">
</g>
<g id="Video">
</g>
<g id="Infografis">
</g>
<g id="Podcast">
</g>
<g id="Berita_Terbaru">
</g>
<g id="Siaran_Pers">
</g>
<g id="Visi__x26__Misi">
</g>
<g id="Struktur_Organisasi_Pemerintahan_Surabaya">
</g>
<g id="Perangkat_Daerah">
</g>
<g id="Profil_Walikota_Surabaya">
</g>
<g id="Alamat_Pemerintah_Kota_Surabaya">
</g>
<g id="Transportasi">
</g>
<g id="Bisnis__x26__Investasi">
</g>
<g id="Akomodasi">
</g>
<g id="Wisata">
</g>
<g id="Media_Center">
</g>
<g id="SSW_Alfa">
</g>
<g id="EHealth">
</g>
<g id="Lawan_Covid">
</g>
<g id="Wadul_Sertifikat_Vaksin">
</g>
<g id="Profil_Sekolah">
</g>
<g id="Rapor_Online">
</g>
<g id="Sistem_Informasi_Aplikasi_Guru">
</g>
<g id="EPemuktakhiran_Data">
</g>
<g id="Klampid">
</g>
<g id="EPeken_Surabaya">
</g>
<g id="Username">
</g>
<g id="Password_1_">
</g>
<g id="Pencarian">
</g>
<g id="Share">
</g>
<g id="Lihat_Semua">
</g>
<g id="User">
</g>
<g id="Contact">
</g>
<g id="Location">
</g>
<g id="Play_Podcast">
</g>
<g id="Previous_Blue">
</g>
<g id="Next">
</g>
<g id="Navigasi_Previous">
</g>
<g id="Navigasi_Next">
</g>
<g id="Play_Video">
</g>
<g id="Facebook_1_">
</g>
<g id="Twitter">
</g>
<g id="Instagram_1_">
</g>
<g id="Youtube">
</g>
</svg>
