<?xml version="1.0" encoding="utf-8"?>
<!-- Generator: Adobe Illustrator 23.1.1, SVG Export Plug-In . SVG Version: 6.00 Build 0)  -->
<svg version="1.1" xmlns="http://www.w3.org/2000/svg" xmlns:xlink="http://www.w3.org/1999/xlink" x="0px" y="0px"
	 viewBox="0 0 48 48" enable-background="new 0 0 48 48" xml:space="preserve">
<g id="Icon_Grid" display="none">
</g>
<g id="BG" display="none">
	<rect y="0" display="inline" fill="#FFFFFF" width="48" height="48"/>
</g>
<g id="Mengenal_Surabaya">
</g>
<g id="Layanan_Publik">
</g>
<g id="Informasi_Publik">
</g>
<g id="Home">
</g>
<g id="Tentang_Surabaya">
</g>
<g id="Pemerintahan">
</g>
<g id="Ada_Apa_di_Surabaya_x3F_">
</g>
<g id="Pengaduan_Masyarakat">
</g>
<g id="Perizinan">
</g>
<g id="Kesehatan">
</g>
<g id="Pendidikan">
</g>
<g id="Sosial_Masyarakat">
</g>
<g id="Kependudukan">
</g>
<g id="Pemberdayaan_Ekonomi">
</g>
<g id="Whistle_Blower_System">
</g>
<g id="JDIH">
</g>
<g id="PPID">
</g>
<g id="Open_Data">
</g>
<g id="Satu_Peta">
</g>
<g id="Foto">
</g>
<g id="Video">
</g>
<g id="Infografis">
</g>
<g id="Podcast">
</g>
<g id="Berita_Terbaru">
	<g>
		<g>
			<path fill="#FDD300" d="M37.792,2.833L38,22.125l1.365,0.896h0.979V2.957c0-0.265-0.105-0.52-0.293-0.707
				s-0.441-0.293-0.707-0.293h-1.756L37.792,2.833z"/>
			<path fill="#FDD300" d="M47,23.978h-1.457l-0.522,1.043h-5.656v12.404c0,1.561,1.269,2.83,2.828,2.83c0.553,0,1,0.447,1,1
				c0,0.553-0.447,1-1,1c-2.662,0-4.828-2.167-4.828-4.83V3L3,3v39.212c0,1.561,1.269,2.83,2.828,2.83L5.083,45.75L1.978,43.06
				v0.109c0,2.663,2.166,4.83,4.828,4.83h36.365C45.834,48,48,45.833,48,43.169V24.978C48,24.426,47.553,23.978,47,23.978z
				 M5.785,6.787c0-0.552,0.447-1,1-1h19.183c0.553,0,1,0.448,1,1v7.66c0,0.552-0.447,1-1,1H6.785c-0.553,0-1-0.448-1-1V6.787z
				 M25.011,33.638H6.785c-0.553,0-1-0.447-1-1c0-0.553,0.447-1,1-1h18.226c0.553,0,1,0.447,1,1
				C26.011,33.191,25.563,33.638,25.011,33.638z M34.58,27.893H6.785c-0.553,0-1-0.448-1-1c0-0.552,0.447-1,1-1H34.58
				c0.553,0,1,0.448,1,1C35.58,27.445,35.133,27.893,34.58,27.893z M34.58,22.149H6.785c-0.553,0-1-0.448-1-1c0-0.552,0.447-1,1-1
				H34.58c0.553,0,1,0.448,1,1C35.58,21.701,35.133,22.149,34.58,22.149z"/>
		</g>
		<g>
			<path fill="#004AE1" d="M45.021,22.021h-6.656V0.999c0-0.265-0.105-0.52-0.293-0.707s-0.441-0.293-0.707-0.293L1,0
				C0.447,0,0,0.448,0,1v40.212c0,2.663,2.166,4.83,4.828,4.83h36.365c2.662,0,4.828-2.167,4.828-4.83V23.021
				C46.021,22.469,45.574,22.021,45.021,22.021z M44.021,41.212c0,1.561-1.269,2.83-2.828,2.83H4.828
				c-1.559,0-2.828-1.27-2.828-2.83V2l34.365,0v34.426c0,2.663,2.166,4.83,4.828,4.83c0.553,0,1-0.447,1-1c0-0.553-0.447-1-1-1
				c-1.56,0-2.828-1.27-2.828-2.83V24.021h5.656V41.212z"/>
			<path fill="#004AE1" d="M5.785,14.446h18.183c0.553,0,1-0.448,1-1v-7.66c0-0.552-0.447-1-1-1H5.785c-0.553,0-1,0.448-1,1v7.66
				C4.785,13.999,5.232,14.446,5.785,14.446z M6.785,6.787h16.183v5.66H6.785V6.787z"/>
			<path fill="#004AE1" d="M32.58,19.149H5.785c-0.553,0-1,0.448-1,1c0,0.552,0.447,1,1,1H32.58c0.553,0,1-0.448,1-1
				C33.58,19.597,33.133,19.149,32.58,19.149z"/>
			<path fill="#004AE1" d="M32.58,24.893H5.785c-0.553,0-1,0.448-1,1c0,0.552,0.447,1,1,1H32.58c0.553,0,1-0.448,1-1
				C33.58,25.34,33.133,24.893,32.58,24.893z"/>
			<path fill="#004AE1" d="M23.011,30.638H5.785c-0.553,0-1,0.447-1,1c0,0.553,0.447,1,1,1h17.226c0.553,0,1-0.447,1-1
				C24.011,31.085,23.563,30.638,23.011,30.638z"/>
		</g>
	</g>
</g>
<g id="Siaran_Pers">
</g>
<g id="Visi__x26__Misi">
</g>
<g id="Struktur_Organisasi_Pemerintahan_Surabaya">
</g>
<g id="Perangkat_Daerah">
</g>
<g id="Profil_Walikota_Surabaya">
</g>
<g id="Alamat_Pemerintah_Kota_Surabaya">
</g>
<g id="Transportasi">
</g>
<g id="Bisnis__x26__Investasi">
</g>
<g id="Akomodasi">
</g>
<g id="Wisata">
</g>
<g id="Media_Center">
</g>
<g id="SSW_Alfa">
</g>
<g id="EHealth">
</g>
<g id="Lawan_Covid">
</g>
<g id="Wadul_Sertifikat_Vaksin">
</g>
<g id="Profil_Sekolah">
</g>
<g id="Rapor_Online">
</g>
<g id="Sistem_Informasi_Aplikasi_Guru">
</g>
<g id="EPemuktakhiran_Data">
</g>
<g id="Klampid">
</g>
<g id="EPeken_Surabaya">
</g>
<g id="Username">
</g>
<g id="Password_1_">
</g>
<g id="Pencarian">
</g>
<g id="Share">
</g>
<g id="Lihat_Semua">
</g>
<g id="User">
</g>
<g id="Contact">
</g>
<g id="Location">
</g>
<g id="Play_Podcast">
</g>
<g id="Previous_Blue">
</g>
<g id="Next">
</g>
<g id="Navigasi_Previous">
</g>
<g id="Navigasi_Next">
</g>
<g id="Play_Video">
</g>
<g id="Facebook_1_">
</g>
<g id="Twitter">
</g>
<g id="Instagram_1_">
</g>
<g id="Youtube">
</g>
</svg>
