<?xml version="1.0" encoding="utf-8"?>
<!-- Generator: Adobe Illustrator 23.1.1, SVG Export Plug-In . SVG Version: 6.00 Build 0)  -->
<svg version="1.1" xmlns="http://www.w3.org/2000/svg" xmlns:xlink="http://www.w3.org/1999/xlink" x="0px" y="0px"
	 viewBox="0 0 48 48" enable-background="new 0 0 48 48" xml:space="preserve">
<g id="Icon_Grid" display="none">
</g>
<g id="BG" display="none">
	<rect display="inline" fill="#FFFFFF" width="48" height="48"/>
</g>
<g id="Mengenal_Surabaya">
</g>
<g id="Layanan_Publik">
</g>
<g id="Informasi_Publik">
</g>
<g id="Home">
</g>
<g id="Tentang_Surabaya">
</g>
<g id="Pemerintahan">
</g>
<g id="Ada_Apa_di_Surabaya_x3F_">
</g>
<g id="Pengaduan_Masyarakat">
</g>
<g id="Perizinan">
</g>
<g id="Kesehatan">
</g>
<g id="Pendidikan">
</g>
<g id="Sosial_Masyarakat">
</g>
<g id="Kependudukan">
</g>
<g id="Pemberdayaan_Ekonomi">
</g>
<g id="Whistle_Blower_System">
</g>
<g id="JDIH">
</g>
<g id="PPID">
</g>
<g id="Open_Data">
</g>
<g id="Satu_Peta">
</g>
<g id="Foto">
</g>
<g id="Video">
</g>
<g id="Infografis">
</g>
<g id="Podcast">
</g>
<g id="Berita_Terbaru">
</g>
<g id="Siaran_Pers">
</g>
<g id="Visi__x26__Misi">
</g>
<g id="Struktur_Organisasi_Pemerintahan_Surabaya">
</g>
<g id="Perangkat_Daerah">
	<g>
		<g>
			<path fill="#FDD300" d="M23,47.912v-10.09l-1.554,0.518c-0.104,0.034-0.21,0.051-0.315,0.051c-0.37,0-0.721-0.206-0.895-0.553
				l-1.612-3.223c-1.158,0.185-2.182,0.896-2.753,1.958c-0.284,0.536-0.436,1.152-0.436,1.774V46c0,0.553-0.447,1-1,1
				c0,0.553,0.447,1,1,1h7.582C23.015,47.97,23,47.943,23,47.912z"/>
			<path fill="#FDD300" d="M34.891,36.626c-0.395-0.733-0.934-1.354-1.567-1.845c0.209,0.264,0.404,0.541,0.567,0.845
				c0.441,0.835,0.674,1.774,0.674,2.722V46c0,0.553-0.447,1-1,1c-0.553,0-1-0.447-1-1v-7.652c0-0.622-0.151-1.238-0.438-1.78
				c-0.568-1.056-1.592-1.768-2.75-1.952l-1.612,3.223c-0.174,0.347-0.524,0.553-0.895,0.553c-0.105,0-0.212-0.017-0.315-0.051
				L25,37.822v10.09c0,0.031-0.015,0.058-0.018,0.088H26h8.564c0.553,0,1-0.447,1-1v-7.652C35.564,38.4,35.332,37.461,34.891,36.626
				z"/>
			<path fill="#FDD300" d="M40.986,3.23c0.769,0.981,1.23,2.214,1.23,3.554c0,3.188-2.594,5.781-5.781,5.781
				c-1.34,0-2.572-0.462-3.554-1.231c1.06,1.355,2.705,2.231,4.554,2.231c3.188,0,5.781-2.594,5.781-5.781
				C43.217,5.935,42.341,4.289,40.986,3.23z"/>
			<path fill="#FDD300" d="M10.564,25.912v-8.177l-1.553,0.517c-0.104,0.035-0.211,0.052-0.316,0.052
				c-0.37,0-0.722-0.206-0.895-0.553l-1.61-3.223c-1.161,0.185-2.185,0.897-2.755,1.958C3.151,17.022,3,17.638,3,18.262V24
				c0,0.553-0.447,1-1,1c0,0.553,0.447,1,1,1h7.582C10.579,25.97,10.564,25.943,10.564,25.912z"/>
			<path fill="#FDD300" d="M47.326,16.54c-0.394-0.733-0.933-1.355-1.566-1.846c0.208,0.265,0.403,0.542,0.566,0.846
				C46.768,16.372,47,17.312,47,18.262V24c0,0.553-0.447,1-1,1c-0.553,0-1-0.447-1-1v-5.738c0-0.624-0.151-1.239-0.439-1.779
				c-0.567-1.057-1.591-1.77-2.752-1.953l-1.61,3.223c-0.173,0.347-0.524,0.553-0.895,0.553c-0.105,0-0.212-0.017-0.316-0.052
				l-1.553-0.517v8.177c0,0.031-0.015,0.058-0.017,0.088h1.017H47c0.553,0,1-0.447,1-1v-5.738C48,18.312,47.768,17.372,47.326,16.54
				z"/>
			<path fill="#FDD300" d="M23.118,21.162l0.013-1.9c0-0.945-0.232-1.884-0.674-2.722c-0.394-0.733-0.933-1.355-1.566-1.846
				c0.208,0.265,0.403,0.542,0.566,0.846c0.442,0.838,0.674,1.776,0.674,2.722v0.955c0,0.553-0.447,1-1,1c-0.553,0-1-0.447-1-1
				v-0.955c0-0.621-0.151-1.237-0.44-1.781c-0.567-1.056-1.59-1.768-2.751-1.951l-1.61,3.223c-0.173,0.347-0.524,0.553-0.895,0.553
				c-0.105,0-0.212-0.017-0.316-0.052l-1.555-0.518v8.178c0,0.031-0.015,0.058-0.018,0.088h1.018h4.725
				C18.667,23.513,20.632,21.545,23.118,21.162z"/>
			<path fill="#FDD300" d="M35.453,26c-0.003-0.03-0.018-0.057-0.018-0.088v-8.178l-1.555,0.518
				c-0.104,0.035-0.211,0.052-0.316,0.052c-0.37,0-0.722-0.206-0.895-0.553l-1.61-3.223c-1.161,0.185-2.185,0.897-2.755,1.958
				c-0.284,0.537-0.436,1.153-0.436,1.774v0.955c0,0.553-0.447,0.999-0.999,1l0.001,1.642c1.737,0.998,2.912,2.868,2.912,5.011
				c0,3.188-2.595,5.783-5.783,5.783c-1.34,0-2.571-0.462-3.553-1.23c1.059,1.355,2.704,2.23,4.553,2.23
				c3.188,0,5.783-2.595,5.783-5.783c0-0.654-0.114-1.282-0.316-1.869H35.453z"/>
			<path fill="#FDD300" d="M16.117,3.23c0.768,0.981,1.23,2.213,1.23,3.553c0,3.188-2.595,5.781-5.783,5.781
				c-1.339,0-2.57-0.462-3.552-1.229c1.06,1.354,2.703,2.229,4.552,2.229c3.188,0,5.783-2.594,5.783-5.781
				C18.348,5.935,17.472,4.289,16.117,3.23z"/>
			<g>
				<path fill="#FDD300" d="M19.483,26.775c0,2.523,2.018,4.577,4.5,4.577c2.481,0,4.5-2.054,4.5-4.577s-2.019-4.576-4.5-4.576
					C21.501,22.199,19.483,24.252,19.483,26.775z"/>
				<path fill="#FDD300" d="M36.418,11.265c2.481,0,4.499-2.053,4.499-4.576c0-2.524-2.018-4.578-4.499-4.578
					c-2.483,0-4.501,2.054-4.501,4.578C31.917,9.212,33.935,11.265,36.418,11.265z"/>
				<path fill="#FDD300" d="M11.547,11.265c2.482,0,4.501-2.017,4.501-4.499c0-2.482-2.019-4.501-4.501-4.501
					c-2.481,0-4.499,2.019-4.499,4.501C7.048,9.247,9.065,11.265,11.547,11.265z"/>
			</g>
		</g>
		<g>
			<path fill="#004AE1" d="M27.783,31.565h-0.957c-0.217,0-0.427,0.07-0.601,0.2L23,34.186l-3.226-2.421
				c-0.174-0.13-0.384-0.2-0.601-0.2h-0.957c-2.134,0-4.091,1.173-5.11,3.067c-0.438,0.829-0.671,1.769-0.671,2.716V45
				c0,0.553,0.447,1,1,1c0.553,0,1-0.447,1-1v-7.652c0-0.622,0.151-1.238,0.436-1.774c0.571-1.062,1.595-1.773,2.753-1.958
				l1.612,3.223c0.174,0.347,0.524,0.553,0.895,0.553c0.105,0,0.212-0.017,0.315-0.051L22,36.822v10.09c0,0.553,0.447,1,1,1
				c0.553,0,1-0.447,1-1v-10.09l1.554,0.518c0.103,0.034,0.21,0.051,0.315,0.051c0.37,0,0.721-0.206,0.895-0.553l1.612-3.223
				c1.158,0.185,2.182,0.896,2.75,1.952c0.287,0.542,0.438,1.158,0.438,1.78V45c0,0.553,0.447,1,1,1c0.553,0,1-0.447,1-1v-7.652
				c0-0.947-0.232-1.887-0.674-2.722C31.874,32.737,29.917,31.565,27.783,31.565z"/>
			<path fill="#004AE1" d="M17.217,25.869c0,3.188,2.595,5.783,5.783,5.783c3.188,0,5.783-2.595,5.783-5.783
				c0-3.188-2.595-5.781-5.783-5.781C19.811,20.088,17.217,22.682,17.217,25.869z M23,22.088c2.086,0,3.783,1.696,3.783,3.781
				c0,2.086-1.697,3.783-3.783,3.783c-2.086,0-3.783-1.697-3.783-3.783C19.217,23.784,20.914,22.088,23,22.088z"/>
			<path fill="#004AE1" d="M45.326,14.54c-1.015-1.889-2.973-3.061-5.109-3.061h-0.955c-0.217,0-0.427,0.07-0.6,0.2l-3.227,2.42
				l-3.226-2.42c-0.173-0.13-0.383-0.2-0.6-0.2h-0.957c-2.137,0-4.095,1.173-5.113,3.068c-0.438,0.831-0.67,1.77-0.67,2.715v0.955
				c0,0.553,0.447,1,1,1c0.553,0,1-0.447,1-1v-0.955c0-0.621,0.151-1.237,0.436-1.774c0.57-1.061,1.594-1.773,2.755-1.958
				l1.61,3.223c0.173,0.347,0.524,0.553,0.895,0.553c0.105,0,0.212-0.017,0.316-0.052l1.555-0.518v8.178c0,0.553,0.447,1,1,1
				c0.553,0,1-0.447,1-1v-8.177l1.553,0.517c0.104,0.035,0.211,0.052,0.316,0.052c0.37,0,0.722-0.206,0.895-0.553l1.61-3.223
				c1.161,0.184,2.184,0.897,2.752,1.953C43.849,16.022,44,16.638,44,17.262V23c0,0.553,0.447,1,1,1c0.553,0,1-0.447,1-1v-5.738
				C46,16.312,45.768,15.372,45.326,14.54z"/>
			<path fill="#004AE1" d="M35.435,11.564c3.188,0,5.781-2.594,5.781-5.781C41.217,2.595,38.623,0,35.435,0
				c-3.188,0-5.783,2.595-5.783,5.783C29.652,8.971,32.247,11.564,35.435,11.564z M35.435,2c2.085,0,3.781,1.697,3.781,3.783
				c0,2.085-1.696,3.781-3.781,3.781c-2.086,0-3.783-1.696-3.783-3.781C31.652,3.697,33.35,2,35.435,2z"/>
			<path fill="#004AE1" d="M13.119,17.253c0.104,0.035,0.211,0.052,0.316,0.052c0.37,0,0.722-0.206,0.895-0.553l1.61-3.223
				c1.161,0.184,2.184,0.896,2.751,1.951c0.288,0.544,0.44,1.16,0.44,1.781v0.955c0,0.553,0.447,1,1,1c0.553,0,1-0.447,1-1v-0.955
				c0-0.945-0.232-1.884-0.674-2.722c-1.015-1.889-2.973-3.061-5.109-3.061h-0.957c-0.217,0-0.427,0.07-0.6,0.2l-3.227,2.42
				l-3.227-2.42c-0.173-0.13-0.383-0.2-0.6-0.2H5.783c-2.137,0-4.095,1.173-5.112,3.066C0.232,15.372,0,16.312,0,17.262V23
				c0,0.553,0.447,1,1,1c0.553,0,1-0.447,1-1v-5.738c0-0.624,0.151-1.239,0.435-1.774c0.57-1.061,1.594-1.773,2.755-1.958
				l1.61,3.223c0.173,0.347,0.524,0.553,0.895,0.553c0.105,0,0.212-0.017,0.316-0.052l1.553-0.517v8.177c0,0.553,0.447,1,1,1
				c0.553,0,1-0.447,1-1v-8.178L13.119,17.253z"/>
			<path fill="#004AE1" d="M10.564,11.564c3.188,0,5.783-2.594,5.783-5.781C16.348,2.595,13.753,0,10.564,0
				C7.377,0,4.783,2.595,4.783,5.783C4.783,8.971,7.377,11.564,10.564,11.564z M10.564,2c2.086,0,3.783,1.697,3.783,3.783
				c0,2.085-1.697,3.781-3.783,3.781c-2.085,0-3.781-1.696-3.781-3.781C6.783,3.697,8.479,2,10.564,2z"/>
		</g>
	</g>
</g>
<g id="Profil_Walikota_Surabaya">
</g>
<g id="Alamat_Pemerintah_Kota_Surabaya">
</g>
<g id="Transportasi">
</g>
<g id="Bisnis__x26__Investasi">
</g>
<g id="Akomodasi">
</g>
<g id="Wisata">
</g>
<g id="Media_Center">
</g>
<g id="SSW_Alfa">
</g>
<g id="EHealth">
</g>
<g id="Lawan_Covid">
</g>
<g id="Wadul_Sertifikat_Vaksin">
</g>
<g id="Profil_Sekolah">
</g>
<g id="Rapor_Online">
</g>
<g id="Sistem_Informasi_Aplikasi_Guru">
</g>
<g id="EPemuktakhiran_Data">
</g>
<g id="Klampid">
</g>
<g id="EPeken_Surabaya">
</g>
<g id="Username">
</g>
<g id="Password_1_">
</g>
<g id="Pencarian">
</g>
<g id="Share">
</g>
<g id="Lihat_Semua">
</g>
<g id="User">
</g>
<g id="Contact">
</g>
<g id="Location">
</g>
<g id="Play_Podcast">
</g>
<g id="Previous_Blue">
</g>
<g id="Next">
</g>
<g id="Navigasi_Previous">
</g>
<g id="Navigasi_Next">
</g>
<g id="Play_Video">
</g>
<g id="Facebook_1_">
</g>
<g id="Twitter">
</g>
<g id="Instagram_1_">
</g>
<g id="Youtube">
</g>
</svg>
