<?xml version="1.0" encoding="utf-8"?>
<!-- Generator: Adobe Illustrator 23.1.1, SVG Export Plug-In . SVG Version: 6.00 Build 0)  -->
<svg version="1.1" xmlns="http://www.w3.org/2000/svg" xmlns:xlink="http://www.w3.org/1999/xlink" x="0px" y="0px"
	 viewBox="0 0 48 48" enable-background="new 0 0 48 48" xml:space="preserve">
<g id="Icon_Grid" display="none">
</g>
<g id="BG" display="none">
	<rect display="inline" fill="#FFFFFF" width="48" height="48"/>
</g>
<g id="Mengenal_Surabaya">
</g>
<g id="Layanan_Publik">
</g>
<g id="Informasi_Publik">
</g>
<g id="Home">
</g>
<g id="Tentang_Surabaya">
</g>
<g id="Pemerintahan">
</g>
<g id="Ada_Apa_di_Surabaya_x3F_">
</g>
<g id="Pengaduan_Masyarakat">
</g>
<g id="Perizinan">
</g>
<g id="Kesehatan">
</g>
<g id="Pendidikan">
</g>
<g id="Sosial_Masyarakat">
</g>
<g id="Kependudukan">
</g>
<g id="Pemberdayaan_Ekonomi">
	<g>
		<g>
			<path fill="#FDD300" d="M46.043,7.739h-1L45,9.695l-3.738,0.044L41.304,46h-1.999h-3.74h-2V18.305l-4.738,0.043L28.867,46h-1.998
				h-3.738h-2V25l-4.74,0.044L16.434,46h-1.998h-3.74h-2V30.739l-4.738,0.043L3.997,46H2v1c0,0.552,0.447,1,1,1h44
				c0.553,0,1-0.448,1-1V9.695C48,8.617,47.122,7.739,46.043,7.739z"/>
			<path fill="#FDD300" d="M4.912,20.261c11.14,0,21.783-4.892,32.479-14.92v0.528c0,0.552,0.447,1,1,1c0.553,0,1-0.448,1-1V3
				c0-0.031-0.015-0.058-0.018-0.088c-0.009-0.099-0.021-0.197-0.059-0.291c-0.044-0.107-0.111-0.201-0.188-0.286
				c-0.01-0.011-0.014-0.026-0.024-0.038c0,0-0.001,0-0.001,0c-0.093-0.093-0.202-0.168-0.325-0.219
				C38.653,2.027,38.523,2.001,38.394,2l-0.003,0h-2.869c-0.553,0-1,0.448-1,1s0.447,1,1,1h0.38
				C25.53,13.712,15.632,18.261,4.912,18.261c-0.553,0-1,0.448-1,1C3.912,19.813,4.359,20.261,4.912,20.261z"/>
		</g>
		<g>
			<path fill="#004AE1" d="M44.043,5.739h-4.781c-1.079,0-1.957,0.877-1.957,1.956V44h-3.74V16.305c0-1.079-0.877-1.957-1.955-1.957
				h-4.783c-1.079,0-1.957,0.878-1.957,1.957V44h-3.738V23c0-1.079-0.878-1.956-1.957-1.956h-4.783
				c-1.078,0-1.955,0.878-1.955,1.956v21h-3.74V28.739c0-1.079-0.878-1.957-1.957-1.957H1.957C0.878,26.782,0,27.66,0,28.739V45
				c0,0.552,0.447,1,1,1h44c0.553,0,1-0.448,1-1V7.695C46,6.617,45.122,5.739,44.043,5.739z M39.262,7.739L44,7.695V44h-4.696
				L39.262,7.739z M26.826,16.348l4.738-0.043V44h-4.697L26.826,16.348z M14.391,23.044L19.131,23v21h-4.697L14.391,23.044z
				 M6.695,28.739V44H1.997l-0.04-15.218L6.695,28.739z"/>
			<path fill="#004AE1" d="M2.912,18.261c11.14,0,21.783-4.892,32.479-14.92v0.528c0,0.552,0.447,1,1,1c0.553,0,1-0.448,1-1V1
				c0-0.031-0.015-0.058-0.018-0.088c-0.009-0.099-0.021-0.197-0.059-0.29c-0.044-0.107-0.111-0.201-0.188-0.286
				c-0.01-0.011-0.014-0.026-0.024-0.038c0,0-0.001,0-0.001,0c-0.093-0.093-0.202-0.168-0.325-0.219
				c-0.122-0.051-0.252-0.077-0.382-0.077L36.391,0h-2.869c-0.553,0-1,0.448-1,1s0.447,1,1,1h0.38
				C23.53,11.712,13.632,16.261,2.912,16.261c-0.553,0-1,0.448-1,1C1.912,17.813,2.359,18.261,2.912,18.261z"/>
		</g>
	</g>
</g>
<g id="Whistle_Blower_System">
</g>
<g id="JDIH">
</g>
<g id="PPID">
</g>
<g id="Open_Data">
</g>
<g id="Satu_Peta">
</g>
<g id="Foto">
</g>
<g id="Video">
</g>
<g id="Infografis">
</g>
<g id="Podcast">
</g>
<g id="Berita_Terbaru">
</g>
<g id="Siaran_Pers">
</g>
<g id="Visi__x26__Misi">
</g>
<g id="Struktur_Organisasi_Pemerintahan_Surabaya">
</g>
<g id="Perangkat_Daerah">
</g>
<g id="Profil_Walikota_Surabaya">
</g>
<g id="Alamat_Pemerintah_Kota_Surabaya">
</g>
<g id="Transportasi">
</g>
<g id="Bisnis__x26__Investasi">
</g>
<g id="Akomodasi">
</g>
<g id="Wisata">
</g>
<g id="Media_Center">
</g>
<g id="SSW_Alfa">
</g>
<g id="EHealth">
</g>
<g id="Lawan_Covid">
</g>
<g id="Wadul_Sertifikat_Vaksin">
</g>
<g id="Profil_Sekolah">
</g>
<g id="Rapor_Online">
</g>
<g id="Sistem_Informasi_Aplikasi_Guru">
</g>
<g id="EPemuktakhiran_Data">
</g>
<g id="Klampid">
</g>
<g id="EPeken_Surabaya">
</g>
<g id="Username">
</g>
<g id="Password_1_">
</g>
<g id="Pencarian">
</g>
<g id="Share">
</g>
<g id="Lihat_Semua">
</g>
<g id="User">
</g>
<g id="Contact">
</g>
<g id="Location">
</g>
<g id="Play_Podcast">
</g>
<g id="Previous_Blue">
</g>
<g id="Next">
</g>
<g id="Navigasi_Previous">
</g>
<g id="Navigasi_Next">
</g>
<g id="Play_Video">
</g>
<g id="Facebook_1_">
</g>
<g id="Twitter">
</g>
<g id="Instagram_1_">
</g>
<g id="Youtube">
</g>
</svg>
