<?xml version="1.0" encoding="utf-8"?>
<!-- Generator: Adobe Illustrator 23.1.1, SVG Export Plug-In . SVG Version: 6.00 Build 0)  -->
<svg version="1.1" xmlns="http://www.w3.org/2000/svg" xmlns:xlink="http://www.w3.org/1999/xlink" x="0px" y="0px"
	 viewBox="0 0 48 48" enable-background="new 0 0 48 48" xml:space="preserve">
<g id="Icon_Grid" display="none">
</g>
<g id="BG" display="none">
	<rect display="inline" fill="#FFFFFF" width="48" height="48"/>
</g>
<g id="Mengenal_Surabaya">
</g>
<g id="Layanan_Publik">
</g>
<g id="Informasi_Publik">
</g>
<g id="Home">
</g>
<g id="Tentang_Surabaya">
</g>
<g id="Pemerintahan">
</g>
<g id="Ada_Apa_di_Surabaya_x3F_">
</g>
<g id="Pengaduan_Masyarakat">
</g>
<g id="Perizinan">
</g>
<g id="Kesehatan">
</g>
<g id="Pendidikan">
	<g>
		<g>
			<path fill="#FDD300" d="M37.742,42.917c-1.468-0.039-2.71-0.546-4.025-1.083c-2.391-0.975-5.09-2.069-9.001,0.172
				c-3.911-2.242-6.609-1.148-9.001-0.172c-1.315,0.537-2.558,1.044-4.025,1.083c-0.293,0.008-0.568,0.144-0.752,0.372
				c-0.185,0.228-0.261,0.526-0.204,0.814c0.298,1.522,0.334,2.202,0.295,2.376c-0.223,0.364-0.193,0.844,0.103,1.181
				c0.197,0.225,0.474,0.34,0.751,0.34c0.235,0,0.471-0.082,0.66-0.249c0.365-0.321,0.375-0.855,0.342-0.938
				c1.325-0.205,2.471-0.672,3.587-1.128c0.511-0.208,0.999-0.406,1.482-0.572c-0.058-0.081-0.115-0.163-0.147-0.263
				c-0.171-0.525,0.117-1.089,0.643-1.26c2.939-0.955,5.142,0.289,6.268,1.083c1.126-0.794,3.328-2.038,6.268-1.083
				c0.525,0.17,0.814,0.734,0.643,1.26c-0.032,0.1-0.09,0.182-0.149,0.263c0.484,0.166,0.973,0.363,1.483,0.572
				c1.116,0.455,2.262,0.923,3.587,1.128c0.035,0.104-0.023,0.617,0.342,0.938C37.079,47.918,37.314,48,37.55,48
				c0.277,0,0.554-0.115,0.751-0.34c0.296-0.337,0.325-0.817,0.102-1.181c-0.039-0.174-0.122-0.823,0.295-2.376
				c0.076-0.283-0.02-0.586-0.204-0.814C38.31,43.061,38.035,42.925,37.742,42.917z"/>
			<path fill="#FDD300" d="M19.709,19.269C19.81,19.705,20.198,20,20.628,20c0.014,0,0.396-0.001,0.986-0.002v0
				c0.584-4.502,1.61-6.231,2.216-6.875c0.003-0.004,0.003-0.01,0.006-0.015c0.229-0.361,0.67-0.506,1.074-0.418
				c0.071,0.014,0.134,0.048,0.2,0.077c0.046,0.021,0.097,0.026,0.14,0.054c0.008,0.005,0.019,0.014,0.028,0.02
				c0.005,0.003,0.011,0.007,0.016,0.011c0.478,0.329,1.82,1.723,2.522,7.134c0-0.001,0-0.003,0-0.004
				c1.186-0.003,2.041-0.005,2.041-0.005C29.928,19.992,30,20,30.07,20c0.43,0,0.817-0.295,0.919-0.731
				c0.746-3.234,2.433-7.751,4.73-9.84c0.214-0.194,0.327-0.477,0.306-0.766c-0.021-0.289-0.172-0.552-0.412-0.714
				c-0.738-0.5-1.995-1.17-3.448-1.947c-2.182-1.164-4.896-2.613-6.208-3.717c-0.029-0.025-0.064-0.032-0.096-0.052
				c-0.054-0.036-0.105-0.066-0.164-0.09c-0.057-0.022-0.11-0.037-0.169-0.048c-0.062-0.012-0.119-0.02-0.183-0.019
				c-0.058,0-0.113,0.007-0.17,0.018c-0.062,0.011-0.12,0.027-0.179,0.051c-0.057,0.023-0.108,0.052-0.159,0.086
				c-0.031,0.021-0.068,0.029-0.098,0.054c-1.311,1.104-4.025,2.553-6.207,3.717c-1.454,0.776-2.711,1.447-3.449,1.947
				c-0.239,0.163-0.392,0.426-0.412,0.714c-0.021,0.289,0.093,0.571,0.307,0.766C17.275,11.518,18.963,16.035,19.709,19.269z"/>
			<path fill="#FDD300" d="M47.221,20.205c-0.274-0.422-0.591-0.837-0.918-1.264c-0.927-1.21-1.886-2.462-2.093-4.381
				c-0.042-0.394-0.315-0.726-0.692-0.846c-0.377-0.122-0.791-0.005-1.053,0.293l1.297,4.843c0.079,0.303,0.166,0.609,0.253,0.914
				c0.507,1.777,1.081,3.791-0.443,4.95c-1.441,1.096-3.586-0.008-5.853-1.174c-1.92-0.986-4.309-2.212-5.073-1.308
				c-0.921,1.085-0.665,1.874-0.171,3.072c0.362,0.878,0.857,2.079-0.135,3.071c-0.729,0.729-1.745,0.958-2.719,0.61
				c-1.121-0.4-3.086-1.914-3.65-7.551c-0.319-3.189-0.848-4.973-1.26-5.938c-0.4,0.955-0.931,2.744-1.25,5.938
				c-0.564,5.637-2.529,7.15-3.65,7.551c-0.974,0.349-1.989,0.119-2.719-0.61c-0.992-0.992-0.497-2.194-0.135-3.071
				c0.494-1.198,0.75-1.987-0.171-3.072c-0.767-0.904-3.154,0.321-5.073,1.308c-2.268,1.167-4.41,2.272-5.852,1.174
				c-1.524-1.159-0.95-3.173-0.443-4.95c0.087-0.304,0.174-0.61,0.253-0.914c-0.317,0.477-0.646,0.907-0.953,1.308
				c-0.295,0.385-0.582,0.757-0.83,1.139c-1.15,1.769-0.123,5.834,3.143,12.427c0.963,1.944,2.309,3.149,4.001,3.582
				c-2.97,0.388-5.794-2.694-5.794-2.694c1.235,2.494,3.021,4.053,5.308,4.634c0.689,0.175,1.385,0.25,2.073,0.25
				c3.125,0,6.084-1.548,7.376-2.327c2.079,1.762,3.378,1.917,4.723,1.917s2.644-0.154,4.723-1.917
				c1.292,0.779,4.251,2.328,7.376,2.327c0.688,0,1.385-0.075,2.073-0.25c2.287-0.581,4.072-2.14,5.308-4.634
				C47.95,27.026,48.855,22.718,47.221,20.205z"/>
		</g>
		<g>
			<path fill="#004AE1" d="M37.072,41.289c-0.184-0.229-0.459-0.364-0.752-0.372c-1.468-0.039-2.71-0.546-4.025-1.083
				c-2.391-0.975-5.09-2.069-9.001,0.172c-3.911-2.242-6.609-1.148-9.001-0.172c-1.316,0.537-2.558,1.044-4.025,1.083
				c-0.293,0.008-0.568,0.144-0.752,0.372c-0.184,0.228-0.259,0.526-0.204,0.814c0.454,2.392,0.334,3.202,0.295,3.376
				c-0.223,0.364-0.193,0.844,0.103,1.181C9.906,46.885,10.183,47,10.46,47c0.235,0,0.471-0.082,0.66-0.249
				c0.365-0.321,0.773-1.085,0.342-3.938c1.325-0.205,2.471-0.672,3.587-1.128c2.445-0.998,4.377-1.788,7.709,0.326
				c0.041,0.025,0.086,0.03,0.129,0.049c0.071,0.032,0.141,0.068,0.218,0.083c0.064,0.012,0.126,0.005,0.189,0.005
				c0.063,0,0.126,0.007,0.189-0.005c0.077-0.015,0.147-0.051,0.218-0.083c0.043-0.019,0.088-0.024,0.129-0.049
				c3.33-2.113,5.263-1.324,7.709-0.326c1.116,0.455,2.262,0.923,3.587,1.128c-0.431,2.853-0.024,3.617,0.342,3.938
				C35.657,46.918,35.893,47,36.128,47c0.277,0,0.554-0.115,0.751-0.34c0.296-0.337,0.325-0.817,0.103-1.181
				c-0.039-0.174-0.159-0.984,0.295-3.376C37.331,41.815,37.257,41.517,37.072,41.289z"/>
			<path fill="#004AE1" d="M45.799,19.205c-0.274-0.422-0.591-0.837-0.918-1.264c-0.927-1.21-1.886-2.462-2.093-4.381
				c-0.042-0.394-0.314-0.726-0.692-0.846c-0.377-0.122-0.791-0.005-1.053,0.293c-1.64,1.865-0.938,4.327-0.373,6.305
				c0.331,1.161,0.706,2.477,0.269,2.81c-0.434,0.331-2.577-0.769-3.728-1.361c-2.681-1.379-5.716-2.94-7.513-0.823
				c-1.757,2.07-0.967,3.984-0.494,5.128c0.126,0.307,0.317,0.771,0.3,0.895c-0.183,0.183-0.388,0.228-0.633,0.141
				c-0.835-0.298-1.946-2.013-2.332-5.866c-0.646-6.455-2.154-8.028-2.667-8.382c-0.005-0.003-0.011-0.007-0.016-0.011
				c-0.009-0.006-0.021-0.015-0.028-0.02c-0.043-0.027-0.094-0.033-0.14-0.054c-0.066-0.029-0.129-0.064-0.2-0.077
				c-0.404-0.088-0.845,0.057-1.074,0.418c-0.003,0.005-0.003,0.01-0.006,0.015c-0.658,0.7-1.815,2.674-2.359,8.111
				c-0.386,3.853-1.497,5.568-2.332,5.866c-0.243,0.088-0.449,0.042-0.63-0.119c-0.021-0.145,0.171-0.609,0.297-0.916
				c0.473-1.144,1.263-3.059-0.494-5.128c-1.796-2.115-4.834-0.555-7.513,0.823c-1.15,0.591-3.295,1.691-3.728,1.361
				c-0.438-0.333-0.062-1.648,0.269-2.81c0.564-1.978,1.267-4.44-0.373-6.305c-0.262-0.298-0.677-0.415-1.053-0.293
				c-0.378,0.12-0.65,0.452-0.692,0.846c-0.207,1.919-1.166,3.171-2.093,4.381c-0.327,0.427-0.644,0.842-0.918,1.264
				c-1.635,2.513-0.729,6.821,3.025,14.406c1.235,2.494,3.021,4.053,5.308,4.634c0.688,0.175,1.385,0.25,2.073,0.25
				c3.125,0,6.084-1.548,7.376-2.327c2.079,1.762,3.378,1.917,4.723,1.917c1.345,0,2.644-0.154,4.723-1.917
				c1.292,0.779,4.251,2.328,7.376,2.327c0.689,0,1.385-0.075,2.073-0.25c2.287-0.581,4.072-2.14,5.308-4.634
				C46.528,26.026,47.434,21.718,45.799,19.205z M40.98,32.723c-0.963,1.944-2.309,3.149-4.001,3.582
				c-3.86,0.985-8.44-2.174-8.486-2.206c-0.384-0.27-0.907-0.234-1.254,0.085c-2.05,1.9-3.014,1.9-3.945,1.9
				c-0.932,0-1.896,0-3.945-1.9c-0.346-0.32-0.87-0.356-1.254-0.085c-0.046,0.032-4.62,3.196-8.486,2.206
				c-1.692-0.432-3.038-1.637-4.001-3.582c-3.266-6.593-4.293-10.658-3.143-12.427c0.248-0.381,0.535-0.753,0.83-1.139
				c0.307-0.4,0.636-0.831,0.953-1.308c-0.079,0.303-0.166,0.609-0.253,0.914c-0.507,1.777-1.081,3.791,0.443,4.95
				c1.442,1.097,3.585-0.008,5.853-1.174c1.919-0.987,4.307-2.212,5.073-1.308c0.921,1.085,0.665,1.874,0.171,3.072
				c-0.362,0.878-0.858,2.079,0.135,3.071c0.729,0.729,1.745,0.959,2.719,0.61c1.121-0.4,3.086-1.914,3.65-7.551
				c0.319-3.194,0.85-4.983,1.25-5.938c0.412,0.965,0.94,2.749,1.26,5.938c0.564,5.637,2.529,7.15,3.65,7.551
				c0.974,0.347,1.989,0.118,2.719-0.61c0.992-0.992,0.497-2.194,0.135-3.071c-0.494-1.198-0.75-1.987,0.171-3.072
				c0.765-0.904,3.153,0.321,5.073,1.308c2.267,1.167,4.411,2.27,5.853,1.174c1.524-1.159,0.95-3.173,0.443-4.95
				c-0.087-0.304-0.174-0.61-0.253-0.914c0.317,0.477,0.646,0.907,0.953,1.308c0.295,0.385,0.582,0.757,0.83,1.139
				C45.273,22.065,44.246,26.129,40.98,32.723z"/>
			<path fill="#004AE1" d="M29.561,42.59c-2.939-0.955-5.142,0.289-6.268,1.083c-1.126-0.794-3.328-2.038-6.267-1.083
				c-0.525,0.17-0.813,0.734-0.643,1.26c0.17,0.524,0.731,0.814,1.26,0.643c2.396-0.776,4.016,0.444,4.886,1.101l0.172,0.128
				c0.032,0.024,0.069,0.034,0.104,0.053c0.033,0.019,0.063,0.035,0.098,0.05c0.126,0.055,0.257,0.092,0.391,0.092l0.001,0l0.001,0
				c0.134,0,0.265-0.037,0.391-0.092c0.034-0.015,0.065-0.031,0.098-0.05c0.034-0.019,0.071-0.029,0.104-0.053l0.172-0.128
				c0.87-0.656,2.489-1.875,4.886-1.101c0.525,0.171,1.09-0.117,1.26-0.643C30.375,43.325,30.087,42.761,29.561,42.59z"/>
			<path fill="#004AE1" d="M17.319,18.225C17.427,18.688,17.838,19,18.293,19c0.074,0,0.15-0.008,0.226-0.025
				c0.538-0.125,0.874-0.661,0.75-1.2c-0.282-1.222-1.74-7.023-4.703-10.505c0.691-0.394,1.556-0.855,2.45-1.332
				c2.201-1.175,4.659-2.486,6.278-3.669c1.619,1.183,4.077,2.495,6.278,3.669c0.895,0.478,1.759,0.939,2.45,1.332
				c-2.963,3.483-4.421,9.283-4.703,10.505c-0.124,0.539,0.212,1.075,0.75,1.2C28.144,18.992,28.221,19,28.295,19
				c0.455,0,0.866-0.312,0.974-0.775c0.79-3.425,2.577-8.21,5.011-10.423c0.227-0.206,0.347-0.505,0.324-0.811
				c-0.021-0.306-0.183-0.584-0.436-0.757c-0.782-0.53-2.113-1.24-3.653-2.062c-2.311-1.233-5.187-2.768-6.575-3.938
				c-0.031-0.026-0.068-0.034-0.102-0.055c-0.057-0.038-0.112-0.07-0.174-0.095c-0.06-0.023-0.117-0.039-0.179-0.051
				c-0.066-0.013-0.127-0.021-0.193-0.02c-0.062,0-0.12,0.007-0.181,0.019c-0.066,0.012-0.127,0.028-0.19,0.054
				c-0.06,0.024-0.113,0.056-0.168,0.091C22.72,0.2,22.681,0.208,22.649,0.235c-1.389,1.169-4.265,2.704-6.575,3.938
				c-1.54,0.822-2.871,1.532-3.653,2.062c-0.254,0.172-0.415,0.451-0.436,0.757c-0.023,0.306,0.098,0.605,0.324,0.811
				C14.742,10.015,16.529,14.8,17.319,18.225z"/>
		</g>
	</g>
</g>
<g id="Sosial_Masyarakat">
</g>
<g id="Kependudukan">
</g>
<g id="Pemberdayaan_Ekonomi">
</g>
<g id="Whistle_Blower_System">
</g>
<g id="JDIH">
</g>
<g id="PPID">
</g>
<g id="Open_Data">
</g>
<g id="Satu_Peta">
</g>
<g id="Foto">
</g>
<g id="Video">
</g>
<g id="Infografis">
</g>
<g id="Podcast">
</g>
<g id="Berita_Terbaru">
</g>
<g id="Siaran_Pers">
</g>
<g id="Visi__x26__Misi">
</g>
<g id="Struktur_Organisasi_Pemerintahan_Surabaya">
</g>
<g id="Perangkat_Daerah">
</g>
<g id="Profil_Walikota_Surabaya">
</g>
<g id="Alamat_Pemerintah_Kota_Surabaya">
</g>
<g id="Transportasi">
</g>
<g id="Bisnis__x26__Investasi">
</g>
<g id="Akomodasi">
</g>
<g id="Wisata">
</g>
<g id="Media_Center">
</g>
<g id="SSW_Alfa">
</g>
<g id="EHealth">
</g>
<g id="Lawan_Covid">
</g>
<g id="Wadul_Sertifikat_Vaksin">
</g>
<g id="Profil_Sekolah">
</g>
<g id="Rapor_Online">
</g>
<g id="Sistem_Informasi_Aplikasi_Guru">
</g>
<g id="EPemuktakhiran_Data">
</g>
<g id="Klampid">
</g>
<g id="EPeken_Surabaya">
</g>
<g id="Username">
</g>
<g id="Password_1_">
</g>
<g id="Pencarian">
</g>
<g id="Share">
</g>
<g id="Lihat_Semua">
</g>
<g id="User">
</g>
<g id="Contact">
</g>
<g id="Location">
</g>
<g id="Play_Podcast">
</g>
<g id="Previous_Blue">
</g>
<g id="Next">
</g>
<g id="Navigasi_Previous">
</g>
<g id="Navigasi_Next">
</g>
<g id="Play_Video">
</g>
<g id="Facebook_1_">
</g>
<g id="Twitter">
</g>
<g id="Instagram_1_">
</g>
<g id="Youtube">
</g>
</svg>
