<?xml version="1.0" encoding="utf-8"?>
<!-- Generator: Adobe Illustrator 23.1.1, SVG Export Plug-In . SVG Version: 6.00 Build 0)  -->
<svg version="1.1" xmlns="http://www.w3.org/2000/svg" xmlns:xlink="http://www.w3.org/1999/xlink" x="0px" y="0px"
	 viewBox="0 0 48 48" enable-background="new 0 0 48 48" xml:space="preserve">
<g id="Icon_Grid" display="none">
</g>
<g id="BG" display="none">
	<rect display="inline" fill="#FFFFFF" width="48" height="48"/>
</g>
<g id="Mengenal_Surabaya">
</g>
<g id="Layanan_Publik">
</g>
<g id="Informasi_Publik">
</g>
<g id="Home">
</g>
<g id="Tentang_Surabaya">
</g>
<g id="Pemerintahan">
	<g>
		<g>
			<path fill="#FDD300" d="M40.58,40.449c-2.279-4.485-3.483-9.584-3.483-14.746c0-5.161,1.204-10.261,3.483-14.746
				c0.147-0.288,0.14-0.63-0.019-0.913c-0.157-0.282-0.446-0.467-0.768-0.492c-5.211-0.417-10.167-2.465-14.332-5.922
				c-0.359-0.298-0.879-0.298-1.238,0c-4.165,3.457-9.12,5.504-14.332,5.922c-0.321,0.025-0.61,0.21-0.768,0.493
				c-0.158,0.282-0.166,0.625-0.018,0.913c2.279,4.485,3.483,9.584,3.483,14.746c0,5.162-1.204,10.261-3.483,14.746
				c-0.148,0.288-0.14,0.63,0.017,0.913c0.158,0.282,0.447,0.467,0.769,0.493c5.212,0.418,10.168,2.466,14.332,5.922
				C24.403,47.926,24.623,48,24.843,48c0.22,0,0.439-0.074,0.619-0.224c4.164-3.456,9.12-5.504,14.332-5.922
				c0.321-0.025,0.61-0.21,0.769-0.493C40.72,41.08,40.728,40.737,40.58,40.449z M24.435,12c3.338,0,6.738,1.953,6.738,3.87
				c0,0.508-0.249,1.365-1.675,2.026c0.459,0.844,0.72,1.786,0.72,2.756c0,3.188-2.595,5.782-5.783,5.782
				c-3.188,0-5.783-2.594-5.783-5.782c0-0.97,0.261-1.912,0.719-2.757c-1.426-0.66-1.675-1.517-1.675-2.025
				C17.696,13.953,21.098,12,24.435,12z M35,35.957c0,0.552-0.447,1-1,1s-1-0.448-1-1v-3.826c0-0.623-0.151-1.239-0.438-1.781
				c-0.567-1.056-1.591-1.768-2.75-1.952l-1.612,3.223c-0.174,0.347-0.524,0.553-0.894,0.553c-0.106,0-0.212-0.017-0.316-0.051
				l-1.553-0.518v8.178c0,0.552-0.447,1-1,1c-0.553,0-1-0.448-1-1v-8.178l-1.553,0.518c-0.104,0.035-0.211,0.051-0.316,0.051
				c-0.37,0-0.721-0.206-0.895-0.553l-1.612-3.223c-1.159,0.184-2.183,0.897-2.753,1.958c-0.284,0.536-0.436,1.152-0.436,1.775
				v3.826c0,0.552-0.447,1-1,1s-1-0.448-1-1v-3.826c0-0.948,0.232-1.887,0.671-2.716c1.019-1.894,2.976-3.067,5.11-3.067h0.957
				c0.217,0,0.427,0.07,0.6,0.2l3.226,2.42l3.227-2.42c0.173-0.13,0.383-0.2,0.6-0.2h0.957c2.135,0,4.092,1.173,5.107,3.061
				C34.768,30.244,35,31.183,35,32.131V35.957z"/>
			<path fill="#FDD300" d="M21.566,15.826h5.738c0.348,0,0.639,0.188,0.818,0.457c0.567-0.184,0.888-0.374,1.016-0.484
				C28.837,15.307,26.98,14,24.435,14c-2.488,0-4.318,1.249-4.686,1.813c0.137,0.112,0.454,0.294,0.999,0.471
				C20.928,16.015,21.219,15.826,21.566,15.826z"/>
		</g>
		<g>
			<path fill="#004AE1" d="M39.537,38.211c-2.352-4.626-3.594-9.887-3.594-15.211s1.242-10.585,3.594-15.211
				c0.151-0.297,0.144-0.65-0.02-0.942c-0.162-0.291-0.46-0.482-0.792-0.508c-5.375-0.43-10.487-2.543-14.784-6.109
				c-0.371-0.308-0.906-0.308-1.277,0C18.367,3.796,13.256,5.909,7.88,6.339C7.548,6.366,7.25,6.556,7.088,6.848
				c-0.163,0.291-0.171,0.644-0.02,0.941C9.42,12.415,10.662,17.676,10.662,23S9.42,33.584,7.068,38.211
				c-0.151,0.297-0.144,0.65,0.019,0.941c0.163,0.291,0.461,0.482,0.793,0.508c5.376,0.431,10.488,2.544,14.784,6.109
				C22.85,45.923,23.076,46,23.303,46c0.227,0,0.453-0.077,0.639-0.23c4.296-3.565,9.408-5.678,14.784-6.109
				c0.332-0.026,0.63-0.217,0.793-0.508C39.681,38.861,39.688,38.508,39.537,38.211z M23.303,43.715
				c-4.09-3.212-8.829-5.23-13.826-5.895c2.088-4.581,3.186-9.674,3.186-14.82S11.564,12.761,9.477,8.18
				c4.997-0.664,9.736-2.683,13.826-5.895c4.09,3.212,8.829,5.231,13.826,5.895c-2.088,4.581-3.185,9.673-3.185,14.82
				s1.098,10.239,3.185,14.82C32.132,38.484,27.393,40.503,23.303,43.715z"/>
			<g>
				<path fill="#004AE1" d="M28.086,24.869h-0.957c-0.217,0-0.427,0.07-0.6,0.2l-3.227,2.42l-3.226-2.42
					c-0.173-0.13-0.383-0.2-0.6-0.2H18.52c-2.135,0-4.092,1.173-5.11,3.067c-0.438,0.83-0.671,1.769-0.671,2.716v3.826
					c0,0.552,0.447,1,1,1c0.553,0,1-0.448,1-1v-3.826c0-0.623,0.151-1.239,0.436-1.775c0.57-1.061,1.594-1.773,2.753-1.957
					l1.612,3.223c0.174,0.347,0.524,0.553,0.894,0.553c0.106,0,0.212-0.017,0.316-0.051l1.553-0.517v8.178c0,0.552,0.447,1,1,1
					c0.553,0,1-0.448,1-1v-8.178l1.553,0.517c0.104,0.035,0.211,0.051,0.316,0.051c0.37,0,0.721-0.206,0.895-0.553l1.612-3.223
					c1.159,0.184,2.183,0.896,2.75,1.952c0.287,0.542,0.439,1.158,0.439,1.781v3.826c0,0.552,0.447,1,1,1s1-0.448,1-1v-3.826
					c0-0.948-0.232-1.887-0.674-2.722C32.178,26.042,30.221,24.869,28.086,24.869z"/>
				<path fill="#004AE1" d="M18.238,16.417c-0.458,0.845-0.719,1.787-0.719,2.757c0,3.189,2.595,5.782,5.783,5.782
					c3.188,0,5.783-2.594,5.783-5.782c0-0.971-0.261-1.912-0.72-2.756c1.426-0.661,1.675-1.518,1.675-2.026
					c0-1.917-3.4-3.87-6.738-3.87s-6.739,1.953-6.739,3.87C16.563,14.9,16.812,15.757,18.238,16.417z M23.303,22.956
					c-2.086,0-3.783-1.697-3.783-3.782c0-0.601,0.137-1.176,0.4-1.699c0.031,0.018,0.069,0.03,0.101,0.047
					c0.159,0.087,0.328,0.167,0.508,0.239c0.048,0.02,0.093,0.042,0.143,0.06c0.227,0.084,0.468,0.158,0.72,0.219
					c0.058,0.014,0.118,0.024,0.178,0.037c0.206,0.044,0.418,0.081,0.638,0.109c0.077,0.01,0.153,0.021,0.232,0.028
					c0.281,0.028,0.567,0.047,0.864,0.047c0.299,0,0.588-0.02,0.872-0.047c0.075-0.008,0.147-0.018,0.222-0.027
					c0.234-0.029,0.461-0.068,0.68-0.116c0.042-0.009,0.085-0.017,0.127-0.027c0.563-0.134,1.063-0.327,1.482-0.567
					c0.264,0.522,0.4,1.096,0.4,1.697C27.086,21.259,25.389,22.956,23.303,22.956z M23.303,12.521c2.545,0,4.401,1.307,4.703,1.799
					c-0.128,0.11-0.448,0.301-1.016,0.484c-0.18-0.269-0.471-0.457-0.818-0.457h-5.738c-0.348,0-0.639,0.188-0.818,0.457
					c-0.545-0.176-0.862-0.358-0.999-0.471C18.984,13.771,20.815,12.521,23.303,12.521z"/>
			</g>
		</g>
	</g>
</g>
<g id="Ada_Apa_di_Surabaya_x3F_">
</g>
<g id="Pengaduan_Masyarakat">
</g>
<g id="Perizinan">
</g>
<g id="Kesehatan">
</g>
<g id="Pendidikan">
</g>
<g id="Sosial_Masyarakat">
</g>
<g id="Kependudukan">
</g>
<g id="Pemberdayaan_Ekonomi">
</g>
<g id="Whistle_Blower_System">
</g>
<g id="JDIH">
</g>
<g id="PPID">
</g>
<g id="Open_Data">
</g>
<g id="Satu_Peta">
</g>
<g id="Foto">
</g>
<g id="Video">
</g>
<g id="Infografis">
</g>
<g id="Podcast">
</g>
<g id="Berita_Terbaru">
</g>
<g id="Siaran_Pers">
</g>
<g id="Visi__x26__Misi">
</g>
<g id="Struktur_Organisasi_Pemerintahan_Surabaya">
</g>
<g id="Perangkat_Daerah">
</g>
<g id="Profil_Walikota_Surabaya">
</g>
<g id="Alamat_Pemerintah_Kota_Surabaya">
</g>
<g id="Transportasi">
</g>
<g id="Bisnis__x26__Investasi">
</g>
<g id="Akomodasi">
</g>
<g id="Wisata">
</g>
<g id="Media_Center">
</g>
<g id="SSW_Alfa">
</g>
<g id="EHealth">
</g>
<g id="Lawan_Covid">
</g>
<g id="Wadul_Sertifikat_Vaksin">
</g>
<g id="Profil_Sekolah">
</g>
<g id="Rapor_Online">
</g>
<g id="Sistem_Informasi_Aplikasi_Guru">
</g>
<g id="EPemuktakhiran_Data">
</g>
<g id="Klampid">
</g>
<g id="EPeken_Surabaya">
</g>
<g id="Username">
</g>
<g id="Password_1_">
</g>
<g id="Pencarian">
</g>
<g id="Share">
</g>
<g id="Lihat_Semua">
</g>
<g id="User">
</g>
<g id="Contact">
</g>
<g id="Location">
</g>
<g id="Play_Podcast">
</g>
<g id="Previous_Blue">
</g>
<g id="Next">
</g>
<g id="Navigasi_Previous">
</g>
<g id="Navigasi_Next">
</g>
<g id="Play_Video">
</g>
<g id="Facebook_1_">
</g>
<g id="Twitter">
</g>
<g id="Instagram_1_">
</g>
<g id="Youtube">
</g>
</svg>
