<?xml version="1.0" encoding="utf-8"?>
<!-- Generator: Adobe Illustrator 23.1.1, SVG Export Plug-In . SVG Version: 6.00 Build 0)  -->
<svg version="1.1" xmlns="http://www.w3.org/2000/svg" xmlns:xlink="http://www.w3.org/1999/xlink" x="0px" y="0px"
	 viewBox="0 0 48 48" enable-background="new 0 0 48 48" xml:space="preserve">
<g id="Icon_Grid" display="none">
</g>
<g id="BG" display="none">
	<rect display="inline" fill="#FFFFFF" width="48" height="48"/>
</g>
<g id="Mengenal_Surabaya">
</g>
<g id="Layanan_Publik">
</g>
<g id="Informasi_Publik">
</g>
<g id="Home">
</g>
<g id="Tentang_Surabaya">
</g>
<g id="Pemerintahan">
</g>
<g id="Ada_Apa_di_Surabaya_x3F_">
</g>
<g id="Pengaduan_Masyarakat">
	<g>
		<g>
			<g>
				<path fill="#FDD300" d="M34.735,2.807c-7.315,0-13.266,5.922-13.266,13.201c0,2.343,0.618,4.623,1.792,6.623l-1.682,5.303
					c-0.111,0.348-0.019,0.729,0.24,0.987c0.187,0.187,0.437,0.287,0.691,0.287c0.1,0,0.199-0.015,0.297-0.045l5.342-1.695
					c1.998,1.141,4.265,1.741,6.585,1.741C42.05,29.209,48,23.287,48,16.008C48,8.729,42.05,2.807,34.735,2.807z M37.402,23.794
					c0,0.881-0.451,1.579-1.238,1.914c-0.27,0.101-0.508,0.143-0.754,0.143h-1.239c-0.771,0-1.402-0.382-1.776-1.077
					c-0.145-0.282-0.214-0.551-0.214-0.818v-1.062c0-0.696,0.36-1.3,1.014-1.702c0.046-0.028,0.094-0.053,0.144-0.073
					c0.275-0.112,0.546-0.169,0.803-0.169h1.302c0.776,0,1.407,0.41,1.776,1.154c0.131,0.308,0.183,0.592,0.183,0.901V23.794z
					 M35.492,15.119l0.12-6.913c0-0.024-0.002-0.046-0.004-0.067c-0.016-0.021-0.025-0.028-0.025-0.028 M37.402,17.906
					c0,0.858-0.435,1.551-1.196,1.902c-0.033,0.016-0.067,0.029-0.102,0.041c-0.227,0.075-0.483,0.114-0.758,0.114h-1.111
					c-0.882,0-1.578-0.452-1.913-1.24c-0.096-0.233-0.142-0.461-0.142-0.688l-0.279-9.914c0-0.73,0.365-1.332,1.028-1.723
					c0.029-0.017,0.059-0.033,0.089-0.046c0.268-0.123,0.552-0.186,0.843-0.186h1.732c0.777,0,1.418,0.411,1.803,1.157
					c0.026,0.051,0.048,0.104,0.065,0.158c0.071,0.231,0.107,0.48,0.107,0.741l-0.119,6.929L37.402,17.906z"/>
			</g>
			<path fill="#FDD300" d="M19.708,27.838c1.291-1.513,2.075-3.47,2.075-5.61c0-4.775-3.885-8.66-8.66-8.66
				c-4.775,0-8.66,3.885-8.66,8.66c0,2.137,0.782,4.091,2.069,5.604c-2.812,1.479-4.63,4.414-4.63,7.662v9.607
				C1.902,46.699,3.203,48,4.802,48h16.643c1.598,0,2.899-1.301,2.899-2.899v-9.607C24.344,32.261,22.517,29.32,19.708,27.838z"/>
		</g>
		<g>
			<g>
				<g>
					<path fill="#004AE1" d="M21.065,26.986c-0.261,0-0.517-0.102-0.707-0.293c-0.265-0.264-0.359-0.653-0.246-1.009l1.72-5.42
						C20.632,18.219,20,15.888,20,13.493C20,6.053,26.082,0,33.559,0c7.477,0,13.559,6.053,13.559,13.493
						c0,7.44-6.082,13.493-13.559,13.493c-2.371,0-4.687-0.614-6.73-1.779l-5.46,1.733C21.269,26.971,21.167,26.986,21.065,26.986z
						 M26.953,23.118c0.184,0,0.365,0.051,0.525,0.149c1.821,1.125,3.924,1.719,6.08,1.719c6.373,0,11.559-5.156,11.559-11.493
						S39.932,2,33.559,2C27.185,2,22,7.156,22,13.493c0,2.174,0.611,4.284,1.767,6.101c0.159,0.25,0.199,0.557,0.109,0.839
						l-1.274,4.016l4.048-1.285C26.75,23.134,26.852,23.118,26.953,23.118z"/>
				</g>
				<g>
					<g>
						<path fill="#004AE1" d="M34.249,23.553h-1.267c-0.789,0-1.434-0.391-1.816-1.101c-0.148-0.288-0.218-0.563-0.218-0.836V20.53
							c0-0.711,0.368-1.329,1.036-1.74c0.047-0.029,0.096-0.054,0.146-0.074c0.281-0.114,0.558-0.172,0.82-0.172h1.331
							c0.793,0,1.438,0.419,1.815,1.18c0.134,0.315,0.188,0.604,0.188,0.921v0.806c0,0.901-0.461,1.614-1.266,1.956
							C34.744,23.51,34.5,23.553,34.249,23.553z M32.947,21.517l1.302,0.036c0.022,0.003,0.036-0.023,0.036-0.102v-0.806
							c-0.013-0.1-0.036-0.123-0.037-0.123l-1.287,0.021c-0.011,0.004-0.027,0.027-0.027,0.027L32.947,21.517z M34.184,17.535
							h-1.136c-0.901,0-1.613-0.462-1.955-1.268c-0.098-0.237-0.145-0.47-0.145-0.703L30.662,5.432c0-0.746,0.374-1.361,1.052-1.761
							c0.029-0.018,0.059-0.033,0.091-0.047c0.274-0.126,0.563-0.19,0.861-0.19h1.769c0.795,0,1.449,0.42,1.843,1.183
							c0.026,0.052,0.049,0.106,0.066,0.162c0.073,0.236,0.11,0.491,0.11,0.758l-0.122,7.083c-0.01,0.553-0.485,0.99-1.018,0.983
							c-0.552-0.01-0.992-0.465-0.982-1.017l0.122-7.065c0-0.024-0.002-0.047-0.004-0.068c-0.016-0.021-0.025-0.028-0.025-0.029
							l-1.76,0.012l0,0c-0.004,0-0.025,0.025-0.025,0.026l0.307,10.073c0.009-0.005,0.033,0.003,0.101,0.003h1.136
							c0.031,0,0.057-0.002,0.077-0.003c0.021-0.024,0.024-0.054,0.024-0.099c0-0.552,0.447-1,1-1c0.553,0,1,0.448,1,1
							c0,0.877-0.445,1.586-1.223,1.944c-0.034,0.016-0.068,0.029-0.103,0.041C34.726,17.496,34.465,17.535,34.184,17.535z"/>
					</g>
				</g>
			</g>
			<path fill="#004AE1" d="M18.199,25.585c1.319-1.546,2.121-3.547,2.121-5.734c0-4.88-3.971-8.851-8.851-8.851
				c-4.881,0-8.852,3.971-8.852,8.851c0,2.184,0.799,4.182,2.115,5.727C1.858,27.091,0,30.09,0,33.41v9.82
				c0,1.634,1.329,2.963,2.963,2.963h17.012c1.634,0,2.963-1.33,2.963-2.963v-9.82C22.937,30.106,21.07,27.1,18.199,25.585z
				 M11.469,13c3.778,0,6.851,3.073,6.851,6.851c0,3.778-3.073,6.851-6.851,6.851c-3.778,0-6.852-3.074-6.852-6.851
				C4.617,16.073,7.69,13,11.469,13z M20.937,43.229c0,0.531-0.432,0.963-0.963,0.963H2.963C2.432,44.193,2,43.761,2,43.229v-9.82
				c0-2.819,1.737-5.331,4.339-6.359c1.448,1.036,3.217,1.652,5.13,1.652c1.915,0,3.684-0.618,5.135-1.655
				c2.596,1.028,4.334,3.558,4.334,6.362V43.229z"/>
		</g>
	</g>
</g>
<g id="Perizinan">
</g>
<g id="Kesehatan">
</g>
<g id="Pendidikan">
</g>
<g id="Sosial_Masyarakat">
</g>
<g id="Kependudukan">
</g>
<g id="Pemberdayaan_Ekonomi">
</g>
<g id="Whistle_Blower_System">
</g>
<g id="JDIH">
</g>
<g id="PPID">
</g>
<g id="Open_Data">
</g>
<g id="Satu_Peta">
</g>
<g id="Foto">
</g>
<g id="Video">
</g>
<g id="Infografis">
</g>
<g id="Podcast">
</g>
<g id="Berita_Terbaru">
</g>
<g id="Siaran_Pers">
</g>
<g id="Visi__x26__Misi">
</g>
<g id="Struktur_Organisasi_Pemerintahan_Surabaya">
</g>
<g id="Perangkat_Daerah">
</g>
<g id="Profil_Walikota_Surabaya">
</g>
<g id="Alamat_Pemerintah_Kota_Surabaya">
</g>
<g id="Transportasi">
</g>
<g id="Bisnis__x26__Investasi">
</g>
<g id="Akomodasi">
</g>
<g id="Wisata">
</g>
<g id="Media_Center">
</g>
<g id="SSW_Alfa">
</g>
<g id="EHealth">
</g>
<g id="Lawan_Covid">
</g>
<g id="Wadul_Sertifikat_Vaksin">
</g>
<g id="Profil_Sekolah">
</g>
<g id="Rapor_Online">
</g>
<g id="Sistem_Informasi_Aplikasi_Guru">
</g>
<g id="EPemuktakhiran_Data">
</g>
<g id="Klampid">
</g>
<g id="EPeken_Surabaya">
</g>
<g id="Username">
</g>
<g id="Password_1_">
</g>
<g id="Pencarian">
</g>
<g id="Share">
</g>
<g id="Lihat_Semua">
</g>
<g id="User">
</g>
<g id="Contact">
</g>
<g id="Location">
</g>
<g id="Play_Podcast">
</g>
<g id="Previous_Blue">
</g>
<g id="Next">
</g>
<g id="Navigasi_Previous">
</g>
<g id="Navigasi_Next">
</g>
<g id="Play_Video">
</g>
<g id="Facebook_1_">
</g>
<g id="Twitter">
</g>
<g id="Instagram_1_">
</g>
<g id="Youtube">
</g>
</svg>
