<?xml version="1.0" encoding="utf-8"?>
<!-- Generator: Adobe Illustrator 23.1.1, SVG Export Plug-In . SVG Version: 6.00 Build 0)  -->
<svg version="1.1" xmlns="http://www.w3.org/2000/svg" xmlns:xlink="http://www.w3.org/1999/xlink" x="0px" y="0px"
	 viewBox="0 0 48 48" enable-background="new 0 0 48 48" xml:space="preserve">
<g id="Icon_Grid" display="none">
</g>
<g id="BG" display="none">
	<rect display="inline" fill="#FFFFFF" width="48" height="48"/>
</g>
<g id="Mengenal_Surabaya">
</g>
<g id="Layanan_Publik">
</g>
<g id="Informasi_Publik">
</g>
<g id="Home">
</g>
<g id="Tentang_Surabaya">
</g>
<g id="Pemerintahan">
</g>
<g id="Ada_Apa_di_Surabaya_x3F_">
</g>
<g id="Pengaduan_Masyarakat">
</g>
<g id="Perizinan">
	<g>
		<g>
			<path fill="#FDD300" d="M26.167,30.562c0.527-0.165-0.537-1.859-0.702-2.387c-0.443-1.419-0.669-2.901-0.669-4.406
				c0-3.08,0.945-6.035,2.688-8.485c1.21-1.453,1.877-3.293,1.877-5.184C29.36,5.634,25.727,2,21.26,2
				c-4.467,0-8.101,3.634-8.101,8.101c0,1.89,0.667,3.731,1.831,5.123c1.788,2.51,2.733,5.465,2.733,8.545
				c0,8.041-6.509,14.617-14.531,14.717c-0.26-0.051-0.531-0.003-0.754,0.148C2.164,38.821,2,39.131,2,39.463v5.072
				c0,0.41,0.25,0.778,0.631,0.929C6.623,47.052,13.588,48,21.26,48c2.181,0,4.322-0.077,6.366-0.229
				c0.551-0.041,4.77-0.167,7.645-0.959L26.167,30.562z M23.185,42.908c-0.636,0.013-1.277,0.02-1.926,0.02
				c-2.836,0-5.604-0.13-8.229-0.386c-0.55-0.054-0.952-0.542-0.899-1.092c0.053-0.549,0.552-0.952,1.092-0.898
				c3.149,0.307,6.583,0.424,9.921,0.357c0.552,0.001,1.01,0.428,1.021,0.98C24.176,42.44,23.737,42.897,23.185,42.908z"/>
			<g>
				<path fill="#FDD300" d="M36,24c-6.617,0-12,5.383-12,12s5.383,12,12,12c6.617,0,12-5.383,12-12S42.617,24,36,24z M42.701,36.007
					l-5.738,5.738c-0.64,0.641-1.491,0.994-2.398,0.994c-0.905,0-1.757-0.354-2.397-0.995l-2.868-2.869
					c-0.641-0.64-0.994-1.491-0.994-2.397c-0.001-0.906,0.353-1.758,0.994-2.399c1.281-1.28,3.514-1.281,4.795,0l0.471,0.472
					l3.342-3.341c1.279-1.281,3.516-1.282,4.795,0c0.642,0.64,0.994,1.491,0.994,2.397C43.695,34.515,43.343,35.367,42.701,36.007z"
					/>
			</g>
		</g>
		<g>
			<g>
				<path fill="#004AE1" d="M11.224,38.551c-0.54-0.054-1.039,0.349-1.092,0.898c-0.054,0.55,0.349,1.039,0.898,1.092
					c2.625,0.256,5.393,0.386,8.229,0.386c0.648,0,1.29-0.007,1.926-0.02c0.552-0.011,0.99-0.468,0.98-1.02
					c-0.011-0.552-0.469-0.979-1.021-0.98C17.807,38.976,14.372,38.858,11.224,38.551z"/>
				<path fill="#004AE1" d="M25.477,43.777C23.483,43.925,21.391,44,19.26,44C12.335,44,5.827,43.179,2,41.84v-2.964
					c1.33,0.418,2.903,0.784,4.697,1.09c0.547,0.094,1.06-0.273,1.153-0.817c0.094-0.544-0.273-1.061-0.817-1.154
					c-0.411-0.07-0.799-0.148-1.188-0.226c6.86-2.086,11.878-8.476,11.878-15.999c0-3.499-1.073-6.855-3.15-9.766
					c-0.912-1.094-1.414-2.48-1.414-3.903C13.159,4.737,15.895,2,19.26,2c3.364,0,6.101,2.737,6.101,6.101
					c0,1.423-0.502,2.809-1.46,3.963c-2.031,2.851-3.104,6.207-3.104,9.706c0,1.708,0.256,3.392,0.761,5.003
					c0.164,0.527,0.723,0.82,1.253,0.655c0.527-0.164,0.82-0.726,0.655-1.253c-0.443-1.419-0.669-2.901-0.669-4.406
					c0-3.08,0.945-6.035,2.688-8.485c1.21-1.453,1.877-3.293,1.877-5.184C27.36,3.634,23.727,0,19.26,0
					c-4.467,0-8.101,3.634-8.101,8.101c0,1.89,0.667,3.731,1.831,5.123c1.788,2.51,2.733,5.465,2.733,8.545
					c0,8.041-6.509,14.617-14.531,14.717c-0.26-0.051-0.531-0.003-0.754,0.148C0.164,36.821,0,37.131,0,37.463v5.072
					c0,0.41,0.25,0.778,0.631,0.929C4.623,45.052,11.588,46,19.26,46c2.181,0,4.322-0.077,6.366-0.229
					c0.551-0.041,0.964-0.52,0.923-1.071S26.04,43.73,25.477,43.777z"/>
			</g>
			<path fill="#004AE1" d="M34,46c-6.617,0-12-5.383-12-12s5.383-12,12-12c6.617,0,12,5.383,12,12S40.617,46,34,46z M34,24
				c-5.514,0-10,4.486-10,10s4.486,10,10,10c5.514,0,10-4.486,10-10S39.514,24,34,24z"/>
			<path fill="#004AE1" d="M32.564,40.739c-0.905,0-1.757-0.354-2.397-0.995l-2.868-2.869c-0.641-0.64-0.994-1.491-0.994-2.397
				c-0.001-0.906,0.353-1.758,0.994-2.399c1.281-1.28,3.514-1.281,4.795,0l0.471,0.472l3.342-3.341c1.279-1.281,3.516-1.282,4.795,0
				c0.642,0.64,0.994,1.491,0.994,2.398c0,0.906-0.353,1.758-0.994,2.398l-5.738,5.738C34.323,40.386,33.472,40.739,32.564,40.739z
				 M29.696,33.087c-0.371,0-0.721,0.145-0.983,0.407c-0.264,0.264-0.409,0.613-0.408,0.984c0,0.371,0.145,0.72,0.407,0.982
				l2.87,2.87c0.525,0.528,1.442,0.526,1.966,0l5.739-5.739c0.264-0.264,0.408-0.613,0.408-0.984s-0.145-0.72-0.408-0.983
				c-0.525-0.527-1.441-0.526-1.967-0.001l-4.049,4.049c-0.187,0.188-0.441,0.293-0.707,0.293l0,0c-0.266,0-0.521-0.105-0.708-0.293
				l-1.178-1.179C30.417,33.231,30.067,33.087,29.696,33.087z"/>
		</g>
	</g>
</g>
<g id="Kesehatan">
</g>
<g id="Pendidikan">
</g>
<g id="Sosial_Masyarakat">
</g>
<g id="Kependudukan">
</g>
<g id="Pemberdayaan_Ekonomi">
</g>
<g id="Whistle_Blower_System">
</g>
<g id="JDIH">
</g>
<g id="PPID">
</g>
<g id="Open_Data">
</g>
<g id="Satu_Peta">
</g>
<g id="Foto">
</g>
<g id="Video">
</g>
<g id="Infografis">
</g>
<g id="Podcast">
</g>
<g id="Berita_Terbaru">
</g>
<g id="Siaran_Pers">
</g>
<g id="Visi__x26__Misi">
</g>
<g id="Struktur_Organisasi_Pemerintahan_Surabaya">
</g>
<g id="Perangkat_Daerah">
</g>
<g id="Profil_Walikota_Surabaya">
</g>
<g id="Alamat_Pemerintah_Kota_Surabaya">
</g>
<g id="Transportasi">
</g>
<g id="Bisnis__x26__Investasi">
</g>
<g id="Akomodasi">
</g>
<g id="Wisata">
</g>
<g id="Media_Center">
</g>
<g id="SSW_Alfa">
</g>
<g id="EHealth">
</g>
<g id="Lawan_Covid">
</g>
<g id="Wadul_Sertifikat_Vaksin">
</g>
<g id="Profil_Sekolah">
</g>
<g id="Rapor_Online">
</g>
<g id="Sistem_Informasi_Aplikasi_Guru">
</g>
<g id="EPemuktakhiran_Data">
</g>
<g id="Klampid">
</g>
<g id="EPeken_Surabaya">
</g>
<g id="Username">
</g>
<g id="Password_1_">
</g>
<g id="Pencarian">
</g>
<g id="Share">
</g>
<g id="Lihat_Semua">
</g>
<g id="User">
</g>
<g id="Contact">
</g>
<g id="Location">
</g>
<g id="Play_Podcast">
</g>
<g id="Previous_Blue">
</g>
<g id="Next">
</g>
<g id="Navigasi_Previous">
</g>
<g id="Navigasi_Next">
</g>
<g id="Play_Video">
</g>
<g id="Facebook_1_">
</g>
<g id="Twitter">
</g>
<g id="Instagram_1_">
</g>
<g id="Youtube">
</g>
</svg>
