<?xml version="1.0" encoding="utf-8"?>
<!-- Generator: Adobe Illustrator 23.1.1, SVG Export Plug-In . SVG Version: 6.00 Build 0)  -->
<svg version="1.1" xmlns="http://www.w3.org/2000/svg" xmlns:xlink="http://www.w3.org/1999/xlink" x="0px" y="0px"
	 viewBox="0 0 48 48" enable-background="new 0 0 48 48" xml:space="preserve">
<g id="Icon_Grid" display="none">
</g>
<g id="BG" display="none">
	<rect display="inline" fill="#FFFFFF" width="48" height="48"/>
</g>
<g id="Mengenal_Surabaya">
</g>
<g id="Layanan_Publik">
</g>
<g id="Informasi_Publik">
</g>
<g id="Home">
</g>
<g id="Tentang_Surabaya">
</g>
<g id="Pemerintahan">
</g>
<g id="Ada_Apa_di_Surabaya_x3F_">
</g>
<g id="Pengaduan_Masyarakat">
</g>
<g id="Perizinan">
</g>
<g id="Kesehatan">
</g>
<g id="Pendidikan">
</g>
<g id="Sosial_Masyarakat">
</g>
<g id="Kependudukan">
</g>
<g id="Pemberdayaan_Ekonomi">
</g>
<g id="Whistle_Blower_System">
</g>
<g id="JDIH">
</g>
<g id="PPID">
</g>
<g id="Open_Data">
</g>
<g id="Satu_Peta">
</g>
<g id="Foto">
</g>
<g id="Video">
</g>
<g id="Infografis">
</g>
<g id="Podcast">
	<g>
		<g>
			<g>
				<path fill="#FDD300" d="M14.719,35.543C12.416,33.003,11,29.646,11,25.956c0-0.552-0.447-1-1-1
					C10,29.154,11.829,32.924,14.719,35.543z"/>
				<path fill="#FDD300" d="M23.305,41.211c-3.861-0.235-7.355-1.827-10.033-4.292c2.559,2.799,6.078,4.694,10.033,5.182V41.211z"/>
				<path fill="#FDD300" d="M40.609,24.956c0,8.653-6.781,15.734-15.305,16.255V45h1v-2.789c8.523-0.521,15.305-7.601,15.305-16.255
					C41.609,25.404,41.162,24.956,40.609,24.956z"/>
				<path fill="#FDD300" d="M32.957,46c0,0.553-0.447,1-1,1H16.652c0,0.553,0.447,1,1,1h15.305c0.553,0,1-0.447,1-1
					S33.51,46,32.957,46z"/>
			</g>
			<g>
				<path fill="#FDD300" d="M34.783,19.261h-4.826c-0.553,0-1-0.448-1-1c0-0.552,0.447-1,1-1h4.826v-1.826h-7.695
					c-0.553,0-1-0.448-1-1s0.447-1,1-1h7.693C34.757,7.677,30.068,3,24.305,3c-5.764,0-10.452,4.677-10.477,10.435h7.693
					c0.553,0,1,0.448,1,1s-0.447,1-1,1h-7.695v1.826h4.826c0.553,0,1,0.448,1,1c0,0.552-0.447,1-1,1h-4.826v1.826h7.695
					c0.553,0,1,0.448,1,1c0,0.552-0.447,1-1,1h-7.695v1.869c0,5.778,4.7,10.479,10.478,10.479c5.778,0,10.479-4.701,10.479-10.479
					v-1.869h-7.695c-0.553,0-1-0.448-1-1c0-0.552,0.447-1,1-1"/>
				<path fill="#FDD300" d="M33.601,5.183c1.972,2.208,3.183,5.109,3.183,8.296v11.478c0,6.882-5.598,12.479-12.479,12.479
					c-3.186,0-6.088-1.21-8.296-3.183c2.287,2.56,5.602,4.183,9.296,4.183c6.881,0,12.479-5.598,12.479-12.479V14.479
					C37.783,10.784,36.16,7.47,33.601,5.183z"/>
			</g>
		</g>
		<g>
			<path fill="#004AE1" d="M39.609,23.956c0-0.552-0.447-1-1-1c-0.553,0-1,0.448-1,1c0,7.888-6.417,14.306-14.305,14.306
				C15.417,38.262,9,31.844,9,23.956c0-0.552-0.447-1-1-1c-0.553,0-1,0.448-1,1c0,8.653,6.781,15.734,15.305,16.255V44h-6.652
				c-0.553,0-1,0.447-1,1s0.447,1,1,1h15.305c0.553,0,1-0.447,1-1s-0.447-1-1-1h-6.652v-3.789
				C32.828,39.69,39.609,32.609,39.609,23.956z"/>
			<path fill="#004AE1" d="M23.305,36.436c6.881,0,12.479-5.598,12.479-12.479V12.479C35.783,5.598,30.185,0,23.305,0
				c-6.881,0-12.478,5.598-12.478,12.479v11.478C10.826,30.837,16.424,36.436,23.305,36.436z M12.826,22.087h5.695
				c0.553,0,1-0.448,1-1c0-0.552-0.447-1-1-1h-5.695v-1.826h2.826c0.553,0,1-0.448,1-1c0-0.552-0.447-1-1-1h-2.826v-1.826h5.695
				c0.553,0,1-0.448,1-1s-0.447-1-1-1h-5.693C12.852,6.677,17.541,2,23.305,2c5.764,0,10.452,4.677,10.477,10.435h-5.693
				c-0.553,0-1,0.448-1,1s0.447,1,1,1h5.695v1.826h-2.826c-0.553,0-1,0.448-1,1c0,0.552,0.447,1,1,1h2.826v1.826h-5.695
				c-0.553,0-1,0.448-1,1c0,0.552,0.447,1,1,1h5.695v1.869c0,5.778-4.7,10.479-10.479,10.479c-5.778,0-10.478-4.701-10.478-10.479
				V22.087z"/>
		</g>
	</g>
</g>
<g id="Berita_Terbaru">
</g>
<g id="Siaran_Pers">
</g>
<g id="Visi__x26__Misi">
</g>
<g id="Struktur_Organisasi_Pemerintahan_Surabaya">
</g>
<g id="Perangkat_Daerah">
</g>
<g id="Profil_Walikota_Surabaya">
</g>
<g id="Alamat_Pemerintah_Kota_Surabaya">
</g>
<g id="Transportasi">
</g>
<g id="Bisnis__x26__Investasi">
</g>
<g id="Akomodasi">
</g>
<g id="Wisata">
</g>
<g id="Media_Center">
</g>
<g id="SSW_Alfa">
</g>
<g id="EHealth">
</g>
<g id="Lawan_Covid">
</g>
<g id="Wadul_Sertifikat_Vaksin">
</g>
<g id="Profil_Sekolah">
</g>
<g id="Rapor_Online">
</g>
<g id="Sistem_Informasi_Aplikasi_Guru">
</g>
<g id="EPemuktakhiran_Data">
</g>
<g id="Klampid">
</g>
<g id="EPeken_Surabaya">
</g>
<g id="Username">
</g>
<g id="Password_1_">
</g>
<g id="Pencarian">
</g>
<g id="Share">
</g>
<g id="Lihat_Semua">
</g>
<g id="User">
</g>
<g id="Contact">
</g>
<g id="Location">
</g>
<g id="Play_Podcast">
</g>
<g id="Previous_Blue">
</g>
<g id="Next">
</g>
<g id="Navigasi_Previous">
</g>
<g id="Navigasi_Next">
</g>
<g id="Play_Video">
</g>
<g id="Facebook_1_">
</g>
<g id="Twitter">
</g>
<g id="Instagram_1_">
</g>
<g id="Youtube">
</g>
</svg>
