<?xml version="1.0" encoding="utf-8"?>
<!-- Generator: Adobe Illustrator 23.1.1, SVG Export Plug-In . SVG Version: 6.00 Build 0)  -->
<svg version="1.1" xmlns="http://www.w3.org/2000/svg" xmlns:xlink="http://www.w3.org/1999/xlink" x="0px" y="0px"
	 viewBox="0 0 48 48" enable-background="new 0 0 48 48" xml:space="preserve">
<g id="Icon_Grid" display="none">
</g>
<g id="BG" display="none">
	<rect display="inline" fill="#FFFFFF" width="48" height="47.998"/>
</g>
<g id="Mengenal_Surabaya">
</g>
<g id="Layanan_Publik">
</g>
<g id="Informasi_Publik">
</g>
<g id="Home">
</g>
<g id="Tentang_Surabaya">
</g>
<g id="Pemerintahan">
</g>
<g id="Ada_Apa_di_Surabaya_x3F_">
</g>
<g id="Pengaduan_Masyarakat">
</g>
<g id="Perizinan">
</g>
<g id="Kesehatan">
</g>
<g id="Pendidikan">
</g>
<g id="Sosial_Masyarakat">
</g>
<g id="Kependudukan">
</g>
<g id="Pemberdayaan_Ekonomi">
</g>
<g id="Whistle_Blower_System">
</g>
<g id="JDIH">
</g>
<g id="PPID">
	<g>
		<g>
			<g>
				<rect x="3" y="3" fill="#FDD300" width="9.479" height="9.479"/>
				<path fill="#FDD300" d="M14.479,2v11.479c0,0.552-0.447,1-1,1H2c0,0.552,0.447,1,1,1h11.479c0.553,0,1-0.448,1-1V3
					C15.479,2.448,15.031,2,14.479,2z"/>
			</g>
			<g>
				<path fill="#FDD300" d="M20.217,15.479h12.436c0.256,0,0.501,0.052,0.723,0.146c-0.283-0.672-0.948-1.146-1.723-1.146H19.217
					C19.217,15.031,19.664,15.479,20.217,15.479z"/>
				<path fill="#FDD300" d="M42.976,6.024C45.467,8.753,47,12.37,47,16.348c0,8.463-6.885,15.348-15.348,15.348H14.479V46
					c0,0.553-0.447,1-1,1H2c0,0.553,0.447,1,1,1h11.479c0.553,0,1-0.447,1-1V32.695h17.174C41.115,32.695,48,25.81,48,17.348
					C48,12.862,46.054,8.833,42.976,6.024z"/>
				<path fill="#FDD300" d="M12.479,30.695c0-0.553,0.447-1,1-1h18.174c7.36,0,13.348-5.988,13.348-13.348
					C45,8.988,39.013,3,31.652,3H20.217v9.479h11.435c2.134,0,3.869,1.736,3.869,3.869c0,2.134-1.735,3.87-3.869,3.87H3V45h9.479
					V30.695z"/>
			</g>
		</g>
		<g>
			<g>
				<path fill="#004AE1" d="M12.479,13.479H1c-0.553,0-1-0.448-1-1V1c0-0.552,0.447-1,1-1h11.479c0.553,0,1,0.448,1,1v11.479
					C13.479,13.031,13.031,13.479,12.479,13.479z M2,11.479h9.479V2H2V11.479z"/>
			</g>
			<g>
				<path fill="#004AE1" d="M12.479,46H1c-0.553,0-1-0.447-1-1V18.218c0-0.552,0.447-1,1-1h29.652c1.03,0,1.869-0.839,1.869-1.87
					c0-1.031-0.839-1.869-1.869-1.869H18.217c-0.553,0-1-0.448-1-1V1c0-0.552,0.447-1,1-1h12.435C39.115,0,46,6.885,46,15.348
					c0,8.463-6.885,15.348-15.348,15.348H13.479V45C13.479,45.553,13.031,46,12.479,46z M2,44h9.479V29.695c0-0.553,0.447-1,1-1
					h18.174c7.36,0,13.348-5.988,13.348-13.348C44,7.988,38.013,2,30.652,2H19.217v9.479h11.435c2.134,0,3.869,1.736,3.869,3.869
					c0,2.134-1.735,3.87-3.869,3.87H2V44z"/>
			</g>
		</g>
	</g>
</g>
<g id="Open_Data">
</g>
<g id="Satu_Peta">
</g>
<g id="Foto">
</g>
<g id="Video">
</g>
<g id="Infografis">
</g>
<g id="Podcast">
</g>
<g id="Berita_Terbaru">
</g>
<g id="Siaran_Pers">
</g>
<g id="Visi__x26__Misi">
</g>
<g id="Struktur_Organisasi_Pemerintahan_Surabaya">
</g>
<g id="Perangkat_Daerah">
</g>
<g id="Profil_Walikota_Surabaya">
</g>
<g id="Alamat_Pemerintah_Kota_Surabaya">
</g>
<g id="Transportasi">
</g>
<g id="Bisnis__x26__Investasi">
</g>
<g id="Akomodasi">
</g>
<g id="Wisata">
</g>
<g id="Media_Center">
</g>
<g id="SSW_Alfa">
</g>
<g id="EHealth">
</g>
<g id="Lawan_Covid">
</g>
<g id="Wadul_Sertifikat_Vaksin">
</g>
<g id="Profil_Sekolah">
</g>
<g id="Rapor_Online">
</g>
<g id="Sistem_Informasi_Aplikasi_Guru">
</g>
<g id="EPemuktakhiran_Data">
</g>
<g id="Klampid">
</g>
<g id="EPeken_Surabaya">
</g>
<g id="Username">
</g>
<g id="Password_1_">
</g>
<g id="Pencarian">
</g>
<g id="Share">
</g>
<g id="Lihat_Semua">
</g>
<g id="User">
</g>
<g id="Contact">
</g>
<g id="Location">
</g>
<g id="Play_Podcast">
</g>
<g id="Previous_Blue">
</g>
<g id="Next">
</g>
<g id="Navigasi_Previous">
</g>
<g id="Navigasi_Next">
</g>
<g id="Play_Video">
</g>
<g id="Facebook_1_">
</g>
<g id="Twitter">
</g>
<g id="Instagram_1_">
</g>
<g id="Youtube">
</g>
</svg>
