<?xml version="1.0" encoding="utf-8"?>
<!-- Generator: Adobe Illustrator 23.1.1, SVG Export Plug-In . SVG Version: 6.00 Build 0)  -->
<svg version="1.1" xmlns="http://www.w3.org/2000/svg" xmlns:xlink="http://www.w3.org/1999/xlink" x="0px" y="0px"
	 viewBox="0 0 48 48" enable-background="new 0 0 48 48" xml:space="preserve">
<g id="Icon_Grid" display="none">
</g>
<g id="BG" display="none">
	<rect display="inline" fill="#FFFFFF" width="48" height="47.999"/>
</g>
<g id="Mengenal_Surabaya">
</g>
<g id="Layanan_Publik">
</g>
<g id="Informasi_Publik">
</g>
<g id="Home">
</g>
<g id="Tentang_Surabaya">
</g>
<g id="Pemerintahan">
</g>
<g id="Ada_Apa_di_Surabaya_x3F_">
</g>
<g id="Pengaduan_Masyarakat">
</g>
<g id="Perizinan">
</g>
<g id="Kesehatan">
</g>
<g id="Pendidikan">
</g>
<g id="Sosial_Masyarakat">
</g>
<g id="Kependudukan">
</g>
<g id="Pemberdayaan_Ekonomi">
</g>
<g id="Whistle_Blower_System">
</g>
<g id="JDIH">
</g>
<g id="PPID">
</g>
<g id="Open_Data">
	<g>
		<g>
			<path fill="#FDD300" d="M47,9.652V46c0,0.553-0.447,1-1,1H24H2c0,0.553,0.447,1,1,1h22h22c0.553,0,1-0.447,1-1V10.652
				C48,10.1,47.553,9.652,47,9.652z"/>
			<path fill="#FDD300" d="M23,10.652H3V45h20V10.652z M19.217,34.564H6.783c-0.553,0-1-0.447-1-1c0-0.553,0.447-1,1-1h12.434
				c0.553,0,1,0.447,1,1C20.217,34.117,19.769,34.564,19.217,34.564z M19.217,28.826H6.783c-0.553,0-1-0.448-1-1
				c0-0.552,0.447-1,1-1h12.434c0.553,0,1,0.448,1,1C20.217,28.378,19.769,28.826,19.217,28.826z M19.217,23.087H6.783
				c-0.553,0-1-0.448-1-1c0-0.552,0.447-1,1-1h12.434c0.553,0,1,0.448,1,1C20.217,22.639,19.769,23.087,19.217,23.087z"/>
			<path fill="#FDD300" d="M25.591,39.837c0.074-0.074,0.154-0.141,0.232-0.212c0.14-0.128,0.28-0.255,0.429-0.374
				c0.093-0.074,0.189-0.143,0.286-0.214c0.142-0.105,0.285-0.207,0.435-0.304c0.104-0.067,0.211-0.13,0.318-0.193
				c0.149-0.088,0.301-0.172,0.456-0.25c0.112-0.058,0.226-0.112,0.342-0.165c0.158-0.072,0.32-0.138,0.484-0.201
				c0.117-0.045,0.234-0.09,0.354-0.13c0.173-0.058,0.35-0.105,0.527-0.152c0.115-0.03,0.23-0.065,0.349-0.09
				c0.199-0.044,0.403-0.075,0.607-0.104c0.101-0.015,0.2-0.035,0.302-0.046c0.31-0.034,0.622-0.054,0.939-0.054h8.565V9.652V3
				h-8.565C27.984,3,25,5.984,25,9.652v30.821c0.033-0.04,0.072-0.075,0.106-0.114C25.262,40.179,25.421,40.003,25.591,39.837z
				 M36.435,26.913h-4.783c-0.858,0-1.695,0.161-2.486,0.479c-0.122,0.049-0.249,0.073-0.373,0.073
				c-0.397,0-0.772-0.237-0.928-0.628c-0.206-0.512,0.043-1.095,0.555-1.3c1.03-0.414,2.117-0.624,3.232-0.624h4.783
				c0.553,0,1,0.448,1,1C37.435,26.465,36.988,26.913,36.435,26.913z M36.435,21.174h-4.783c-0.858,0-1.695,0.161-2.486,0.479
				c-0.122,0.049-0.249,0.073-0.373,0.073c-0.397,0-0.772-0.237-0.928-0.628c-0.206-0.512,0.043-1.095,0.555-1.3
				c1.03-0.414,2.117-0.624,3.232-0.624h4.783c0.553,0,1,0.448,1,1C37.435,20.726,36.988,21.174,36.435,21.174z M28.419,14.059
				c1.029-0.415,2.117-0.625,3.233-0.625h4.783c0.553,0,1,0.448,1,1s-0.447,1-1,1h-4.783c-0.859,0-1.695,0.162-2.485,0.48
				c-0.123,0.049-0.249,0.073-0.374,0.073c-0.396,0-0.771-0.237-0.928-0.627C27.659,14.848,27.907,14.266,28.419,14.059z"/>
			<path fill="#FDD300" d="M43.217,8.652V3c0-0.552-0.447-1-1-1v6.652H43.217z"/>
			<path fill="#FDD300" d="M45,10.652h-2.783v27.695l-1,1h-9.565c-0.22,0-0.435,0.012-0.649,0.033
				c-0.071,0.007-0.141,0.019-0.211,0.029c-0.142,0.018-0.283,0.037-0.422,0.064c-0.082,0.016-0.161,0.037-0.242,0.057
				c-0.124,0.029-0.249,0.059-0.37,0.095c-0.083,0.025-0.165,0.054-0.247,0.082c-0.115,0.039-0.229,0.08-0.342,0.126
				c-0.082,0.032-0.162,0.068-0.242,0.104c-0.109,0.049-0.217,0.101-0.322,0.155c-0.078,0.04-0.155,0.082-0.231,0.125
				c-0.103,0.06-0.204,0.121-0.304,0.186c-0.073,0.047-0.145,0.094-0.217,0.144c-0.099,0.069-0.194,0.142-0.289,0.216
				c-0.066,0.052-0.133,0.103-0.197,0.157c-0.096,0.081-0.189,0.167-0.279,0.254c-0.057,0.054-0.115,0.104-0.17,0.16
				c-0.1,0.102-0.193,0.209-0.287,0.316c-0.04,0.046-0.083,0.09-0.122,0.138c-0.129,0.157-0.252,0.32-0.367,0.49
				c-0.016,0.022-0.028,0.048-0.044,0.071c-0.097,0.147-0.19,0.298-0.275,0.452c-0.034,0.062-0.062,0.127-0.095,0.19
				c-0.062,0.12-0.122,0.24-0.176,0.363c-0.033,0.076-0.062,0.154-0.092,0.231c-0.045,0.116-0.089,0.231-0.128,0.351
				c-0.027,0.083-0.051,0.169-0.075,0.254c-0.032,0.116-0.064,0.233-0.09,0.351c-0.021,0.09-0.038,0.181-0.055,0.272
				c-0.011,0.061-0.019,0.122-0.027,0.184H45V10.652z"/>
		</g>
		<g>
			<path fill="#004AE1" d="M45,7.652h-3.783V1c0-0.552-0.447-1-1-1h-9.565c-4.432,0-8.092,3.352-8.59,7.652H1c-0.553,0-1,0.448-1,1
				V45c0,0.553,0.447,1,1,1h22h22c0.553,0,1-0.447,1-1V8.652C46,8.1,45.553,7.652,45,7.652z M30.652,2h8.565v6.652v27.695h-8.565
				c-0.317,0-0.63,0.02-0.939,0.054c-0.102,0.011-0.201,0.031-0.302,0.046c-0.204,0.029-0.408,0.061-0.607,0.104
				c-0.118,0.025-0.233,0.06-0.349,0.09c-0.178,0.047-0.354,0.095-0.527,0.152c-0.12,0.04-0.237,0.085-0.354,0.13
				c-0.164,0.063-0.326,0.129-0.484,0.201c-0.115,0.053-0.229,0.107-0.342,0.165c-0.155,0.078-0.307,0.162-0.456,0.25
				c-0.107,0.063-0.214,0.126-0.318,0.193c-0.149,0.097-0.293,0.199-0.435,0.304c-0.097,0.071-0.193,0.14-0.286,0.214
				c-0.149,0.119-0.289,0.246-0.429,0.374c-0.078,0.071-0.158,0.138-0.232,0.212c-0.17,0.166-0.329,0.342-0.484,0.523
				c-0.034,0.039-0.073,0.074-0.106,0.114V8.652C24,4.984,26.984,2,30.652,2z M2,9.652h20V44H2V9.652z M44,44H24.084
				c0.009-0.062,0.017-0.123,0.027-0.184c0.017-0.092,0.034-0.183,0.055-0.272c0.026-0.118,0.058-0.235,0.09-0.351
				c0.024-0.085,0.048-0.171,0.075-0.254c0.039-0.119,0.083-0.234,0.128-0.351c0.03-0.077,0.059-0.155,0.092-0.231
				c0.054-0.123,0.114-0.243,0.176-0.363c0.032-0.063,0.06-0.128,0.095-0.19c0.086-0.154,0.179-0.305,0.275-0.452
				c0.016-0.024,0.028-0.049,0.044-0.071c0.115-0.17,0.238-0.333,0.367-0.49c0.039-0.048,0.082-0.092,0.122-0.138
				c0.094-0.108,0.188-0.215,0.287-0.316c0.055-0.056,0.113-0.106,0.17-0.16c0.091-0.087,0.184-0.173,0.279-0.254
				c0.064-0.055,0.131-0.105,0.197-0.157c0.095-0.074,0.19-0.146,0.289-0.216c0.071-0.05,0.144-0.097,0.217-0.144
				c0.1-0.064,0.201-0.126,0.304-0.186c0.076-0.043,0.153-0.085,0.231-0.125c0.106-0.055,0.213-0.106,0.322-0.155
				c0.08-0.036,0.16-0.072,0.242-0.104c0.112-0.046,0.227-0.087,0.342-0.126c0.082-0.028,0.164-0.057,0.247-0.082
				c0.121-0.036,0.246-0.065,0.37-0.095c0.081-0.02,0.16-0.041,0.242-0.057c0.139-0.027,0.28-0.047,0.422-0.064
				c0.07-0.01,0.14-0.022,0.211-0.029c0.214-0.021,0.43-0.033,0.649-0.033h9.565c0.553,0,1-0.447,1-1V9.652H44V44z"/>
			<path fill="#004AE1" d="M35.435,18.174h-4.783c-1.115,0-2.202,0.21-3.232,0.624c-0.512,0.205-0.761,0.788-0.555,1.3
				c0.156,0.391,0.531,0.628,0.928,0.628c0.124,0,0.251-0.023,0.373-0.073c0.791-0.318,1.628-0.479,2.486-0.479h4.783
				c0.553,0,1-0.448,1-1C36.435,18.622,35.988,18.174,35.435,18.174z"/>
			<path fill="#004AE1" d="M27.793,14.987c0.125,0,0.251-0.023,0.374-0.073c0.79-0.318,1.626-0.48,2.485-0.48h4.783
				c0.553,0,1-0.448,1-1s-0.447-1-1-1h-4.783c-1.116,0-2.204,0.21-3.233,0.625c-0.512,0.207-0.76,0.789-0.554,1.301
				C27.022,14.75,27.397,14.987,27.793,14.987z"/>
			<path fill="#004AE1" d="M35.435,23.913h-4.783c-1.115,0-2.202,0.21-3.232,0.624c-0.512,0.206-0.761,0.788-0.555,1.3
				c0.156,0.391,0.531,0.628,0.928,0.628c0.124,0,0.251-0.023,0.373-0.073c0.791-0.318,1.628-0.479,2.486-0.479h4.783
				c0.553,0,1-0.448,1-1C36.435,24.361,35.988,23.913,35.435,23.913z"/>
			<path fill="#004AE1" d="M18.217,25.826H5.783c-0.553,0-1,0.448-1,1c0,0.552,0.447,1,1,1h12.434c0.553,0,1-0.448,1-1
				C19.217,26.274,18.769,25.826,18.217,25.826z"/>
			<path fill="#004AE1" d="M18.217,20.087H5.783c-0.553,0-1,0.448-1,1c0,0.552,0.447,1,1,1h12.434c0.553,0,1-0.448,1-1
				C19.217,20.535,18.769,20.087,18.217,20.087z"/>
			<path fill="#004AE1" d="M18.217,31.565H5.783c-0.553,0-1,0.447-1,1c0,0.553,0.447,1,1,1h12.434c0.553,0,1-0.447,1-1
				C19.217,32.012,18.769,31.565,18.217,31.565z"/>
		</g>
	</g>
</g>
<g id="Satu_Peta">
</g>
<g id="Foto">
</g>
<g id="Video">
</g>
<g id="Infografis">
</g>
<g id="Podcast">
</g>
<g id="Berita_Terbaru">
</g>
<g id="Siaran_Pers">
</g>
<g id="Visi__x26__Misi">
</g>
<g id="Struktur_Organisasi_Pemerintahan_Surabaya">
</g>
<g id="Perangkat_Daerah">
</g>
<g id="Profil_Walikota_Surabaya">
</g>
<g id="Alamat_Pemerintah_Kota_Surabaya">
</g>
<g id="Transportasi">
</g>
<g id="Bisnis__x26__Investasi">
</g>
<g id="Akomodasi">
</g>
<g id="Wisata">
</g>
<g id="Media_Center">
</g>
<g id="SSW_Alfa">
</g>
<g id="EHealth">
</g>
<g id="Lawan_Covid">
</g>
<g id="Wadul_Sertifikat_Vaksin">
</g>
<g id="Profil_Sekolah">
</g>
<g id="Rapor_Online">
</g>
<g id="Sistem_Informasi_Aplikasi_Guru">
</g>
<g id="EPemuktakhiran_Data">
</g>
<g id="Klampid">
</g>
<g id="EPeken_Surabaya">
</g>
<g id="Username">
</g>
<g id="Password_1_">
</g>
<g id="Pencarian">
</g>
<g id="Share">
</g>
<g id="Lihat_Semua">
</g>
<g id="User">
</g>
<g id="Contact">
</g>
<g id="Location">
</g>
<g id="Play_Podcast">
</g>
<g id="Previous_Blue">
</g>
<g id="Next">
</g>
<g id="Navigasi_Previous">
</g>
<g id="Navigasi_Next">
</g>
<g id="Play_Video">
</g>
<g id="Facebook_1_">
</g>
<g id="Twitter">
</g>
<g id="Instagram_1_">
</g>
<g id="Youtube">
</g>
</svg>
