<?xml version="1.0" encoding="utf-8"?>
<!-- Generator: Adobe Illustrator 23.1.1, SVG Export Plug-In . SVG Version: 6.00 Build 0)  -->
<svg version="1.1" xmlns="http://www.w3.org/2000/svg" xmlns:xlink="http://www.w3.org/1999/xlink" x="0px" y="0px"
	 viewBox="0 0 48 48" enable-background="new 0 0 48 48" xml:space="preserve">
<g id="Icon_Grid" display="none">
</g>
<g id="BG" display="none">
	<rect display="inline" fill="#FFFFFF" width="48" height="48"/>
</g>
<g id="Mengenal_Surabaya">
</g>
<g id="Layanan_Publik">
</g>
<g id="Informasi_Publik">
</g>
<g id="Home">
</g>
<g id="Tentang_Surabaya">
</g>
<g id="Pemerintahan">
</g>
<g id="Ada_Apa_di_Surabaya_x3F_">
</g>
<g id="Pengaduan_Masyarakat">
</g>
<g id="Perizinan">
</g>
<g id="Kesehatan">
</g>
<g id="Pendidikan">
</g>
<g id="Sosial_Masyarakat">
</g>
<g id="Kependudukan">
</g>
<g id="Pemberdayaan_Ekonomi">
</g>
<g id="Whistle_Blower_System">
</g>
<g id="JDIH">
</g>
<g id="PPID">
</g>
<g id="Open_Data">
</g>
<g id="Satu_Peta">
</g>
<g id="Foto">
</g>
<g id="Video">
</g>
<g id="Infografis">
</g>
<g id="Podcast">
</g>
<g id="Berita_Terbaru">
</g>
<g id="Siaran_Pers">
</g>
<g id="Visi__x26__Misi">
</g>
<g id="Struktur_Organisasi_Pemerintahan_Surabaya">
</g>
<g id="Perangkat_Daerah">
</g>
<g id="Profil_Walikota_Surabaya">
</g>
<g id="Alamat_Pemerintah_Kota_Surabaya">
	<g>
		<path fill="#FDD300" d="M48.051,15.433L45.117,4.672c-0.119-0.436-0.514-0.737-0.965-0.737h-0.818l3.083,10.731l-8.583-0.25
			l-0.553,2.279h-4.912c-0.553,0-1-0.447-1-1c0-0.553,0.447-1,1-1h4.917c0.013-0.542,0.45-0.977,0.995-0.977h7.229l-2.122-7.783
			h-7.213l0.152,0.761c0.059,0.294-0.018,0.599-0.207,0.83c-0.19,0.231-0.474,0.366-0.773,0.366h-5.914c-0.553,0-1-0.447-1-1
			s0.447-1,1-1h4.694L33.55,3H15.536l-0.578,2.892h9.587c0.553,0,1,0.447,1,1s-0.447,1-1,1H13.738c-0.3,0-0.583-0.135-0.774-0.366
			c-0.189-0.232-0.266-0.536-0.207-0.83l0.152-0.761H5.697l-2.122,7.783h7.229c0.545,0,0.982,0.436,0.995,0.977h4.917
			c0.553,0,1,0.447,1,1c0,0.553-0.447,1-1,1h-4.912v17.565h-1.554V14.249H2.167v1.917l-1.132-0.733
			c-0.082,0.301-0.019,0.622,0.17,0.87c0.184,0.241,0.471,0.381,0.773,0.388V47c0,0.553,0.447,1,1,1h7.826
			c0.545,0,0.983-0.437,0.996-0.979h25.484C37.298,47.563,37.736,48,38.281,48h7.826c0.553,0,1-0.447,1-1V16.69
			c0.303-0.007,0.589-0.146,0.773-0.388C48.069,16.055,48.133,15.733,48.051,15.433z M29.412,22.544c0-0.553,0.447-1,1-1
			s1,0.447,1,1v6.848c0,0.553-0.447,1-1,1s-1-0.447-1-1V22.544z M20.568,11.461c-0.174-0.298-0.183-0.665-0.022-0.97
			c0.16-0.306,0.467-0.507,0.81-0.533c0.962-0.072,1.859-0.398,2.597-0.939c0.352-0.258,0.832-0.258,1.186,0.002
			c0.732,0.54,1.629,0.863,2.591,0.937c0.344,0.026,0.65,0.227,0.811,0.533c0.16,0.305,0.151,0.672-0.022,0.97
			c-0.401,0.685-0.613,1.472-0.613,2.277c0,0.806,0.212,1.594,0.613,2.28c0.174,0.298,0.183,0.664,0.022,0.97
			c-0.16,0.305-0.467,0.507-0.811,0.532c-0.964,0.073-1.859,0.396-2.591,0.937c-0.177,0.13-0.385,0.195-0.594,0.195
			c-0.208,0-0.416-0.064-0.592-0.194c-0.736-0.54-1.634-0.864-2.597-0.938c-0.344-0.025-0.65-0.228-0.81-0.532
			c-0.16-0.306-0.151-0.672,0.022-0.97c0.401-0.687,0.613-1.475,0.613-2.28C21.182,12.933,20.97,12.146,20.568,11.461z
			 M25.545,22.544v6.848c0,0.553-0.447,1-1,1c-0.553,0-1-0.447-1-1v-6.848c0-0.553,0.447-1,1-1
			C25.098,21.544,25.545,21.991,25.545,22.544z M17.674,22.544c0-0.553,0.447-1,1-1c0.553,0,1,0.447,1,1v6.848c0,0.553-0.447,1-1,1
			c-0.553,0-1-0.447-1-1V22.544z M9.805,34.261H8.848c-0.553,0-1,0.447-1,1v2.935c0,0.553,0.447,1,1,1h0.957V46H3.978V15.718h5.826
			V34.261z M23.545,45.021h-11.74v-5.826h11.74V45.021z M37.281,45.021H25.545v-5.826h11.736V45.021z M39.238,36.195H9.848v-0.935
			h29.391V36.195z M45.107,46h-5.826v-6.805h0.957c0.553,0,1-0.447,1-1v-2.935c0-0.553-0.447-1-1-1h-0.957V15.718h5.826V46z"/>
		<g>
			<path fill="#004AE1" d="M47.051,14.433L44.117,3.672c-0.119-0.436-0.514-0.737-0.965-0.737h-8.377L34.35,0.804
				C34.256,0.337,33.846,0,33.369,0H13.717c-0.477,0-0.887,0.337-0.98,0.804L12.31,2.935H3.934c-0.451,0-0.846,0.302-0.965,0.737
				L0.035,14.433c-0.082,0.301-0.019,0.622,0.17,0.87c0.184,0.241,0.471,0.381,0.773,0.388V46c0,0.553,0.447,1,1,1h7.826
				c0.545,0,0.983-0.437,0.996-0.979h25.484C36.298,46.563,36.736,47,37.281,47h7.826c0.553,0,1-0.447,1-1V15.69
				c0.303-0.007,0.589-0.147,0.773-0.388C47.069,15.055,47.133,14.733,47.051,14.433z M4.697,4.935h7.213l-0.152,0.761
				c-0.059,0.294,0.018,0.599,0.207,0.83c0.191,0.231,0.474,0.366,0.774,0.366h10.807c0.553,0,1-0.447,1-1s-0.447-1-1-1h-9.587
				L14.536,2H32.55l0.578,2.892h-4.694c-0.553,0-1,0.447-1,1s0.447,1,1,1h5.914c0.3,0,0.583-0.135,0.773-0.366
				c0.189-0.232,0.266-0.536,0.207-0.83l-0.152-0.761h7.213l2.122,7.783h-7.229c-0.545,0-0.982,0.436-0.995,0.977h-4.917
				c-0.553,0-1,0.447-1,1s0.447,1,1,1h4.912v17.565H10.805V15.695h4.912c0.553,0,1-0.447,1-1s-0.447-1-1-1H10.8
				c-0.013-0.542-0.45-0.977-0.995-0.977H2.575L4.697,4.935z M36.281,44.021H24.545v-5.826h11.736V44.021z M38.238,35.261v0.935
				H8.848v-0.935H38.238z M10.805,38.195h11.74v5.826h-11.74V38.195z M2.978,14.718h5.826v18.543H7.848c-0.553,0-1,0.447-1,1v2.935
				c0,0.553,0.447,1,1,1h0.957V45H2.978V14.718z M44.107,45h-5.826v-6.805h0.957c0.553,0,1-0.447,1-1v-2.935c0-0.553-0.447-1-1-1
				h-0.957V14.718h5.826V45z"/>
			<path fill="#004AE1" d="M41.195,31.348c0.553,0,1-0.447,1-1V18.608c0-0.553-0.447-1-1-1c-0.553,0-1,0.447-1,1v11.739
				C40.195,30.9,40.643,31.348,41.195,31.348z"/>
			<path fill="#004AE1" d="M41.195,40.108c-0.553,0-1,0.447-1,1v1.957c0,0.553,0.447,1,1,1c0.553,0,1-0.447,1-1v-1.957
				C42.195,40.556,41.748,40.108,41.195,40.108z"/>
			<path fill="#004AE1" d="M29.412,29.392c0.553,0,1-0.447,1-1v-6.848c0-0.553-0.447-1-1-1s-1,0.447-1,1v6.848
				C28.412,28.944,28.859,29.392,29.412,29.392z"/>
			<path fill="#004AE1" d="M5.891,31.348c0.553,0,1-0.447,1-1V18.608c0-0.553-0.447-1-1-1c-0.553,0-1,0.447-1,1v11.739
				C4.891,30.9,5.338,31.348,5.891,31.348z"/>
			<path fill="#004AE1" d="M5.891,40.108c-0.553,0-1,0.447-1,1v1.957c0,0.553,0.447,1,1,1c0.553,0,1-0.447,1-1v-1.957
				C6.891,40.556,6.443,40.108,5.891,40.108z"/>
			<path fill="#004AE1" d="M23.545,20.544c-0.553,0-1,0.447-1,1v6.848c0,0.553,0.447,1,1,1c0.553,0,1-0.447,1-1v-6.848
				C24.545,20.991,24.098,20.544,23.545,20.544z"/>
			<path fill="#004AE1" d="M16.674,28.392c0,0.553,0.447,1,1,1c0.553,0,1-0.447,1-1v-6.848c0-0.553-0.447-1-1-1
				c-0.553,0-1,0.447-1,1V28.392z"/>
			<path fill="#004AE1" d="M19.546,15.988c0.16,0.305,0.467,0.507,0.81,0.532c0.963,0.073,1.86,0.397,2.597,0.938
				c0.176,0.13,0.384,0.194,0.592,0.194c0.209,0,0.417-0.065,0.594-0.195c0.731-0.54,1.627-0.863,2.591-0.937
				c0.344-0.025,0.65-0.228,0.811-0.532c0.16-0.306,0.151-0.672-0.022-0.97c-0.401-0.687-0.613-1.475-0.613-2.28
				c0-0.806,0.212-1.593,0.613-2.277c0.174-0.298,0.183-0.665,0.022-0.97c-0.16-0.306-0.467-0.507-0.811-0.533
				c-0.962-0.073-1.858-0.397-2.591-0.937c-0.354-0.26-0.834-0.26-1.186-0.002c-0.737,0.541-1.635,0.866-2.597,0.939
				c-0.344,0.026-0.65,0.227-0.81,0.533c-0.16,0.305-0.151,0.672,0.022,0.97c0.401,0.685,0.613,1.472,0.613,2.277
				c0,0.806-0.212,1.594-0.613,2.28C19.394,15.316,19.386,15.683,19.546,15.988z M21.864,10.721c0.593-0.161,1.157-0.396,1.68-0.7
				c0.521,0.305,1.085,0.54,1.678,0.7c-0.209,0.648-0.317,1.328-0.317,2.018c0,0.689,0.108,1.371,0.318,2.019
				c-0.594,0.16-1.157,0.396-1.679,0.699c-0.522-0.304-1.087-0.539-1.681-0.699c0.21-0.648,0.318-1.33,0.318-2.019
				C22.182,12.049,22.073,11.367,21.864,10.721z"/>
		</g>
	</g>
</g>
<g id="Transportasi">
</g>
<g id="Bisnis__x26__Investasi">
</g>
<g id="Akomodasi">
</g>
<g id="Wisata">
</g>
<g id="Media_Center">
</g>
<g id="SSW_Alfa">
</g>
<g id="EHealth">
</g>
<g id="Lawan_Covid">
</g>
<g id="Wadul_Sertifikat_Vaksin">
</g>
<g id="Profil_Sekolah">
</g>
<g id="Rapor_Online">
</g>
<g id="Sistem_Informasi_Aplikasi_Guru">
</g>
<g id="EPemuktakhiran_Data">
</g>
<g id="Klampid">
</g>
<g id="EPeken_Surabaya">
</g>
<g id="Username">
</g>
<g id="Password_1_">
</g>
<g id="Pencarian">
</g>
<g id="Share">
</g>
<g id="Lihat_Semua">
</g>
<g id="User">
</g>
<g id="Contact">
</g>
<g id="Location">
</g>
<g id="Play_Podcast">
</g>
<g id="Previous_Blue">
</g>
<g id="Next">
</g>
<g id="Navigasi_Previous">
</g>
<g id="Navigasi_Next">
</g>
<g id="Play_Video">
</g>
<g id="Facebook_1_">
</g>
<g id="Twitter">
</g>
<g id="Instagram_1_">
</g>
<g id="Youtube">
</g>
</svg>
