<?xml version="1.0" encoding="utf-8"?>
<!-- Generator: Adobe Illustrator 23.1.1, SVG Export Plug-In . SVG Version: 6.00 Build 0)  -->
<svg version="1.1" xmlns="http://www.w3.org/2000/svg" xmlns:xlink="http://www.w3.org/1999/xlink" x="0px" y="0px"
	 viewBox="0 0 48 48" enable-background="new 0 0 48 48" xml:space="preserve">
<g id="Icon_Grid" display="none">
</g>
<g id="BG" display="none">
	<rect display="inline" fill="#FFFFFF" width="48" height="48"/>
</g>
<g id="Mengenal_Surabaya">
</g>
<g id="Layanan_Publik">
</g>
<g id="Informasi_Publik">
</g>
<g id="Home">
</g>
<g id="Tentang_Surabaya">
</g>
<g id="Pemerintahan">
</g>
<g id="Ada_Apa_di_Surabaya_x3F_">
</g>
<g id="Pengaduan_Masyarakat">
</g>
<g id="Perizinan">
</g>
<g id="Kesehatan">
</g>
<g id="Pendidikan">
</g>
<g id="Sosial_Masyarakat">
	<g>
		<g>
			<path fill="#FDD300" d="M31.695,43.131H7.759c-0.49,0-0.89-0.399-0.89-0.889v-2.894c0-0.552-0.447-1-1-1c-0.553,0-1,0.448-1,1
				v2.894c0,1.593,1.296,2.889,2.89,2.889h23.936c0.553,0,1-0.448,1-1C32.695,43.579,32.248,43.131,31.695,43.131z"/>
			<path fill="#FDD300" d="M43.131,18.305v13.391c0,0.552,0.447,1,1,1c0.553,0,1-0.448,1-1V18.305c0-0.552-0.447-1-1-1
				C43.578,17.305,43.131,17.752,43.131,18.305z"/>
			<path fill="#FDD300" d="M5.869,11.652c0.553,0,1-0.448,1-1V7.759c0-0.491,0.399-0.89,0.89-0.89h23.936c0.553,0,1-0.448,1-1
				c0-0.552-0.447-1-1-1H7.759c-1.594,0-2.89,1.296-2.89,2.89v2.893C4.869,11.205,5.316,11.652,5.869,11.652z"/>
			<path fill="#FDD300" d="M41.261,34.46l-0.171,0.002c-1.796,0.045-3.467,0.789-4.706,2.095l-4.232-2.992
				c1.548-2.493,2.458-5.422,2.458-8.566c0-3.144-0.909-6.072-2.457-8.565l4.251-3.006c1.232,1.295,2.959,2.111,4.856,2.111
				l0.17-0.002c1.801-0.045,3.476-0.792,4.716-2.103c1.238-1.31,1.896-3.026,1.851-4.832C47.905,4.962,44.885,2,41.261,2
				L41.09,2.002c-1.8,0.045-3.475,0.792-4.716,2.103c-1.239,1.31-1.897,3.027-1.851,4.833c0.025,1.024,0.289,1.991,0.727,2.857
				l-4.246,3.003c-2.991-3.716-7.569-6.103-12.699-6.103C9.314,8.695,2,16.01,2,25s7.314,16.305,16.305,16.305
				c4.429,0,8.445-1.78,11.387-4.656c0.012-0.013,0.026-0.021,0.038-0.035c0.452-0.445,0.875-0.917,1.273-1.411l4.231,2.99
				c-0.492,0.982-0.738,2.076-0.71,3.205c0.09,3.64,3.11,6.602,6.734,6.602l0.172-0.002c1.801-0.045,3.476-0.792,4.716-2.103
				c1.238-1.31,1.896-3.026,1.851-4.833C47.905,37.422,44.884,34.46,41.261,34.46z M42.667,11.333c1.575,0,1.582-6.536,2.446-5.321
				c0.534,0.75,0.858,1.66,0.883,2.639c0.032,1.275-0.431,2.485-1.304,3.408c-0.871,0.921-2.048,1.447-3.312,1.479l-0.12,0.001
				c-1.225,0-2.352-0.482-3.199-1.267C39.121,12.711,42.667,11.333,42.667,11.333z M9.417,17.417
				c-0.083-4.667,4.833-4.083,6.666-4.833c0.204-0.083,1.341-0.182,1.435-0.289c0.719,0.405,1.598,0.881,2.566,1.447
				c-0.576-0.116-1.17-0.178-1.779-0.178c-4.562,0-8.336,3.412-8.923,7.816C9.399,20.27,9.445,18.983,9.417,17.417z M25.314,22.574
				c0,3.866-3.145,7.011-7.01,7.011c-3.866,0-7.012-3.145-7.012-7.011c0-3.865,3.145-7.01,7.012-7.01
				C22.17,15.564,25.314,18.708,25.314,22.574z M18.305,39.305c-2.449,0-4.745-0.634-6.759-1.727
				c2.606,0.411,6.146,0.208,8.954-0.495c4.28-1.07,4.919-1.584,6.794-3.653c0.312,0.665,0.534,1.378,0.626,2.13
				C25.377,37.878,22.009,39.305,18.305,39.305z M29.575,33.777c-0.216-0.708-0.525-1.376-0.899-2.002
				c1.704-2.404,2.412-5.308,2.991-8.275c0.404-2.071-0.848-5.089-2.377-7.648c2.07,2.481,3.319,5.67,3.319,9.148
				C32.609,28.309,31.47,31.351,29.575,33.777z M44.692,44.52c-0.872,0.921-2.048,1.447-3.313,1.479L41.258,46
				c-1.029,0-1.99-0.341-2.773-0.917l3.266-0.666l3.083-3.083l0.31-2.821c0.517,0.743,0.83,1.637,0.854,2.599
				C46.028,42.387,45.565,43.597,44.692,44.52z"/>
		</g>
		<g>
			<path fill="#004AE1" d="M29.695,41.131H5.759c-0.49,0-0.89-0.399-0.89-0.889v-2.894c0-0.552-0.447-1-1-1c-0.553,0-1,0.448-1,1
				v2.894c0,1.593,1.296,2.889,2.89,2.889h23.936c0.553,0,1-0.448,1-1C30.695,41.579,30.248,41.131,29.695,41.131z"/>
			<path fill="#004AE1" d="M41.131,16.305v13.391c0,0.552,0.447,1,1,1c0.553,0,1-0.448,1-1V16.305c0-0.552-0.447-1-1-1
				C41.578,15.305,41.131,15.752,41.131,16.305z"/>
			<path fill="#004AE1" d="M3.869,9.652c0.553,0,1-0.448,1-1V5.759c0-0.491,0.399-0.89,0.89-0.89h23.936c0.553,0,1-0.448,1-1
				c0-0.552-0.447-1-1-1H5.759c-1.594,0-2.89,1.296-2.89,2.89v2.893C2.869,9.205,3.316,9.652,3.869,9.652z"/>
			<path fill="#004AE1" d="M39.261,32.46l-0.171,0.002c-1.796,0.045-3.467,0.789-4.706,2.095l-4.232-2.992
				c1.548-2.493,2.458-5.422,2.458-8.566c0-3.144-0.909-6.072-2.457-8.565l4.251-3.006c1.232,1.295,2.959,2.111,4.856,2.111
				l0.17-0.002c1.801-0.045,3.476-0.792,4.716-2.103c1.238-1.31,1.896-3.026,1.851-4.832C45.905,2.962,42.885,0,39.261,0
				L39.09,0.002c-1.8,0.045-3.475,0.792-4.716,2.103c-1.239,1.31-1.897,3.027-1.851,4.833c0.025,1.024,0.289,1.991,0.727,2.857
				l-4.246,3.003c-2.991-3.716-7.569-6.103-12.699-6.103C7.314,6.695,0,14.01,0,23s7.314,16.305,16.305,16.305
				c4.429,0,8.445-1.78,11.387-4.656c0.012-0.013,0.026-0.021,0.038-0.035c0.452-0.445,0.875-0.917,1.273-1.411l4.231,2.99
				c-0.492,0.982-0.738,2.076-0.71,3.205c0.09,3.64,3.11,6.602,6.734,6.602l0.172-0.002c1.801-0.045,3.476-0.792,4.716-2.103
				c1.238-1.31,1.896-3.026,1.851-4.833C45.905,35.422,42.884,32.46,39.261,32.46z M35.827,3.48
				c0.872-0.922,2.049-1.447,3.313-1.479L39.261,2c2.548,0,4.672,2.087,4.735,4.652c0.032,1.275-0.431,2.485-1.304,3.408
				c-0.871,0.921-2.048,1.447-3.312,1.479l-0.12,0.001c-2.549,0-4.674-2.086-4.736-4.651C34.49,5.614,34.954,4.403,35.827,3.48z
				 M16.305,8.695c7.888,0,14.305,6.417,14.305,14.305c0,3.309-1.14,6.351-3.034,8.777c-0.701-2.296-2.282-4.231-4.435-5.35
				c1.352-1.576,2.174-3.619,2.174-5.854c0-4.968-4.042-9.01-9.01-9.01c-4.969,0-9.012,4.042-9.012,9.01
				c0,2.229,0.818,4.268,2.165,5.843c-2.158,1.12-3.73,3.06-4.423,5.363C3.141,29.353,2,26.31,2,23
				C2,15.112,8.417,8.695,16.305,8.695z M9.293,20.574c0-3.865,3.145-7.01,7.012-7.01c3.865,0,7.01,3.145,7.01,7.01
				c0,3.866-3.145,7.011-7.01,7.011C12.438,27.584,9.293,24.44,9.293,20.574z M6.697,33.567c0.298-2.563,1.96-4.73,4.371-5.674
				c1.478,1.06,3.283,1.691,5.236,1.691c1.953,0,3.757-0.631,5.234-1.691c2.402,0.94,4.069,3.117,4.381,5.667
				c-2.543,2.318-5.911,3.745-9.615,3.745C12.604,37.305,9.239,35.881,6.697,33.567z M42.692,42.52
				c-0.872,0.921-2.048,1.447-3.313,1.479L39.258,44c-2.548,0-4.672-2.086-4.734-4.651c-0.033-1.274,0.431-2.485,1.304-3.408
				c0.872-0.922,2.049-1.447,3.313-1.479l0.12-0.001c2.548,0,4.672,2.087,4.735,4.652C44.028,40.387,43.565,41.597,42.692,42.52z"/>
		</g>
	</g>
</g>
<g id="Kependudukan">
</g>
<g id="Pemberdayaan_Ekonomi">
</g>
<g id="Whistle_Blower_System">
</g>
<g id="JDIH">
</g>
<g id="PPID">
</g>
<g id="Open_Data">
</g>
<g id="Satu_Peta">
</g>
<g id="Foto">
</g>
<g id="Video">
</g>
<g id="Infografis">
</g>
<g id="Podcast">
</g>
<g id="Berita_Terbaru">
</g>
<g id="Siaran_Pers">
</g>
<g id="Visi__x26__Misi">
</g>
<g id="Struktur_Organisasi_Pemerintahan_Surabaya">
</g>
<g id="Perangkat_Daerah">
</g>
<g id="Profil_Walikota_Surabaya">
</g>
<g id="Alamat_Pemerintah_Kota_Surabaya">
</g>
<g id="Transportasi">
</g>
<g id="Bisnis__x26__Investasi">
</g>
<g id="Akomodasi">
</g>
<g id="Wisata">
</g>
<g id="Media_Center">
</g>
<g id="SSW_Alfa">
</g>
<g id="EHealth">
</g>
<g id="Lawan_Covid">
</g>
<g id="Wadul_Sertifikat_Vaksin">
</g>
<g id="Profil_Sekolah">
</g>
<g id="Rapor_Online">
</g>
<g id="Sistem_Informasi_Aplikasi_Guru">
</g>
<g id="EPemuktakhiran_Data">
</g>
<g id="Klampid">
</g>
<g id="EPeken_Surabaya">
</g>
<g id="Username">
</g>
<g id="Password_1_">
</g>
<g id="Pencarian">
</g>
<g id="Share">
</g>
<g id="Lihat_Semua">
</g>
<g id="User">
</g>
<g id="Contact">
</g>
<g id="Location">
</g>
<g id="Play_Podcast">
</g>
<g id="Previous_Blue">
</g>
<g id="Next">
</g>
<g id="Navigasi_Previous">
</g>
<g id="Navigasi_Next">
</g>
<g id="Play_Video">
</g>
<g id="Facebook_1_">
</g>
<g id="Twitter">
</g>
<g id="Instagram_1_">
</g>
<g id="Youtube">
</g>
</svg>
