<?xml version="1.0" encoding="utf-8"?>
<!-- Generator: Adobe Illustrator 23.1.1, SVG Export Plug-In . SVG Version: 6.00 Build 0)  -->
<svg version="1.1" xmlns="http://www.w3.org/2000/svg" xmlns:xlink="http://www.w3.org/1999/xlink" x="0px" y="0px"
	 viewBox="0 0 48 48" enable-background="new 0 0 48 48" xml:space="preserve">
<g id="Icon_Grid" display="none">
</g>
<g id="BG" display="none">
	<rect display="inline" fill="#FFFFFF" width="48" height="48"/>
</g>
<g id="Mengenal_Surabaya">
</g>
<g id="Layanan_Publik">
</g>
<g id="Informasi_Publik">
</g>
<g id="Home">
</g>
<g id="Tentang_Surabaya">
	<g>
		<g>
			<path fill="#FDD300" d="M15,32.5c0-0.018,0.002-0.035,0.002-0.052l0-0.001c0.125-5.961,1.226-10.173,6.498-15.124v-7.135
				c0-0.025,0.003-0.047,0.004-0.072c0-0.018-0.004-0.034-0.004-0.053c0-0.015,0.008-0.028,0.009-0.043
				c0.016-0.93,0.167-1.783,0.436-2.569c-1.098,0.241-2.165,0.565-3.184,0.985c0.044,0.061,0.096,0.114,0.127,0.186
				c0.216,0.508-0.021,1.096-0.529,1.311C12.066,12.606,8,18.75,8,25.586c0,4.195,1.541,8.224,4.339,11.345
				c0.369,0.411,0.334,1.043-0.077,1.412c-0.142,0.127-0.312,0.19-0.487,0.223c0.959,1.086,2.044,2.057,3.225,2.901V32.5z"/>
			<path fill="#FDD300" d="M17,32.928v9.792c1.403,0.76,2.912,1.346,4.5,1.734V26.702c-0.316,0.673-0.657,1.335-1.044,1.971
				c-0.288,0.471-0.902,0.621-1.375,0.334c-0.472-0.287-0.622-0.902-0.334-1.375c1.362-2.237,2.252-4.767,2.595-7.315
				c-2.865,3.158-3.885,6.05-4.213,9.693c0.355-0.187,0.802-0.152,1.123,0.129c0.415,0.364,0.455,0.996,0.091,1.411
				C17.92,32.031,17.467,32.488,17,32.928z"/>
			<path fill="#FDD300" d="M32.86,8.297C39.641,11.381,44,18.105,44,25.586c0,4.699-1.729,9.209-4.868,12.7
				c-0.197,0.219-0.47,0.331-0.743,0.331c-0.238,0-0.478-0.084-0.669-0.256c-0.41-0.37-0.444-1.002-0.074-1.413
				C40.453,33.827,42,29.791,42,25.586c0-6.849-4.076-12.997-10.386-15.665c-0.509-0.215-0.746-0.802-0.531-1.311
				c0.175-0.413,0.595-0.632,1.019-0.591c-1.11-0.377-2.268-0.645-3.457-0.816c0.381,1.153,0.464,2.239,0.478,2.758
				c0,0.003,0.002,0.006,0.002,0.01c0,0.014,0.002,0.072,0.001,0.163c0,0.073-0.001,0.129-0.001,0.146v15.555
				c5.511,5.071,6.629,9.33,6.75,15.396v0.979C41.34,38.873,45,32.872,45,26C45,17.929,39.959,11.05,32.86,8.297z"/>
			<path fill="#FDD300" d="M31.793,37.757c-0.472,0.288-1.087,0.137-1.374-0.334c-0.487-0.802-0.918-1.639-1.294-2.5V44
				c0,0.325-0.165,0.601-0.406,0.783c1.815-0.261,3.545-0.771,5.156-1.507v-1.598c-0.467-0.439-0.921-0.896-1.343-1.377
				c-0.365-0.415-0.324-1.047,0.091-1.411c0.32-0.282,0.768-0.316,1.124-0.128c-0.327-3.639-1.346-6.532-4.214-9.694
				c0.343,2.549,1.233,5.078,2.595,7.315C32.415,36.854,32.265,37.47,31.793,37.757z"/>
			<path fill="#FDD300" d="M27.125,44V15.081c-0.02,0.001-0.038,0.007-0.058,0.007c-0.184,0-0.369-0.05-0.536-0.156
				c-0.466-0.297-0.604-0.914-0.307-1.381c0.815-1.279,0.894-2.971,0.9-3.412c-0.005-0.403-0.074-1.888-0.723-3.122
				C26.268,7.014,26.136,7,26,7c-0.573,0-1.138,0.035-1.697,0.085c-0.527,0.839-0.788,1.833-0.799,3.026
				c0.008,1.401,0.359,2.533,1.078,3.455c0.34,0.436,0.262,1.064-0.174,1.403c-0.183,0.143-0.399,0.212-0.614,0.212
				c-0.101,0-0.196-0.036-0.293-0.066v29.715C24.318,44.938,25.151,45,26,45c0.582,0,1.154-0.036,1.723-0.087
				C27.372,44.758,27.125,44.409,27.125,44z"/>
		</g>
		<g>
			<path fill="#004AE1" d="M17.358,8.347c0.508-0.216,0.745-0.803,0.529-1.311c-0.215-0.509-0.803-0.745-1.311-0.529
				C9.544,9.494,5,16.36,5,24c0,4.688,1.723,9.192,4.85,12.68c0.198,0.22,0.471,0.333,0.745,0.333c0.238,0,0.476-0.084,0.667-0.255
				c0.411-0.369,0.446-1.001,0.077-1.412C8.541,32.224,7,28.195,7,24C7,17.164,11.066,11.02,17.358,8.347z"/>
			<path fill="#004AE1" d="M31.394,6.493c-0.507-0.215-1.096,0.023-1.311,0.531c-0.215,0.509,0.022,1.096,0.531,1.311
				C36.924,11.002,41,17.151,41,24c0,4.205-1.547,8.24-4.354,11.362c-0.37,0.411-0.336,1.043,0.074,1.413
				c0.191,0.172,0.431,0.256,0.669,0.256c0.273,0,0.546-0.112,0.743-0.331C41.271,33.209,43,28.699,43,24
				C43,16.346,38.444,9.474,31.394,6.493z"/>
			<path fill="#004AE1" d="M27.688,23.834V8.279c0-0.017,0.001-0.073,0.001-0.146c0.001-0.091-0.001-0.148-0.001-0.163
				c0-0.003-0.002-0.006-0.002-0.01c-0.031-1.112-0.358-4.824-3.316-6.239c-0.318-0.151-0.693-0.125-0.986,0.07
				c-2.157,1.438-3.266,3.535-3.311,6.226c-0.001,0.015-0.009,0.028-0.009,0.043c0,0.019,0.003,0.035,0.004,0.053
				c0,0.025-0.004,0.047-0.004,0.072v7.135c-5.273,4.951-6.373,9.163-6.498,15.124c0,0,0,0.001,0,0.001
				c0,0.017-0.001,0.035-0.002,0.052V43c0,0.552,0.448,1,1,1s1-0.448,1-1V30.928c0.467-0.439,0.92-0.896,1.343-1.377
				c0.365-0.415,0.324-1.047-0.091-1.411c-0.32-0.281-0.767-0.316-1.123-0.129c0.328-3.644,1.348-6.535,4.213-9.693
				c-0.343,2.549-1.233,5.078-2.595,7.315c-0.287,0.472-0.137,1.087,0.334,1.375c0.472,0.286,1.087,0.136,1.375-0.334
				c0.387-0.635,0.727-1.297,1.044-1.971V45.75c0,0.552,0.448,1,1,1s1-0.448,1-1V13.114c0.097,0.03,0.192,0.066,0.293,0.066
				c0.215,0,0.432-0.069,0.614-0.212c0.436-0.339,0.514-0.968,0.174-1.403c-0.719-0.922-1.069-2.054-1.078-3.455
				c0.017-1.856,0.631-3.237,1.927-4.288c1.572,1.186,1.688,3.765,1.694,4.316c-0.007,0.44-0.086,2.132-0.9,3.412
				c-0.296,0.466-0.159,1.084,0.307,1.381c0.167,0.106,0.353,0.156,0.536,0.156c0.02,0,0.038-0.006,0.058-0.007V42
				c0,0.552,0.447,1,1,1s1-0.448,1-1v-9.077c0.376,0.86,0.807,1.697,1.294,2.5c0.287,0.471,0.902,0.621,1.374,0.334
				c0.472-0.287,0.622-0.902,0.335-1.375c-1.361-2.237-2.252-4.767-2.595-7.315c2.868,3.162,3.887,6.055,4.214,9.694
				c-0.357-0.188-0.805-0.153-1.124,0.128c-0.415,0.364-0.456,0.996-0.091,1.411c0.422,0.481,0.876,0.938,1.343,1.377V46
				c0,0.552,0.447,1,1,1s1-0.448,1-1v-6.77C34.316,33.164,33.198,28.905,27.688,23.834z"/>
		</g>
	</g>
</g>
<g id="Pemerintahan">
</g>
<g id="Ada_Apa_di_Surabaya_x3F_">
</g>
<g id="Pengaduan_Masyarakat">
</g>
<g id="Perizinan">
</g>
<g id="Kesehatan">
</g>
<g id="Pendidikan">
</g>
<g id="Sosial_Masyarakat">
</g>
<g id="Kependudukan">
</g>
<g id="Pemberdayaan_Ekonomi">
</g>
<g id="Whistle_Blower_System">
</g>
<g id="JDIH">
</g>
<g id="PPID">
</g>
<g id="Open_Data">
</g>
<g id="Satu_Peta">
</g>
<g id="Foto">
</g>
<g id="Video">
</g>
<g id="Infografis">
</g>
<g id="Podcast">
</g>
<g id="Berita_Terbaru">
</g>
<g id="Siaran_Pers">
</g>
<g id="Visi__x26__Misi">
</g>
<g id="Struktur_Organisasi_Pemerintahan_Surabaya">
</g>
<g id="Perangkat_Daerah">
</g>
<g id="Profil_Walikota_Surabaya">
</g>
<g id="Alamat_Pemerintah_Kota_Surabaya">
</g>
<g id="Transportasi">
</g>
<g id="Bisnis__x26__Investasi">
</g>
<g id="Akomodasi">
</g>
<g id="Wisata">
</g>
<g id="Media_Center">
</g>
<g id="SSW_Alfa">
</g>
<g id="EHealth">
</g>
<g id="Lawan_Covid">
</g>
<g id="Wadul_Sertifikat_Vaksin">
</g>
<g id="Profil_Sekolah">
</g>
<g id="Rapor_Online">
</g>
<g id="Sistem_Informasi_Aplikasi_Guru">
</g>
<g id="EPemuktakhiran_Data">
</g>
<g id="Klampid">
</g>
<g id="EPeken_Surabaya">
</g>
<g id="Username">
</g>
<g id="Password_1_">
</g>
<g id="Pencarian">
</g>
<g id="Share">
</g>
<g id="Lihat_Semua">
</g>
<g id="User">
</g>
<g id="Contact">
</g>
<g id="Location">
</g>
<g id="Play_Podcast">
</g>
<g id="Previous_Blue">
</g>
<g id="Next">
</g>
<g id="Navigasi_Previous">
</g>
<g id="Navigasi_Next">
</g>
<g id="Play_Video">
</g>
<g id="Facebook_1_">
</g>
<g id="Twitter">
</g>
<g id="Instagram_1_">
</g>
<g id="Youtube">
</g>
</svg>
