<?xml version="1.0" encoding="utf-8"?>
<!-- Generator: Adobe Illustrator 23.1.1, SVG Export Plug-In . SVG Version: 6.00 Build 0)  -->
<svg version="1.1" xmlns="http://www.w3.org/2000/svg" xmlns:xlink="http://www.w3.org/1999/xlink" x="0px" y="0px"
	 viewBox="0 0 48 48" enable-background="new 0 0 48 48" xml:space="preserve">
<g id="Icon_Grid" display="none">
</g>
<g id="BG" display="none">
	<rect display="inline" fill="#FFFFFF" width="48" height="48"/>
</g>
<g id="Mengenal_Surabaya">
</g>
<g id="Layanan_Publik">
</g>
<g id="Informasi_Publik">
</g>
<g id="Home">
</g>
<g id="Tentang_Surabaya">
</g>
<g id="Pemerintahan">
</g>
<g id="Ada_Apa_di_Surabaya_x3F_">
</g>
<g id="Pengaduan_Masyarakat">
</g>
<g id="Perizinan">
</g>
<g id="Kesehatan">
</g>
<g id="Pendidikan">
</g>
<g id="Sosial_Masyarakat">
</g>
<g id="Kependudukan">
</g>
<g id="Pemberdayaan_Ekonomi">
</g>
<g id="Whistle_Blower_System">
</g>
<g id="JDIH">
</g>
<g id="PPID">
</g>
<g id="Open_Data">
</g>
<g id="Satu_Peta">
</g>
<g id="Foto">
</g>
<g id="Video">
	<g>
		<g>
			<polygon fill="#FDD300" points="19.782,10.565 32.756,10.565 28.218,3 15.244,3 			"/>
			<path fill="#FDD300" d="M46.317,2.682C46.746,3.305,47,4.058,47,4.869v38.262C47,45.265,45.265,47,43.131,47H4.869
				c-0.812,0-1.564-0.254-2.187-0.683C3.381,47.332,4.547,48,5.869,48h38.262C46.265,48,48,46.265,48,44.131V5.869
				C48,4.547,47.332,3.38,46.317,2.682z"/>
			<path fill="#FDD300" d="M4.869,45h38.262C44.161,45,45,44.161,45,43.131V12.565H34.526c0,0-0.003,0-0.004,0l-0.004,0H19.222
				c0,0-0.003,0-0.004,0c0,0-0.003,0-0.004,0H3v30.565C3,44.161,3.839,45,4.869,45z M18.217,20.573c0-0.358,0.19-0.688,0.5-0.866
				c0.309-0.179,0.691-0.179,1,0l13.393,7.733c0.309,0.179,0.5,0.509,0.5,0.866c0,0.357-0.191,0.688-0.5,0.866l-13.393,7.73
				c-0.154,0.089-0.327,0.134-0.5,0.134c-0.173,0-0.346-0.045-0.5-0.134c-0.31-0.179-0.5-0.509-0.5-0.866V20.573z"/>
		</g>
		<g>
			<path fill="#004AE1" d="M42.131,0H3.869C1.735,0,0,1.736,0,3.869v38.262C0,44.265,1.735,46,3.869,46h38.262
				C44.265,46,46,44.265,46,42.131V3.869C46,1.736,44.265,0,42.131,0z M44,3.869v5.696h-9.913L29.549,2h12.582
				C43.161,2,44,2.838,44,3.869z M18.782,9.565L14.244,2h12.974l4.538,7.565H18.782z M3.869,2h8.044l4.538,7.565H2V3.869
				C2,2.838,2.839,2,3.869,2z M42.131,44H3.869C2.839,44,2,43.161,2,42.131V11.565h16.214c0.001,0,0.003,0,0.003,0
				c0.002,0,0.004,0,0.004,0h15.298l0.004,0c0.001,0,0.003,0,0.003,0H44v30.565C44,43.161,43.161,44,42.131,44z"/>
			<path fill="#004AE1" d="M32.109,26.44l-13.393-7.733c-0.309-0.179-0.691-0.179-1,0c-0.31,0.179-0.5,0.509-0.5,0.866v15.463
				c0,0.358,0.19,0.688,0.5,0.866c0.154,0.089,0.327,0.134,0.5,0.134c0.173,0,0.346-0.045,0.5-0.134l13.393-7.73
				c0.309-0.179,0.5-0.509,0.5-0.866C32.609,26.948,32.419,26.618,32.109,26.44z M19.217,33.305v-12l10.393,6.001L19.217,33.305z"/>
		</g>
	</g>
</g>
<g id="Infografis">
</g>
<g id="Podcast">
</g>
<g id="Berita_Terbaru">
</g>
<g id="Siaran_Pers">
</g>
<g id="Visi__x26__Misi">
</g>
<g id="Struktur_Organisasi_Pemerintahan_Surabaya">
</g>
<g id="Perangkat_Daerah">
</g>
<g id="Profil_Walikota_Surabaya">
</g>
<g id="Alamat_Pemerintah_Kota_Surabaya">
</g>
<g id="Transportasi">
</g>
<g id="Bisnis__x26__Investasi">
</g>
<g id="Akomodasi">
</g>
<g id="Wisata">
</g>
<g id="Media_Center">
</g>
<g id="SSW_Alfa">
</g>
<g id="EHealth">
</g>
<g id="Lawan_Covid">
</g>
<g id="Wadul_Sertifikat_Vaksin">
</g>
<g id="Profil_Sekolah">
</g>
<g id="Rapor_Online">
</g>
<g id="Sistem_Informasi_Aplikasi_Guru">
</g>
<g id="EPemuktakhiran_Data">
</g>
<g id="Klampid">
</g>
<g id="EPeken_Surabaya">
</g>
<g id="Username">
</g>
<g id="Password_1_">
</g>
<g id="Pencarian">
</g>
<g id="Share">
</g>
<g id="Lihat_Semua">
</g>
<g id="User">
</g>
<g id="Contact">
</g>
<g id="Location">
</g>
<g id="Play_Podcast">
</g>
<g id="Previous_Blue">
</g>
<g id="Next">
</g>
<g id="Navigasi_Previous">
</g>
<g id="Navigasi_Next">
</g>
<g id="Play_Video">
</g>
<g id="Facebook_1_">
</g>
<g id="Twitter">
</g>
<g id="Instagram_1_">
</g>
<g id="Youtube">
</g>
</svg>
