<?xml version="1.0" encoding="utf-8"?>
<!-- Generator: Adobe Illustrator 23.1.1, SVG Export Plug-In . SVG Version: 6.00 Build 0)  -->
<svg version="1.1" xmlns="http://www.w3.org/2000/svg" xmlns:xlink="http://www.w3.org/1999/xlink" x="0px" y="0px"
	 viewBox="0 0 48 48" enable-background="new 0 0 48 48" xml:space="preserve">
<g id="Icon_Grid" display="none">
</g>
<g id="BG" display="none">
	<rect display="inline" fill="#FFFFFF" width="48" height="48"/>
</g>
<g id="Mengenal_Surabaya">
</g>
<g id="Layanan_Publik">
</g>
<g id="Informasi_Publik">
</g>
<g id="Home">
</g>
<g id="Tentang_Surabaya">
</g>
<g id="Pemerintahan">
</g>
<g id="Ada_Apa_di_Surabaya_x3F_">
</g>
<g id="Pengaduan_Masyarakat">
</g>
<g id="Perizinan">
</g>
<g id="Kesehatan">
</g>
<g id="Pendidikan">
</g>
<g id="Sosial_Masyarakat">
</g>
<g id="Kependudukan">
</g>
<g id="Pemberdayaan_Ekonomi">
</g>
<g id="Whistle_Blower_System">
	<g>
		<g>
			<g>
				<path fill="#FFCF01" d="M29.235,29.342l-5.171-3.007l-3.666-2.13c-1.764-1.024-3.766-1.566-5.788-1.566
					c-4.137,0-7.987,2.237-10.049,5.837c-0.361,0.625-0.666,1.293-0.908,1.985C3.22,31.699,3,32.995,3,34.311
					c0,4.172,2.224,8.051,5.804,10.125C10.563,45.459,12.561,46,14.582,46c0.001,0,0.001,0,0.001,0
					c4.143,0,7.998-2.237,10.061-5.836c0.617-1.09,1.788-1.77,3.054-1.77c0.618,0,1.228,0.165,1.762,0.477l11.132,6.466l4.045-7.046
					l-15.391-8.945C29.243,29.345,29.239,29.344,29.235,29.342z"/>
				<polygon fill="#FFCF01" points="45,30.132 30.738,21.85 30.738,27.9 45,36.187 				"/>
				<path fill="#FFCF01" d="M47.502,28.692l-25.1-14.577c-2.067-1.201-4.417-1.836-6.792-1.836c-0.167,0-0.332,0.011-0.498,0.017
					c2.203,0.083,4.368,0.704,6.29,1.82l25.1,14.577C46.81,28.871,47,29.2,47,29.557v8.37c0,0.027-0.009,0.052-0.011,0.079
					c-0.002,0.03-0.007,0.058-0.012,0.088c-0.019,0.114-0.052,0.225-0.108,0.324c-0.001,0.002-0.001,0.004-0.002,0.007l-5.041,8.781
					c-0.091,0.157-0.229,0.27-0.385,0.357l0.016,0.009c0.23,0.134,0.505,0.17,0.761,0.101c0.257-0.069,0.476-0.237,0.608-0.468
					l5.041-8.781c0.001-0.002,0.001-0.004,0.002-0.007c0.057-0.1,0.089-0.21,0.108-0.324c0.005-0.03,0.01-0.058,0.012-0.088
					C47.991,37.979,48,37.954,48,37.927v-8.37C48,29.2,47.81,28.871,47.502,28.692z"/>
				<path fill="#FFCF01" d="M14.61,14.278c-4.137,0-7.987,2.237-10.049,5.837C3.54,21.894,3,23.912,3,25.951v1.235
					c0.051-0.084,0.108-0.164,0.161-0.248c0.077-0.12,0.153-0.24,0.233-0.358c0.088-0.128,0.178-0.253,0.27-0.377
					c0.084-0.115,0.169-0.23,0.256-0.342c0.095-0.12,0.192-0.236,0.29-0.353c0.092-0.11,0.184-0.22,0.279-0.326
					c0.1-0.113,0.204-0.221,0.308-0.33c0.1-0.104,0.197-0.207,0.3-0.307c0.107-0.105,0.218-0.207,0.328-0.308
					c0.106-0.097,0.209-0.193,0.317-0.287c0.113-0.098,0.231-0.191,0.347-0.285c0.11-0.089,0.221-0.179,0.333-0.265
					c0.12-0.091,0.244-0.176,0.366-0.263c0.115-0.081,0.229-0.164,0.347-0.242c0.127-0.083,0.256-0.161,0.385-0.24
					c0.119-0.073,0.237-0.148,0.358-0.218c0.133-0.076,0.269-0.146,0.404-0.217c0.122-0.064,0.242-0.131,0.366-0.192
					c0.14-0.068,0.282-0.13,0.425-0.194c0.123-0.055,0.245-0.113,0.37-0.165c0.146-0.06,0.295-0.114,0.443-0.169
					c0.125-0.046,0.249-0.097,0.376-0.14c0.152-0.052,0.308-0.096,0.462-0.142c0.126-0.038,0.25-0.079,0.377-0.113
					c0.162-0.044,0.326-0.079,0.49-0.117c0.122-0.028,0.243-0.06,0.366-0.085c0.174-0.035,0.351-0.06,0.526-0.089
					c0.115-0.019,0.229-0.042,0.346-0.057c0.196-0.026,0.394-0.042,0.593-0.059c0.098-0.009,0.194-0.022,0.292-0.029
					c0.297-0.02,0.596-0.03,0.896-0.03c2.375,0,4.725,0.635,6.792,1.836l0.641,0.372v-6.048l-1.645-0.955
					C18.635,14.82,16.634,14.278,14.61,14.278z"/>
				<path fill="#FFCF01" d="M26.382,41.155c-2.339,4.079-6.636,6.657-11.302,6.829C15.247,47.99,15.414,48,15.582,48
					c0.001,0,0.001,0,0.001,0c4.857,0,9.377-2.622,11.799-6.846c0.182-0.321,0.489-0.546,0.834-0.662
					C27.543,40.253,26.733,40.535,26.382,41.155z"/>
			</g>
			<path fill="#FFCF01" d="M36.804,2.884c-0.318-0.184-0.688-0.157-0.987,0.012c0.467,0.28,0.627,0.881,0.354,1.355l-4.781,8.283
				c-0.092,0.158-0.22,0.281-0.367,0.365l0.001,0.001c0.157,0.091,0.329,0.134,0.499,0.134c0.346,0,0.682-0.179,0.867-0.5
				L37.17,4.25C37.446,3.772,37.282,3.16,36.804,2.884z"/>
			<path fill="#FFCF01" d="M45.439,14.137c-0.143-0.534-0.691-0.851-1.225-0.707l-0.299,0.08c0.248,0.123,0.446,0.339,0.523,0.627
				c0.143,0.534-0.174,1.082-0.707,1.225l-8.938,2.394c0.137,0.068,0.282,0.116,0.438,0.116c0.086,0,0.173-0.011,0.26-0.035
				l9.239-2.475C45.266,15.219,45.582,14.67,45.439,14.137z"/>
			<path fill="#FFCF01" d="M26.44,10.977l-2.475-9.236c-0.143-0.534-0.689-0.851-1.225-0.707c-0.085,0.023-0.153,0.071-0.226,0.112
				c0.213,0.129,0.381,0.334,0.45,0.595l2.475,9.236c0.119,0.445-0.093,0.886-0.473,1.108c0.152,0.091,0.323,0.151,0.506,0.151
				c0.086,0,0.173-0.011,0.26-0.035C26.267,12.059,26.583,11.511,26.44,10.977z"/>
		</g>
		<g>
			<path fill="#004AE1" d="M46,28.557c0-0.356-0.19-0.686-0.498-0.865l-25.1-14.577c-2.067-1.201-4.417-1.836-6.792-1.836
				c-4.852,0-9.368,2.622-11.784,6.842C0.632,20.201,0,22.562,0,24.951v8.36c0,4.883,2.606,9.426,6.8,11.854
				C8.862,46.366,11.208,47,13.582,47c0.001,0,0.001,0,0.001,0c4.857,0,9.377-2.622,11.799-6.846
				c0.395-0.695,1.365-0.969,2.071-0.555l12.004,6.973c0.23,0.134,0.505,0.17,0.761,0.101c0.257-0.069,0.476-0.237,0.608-0.468
				l5.041-8.781c0.001-0.002,0.001-0.005,0.002-0.007c0.057-0.1,0.089-0.21,0.108-0.324c0.005-0.03,0.01-0.058,0.012-0.088
				C45.991,36.979,46,36.954,46,36.927V28.557z M23.043,23.009v-6.046l4.695,2.73v6.045l-4.37-2.54L23.043,23.009z M44,35.187
				L29.738,26.9v-6.05L44,29.132V35.187z M2,24.951c0-2.039,0.54-4.057,1.561-5.836c2.062-3.6,5.912-5.837,10.049-5.837
				c2.023,0,4.024,0.542,5.788,1.566l1.645,0.955v6.048l-0.641-0.372c-2.067-1.202-4.417-1.836-6.792-1.836
				c-0.3,0-0.599,0.01-0.896,0.03c-0.098,0.006-0.194,0.02-0.292,0.029c-0.198,0.017-0.397,0.034-0.593,0.059
				c-0.116,0.016-0.231,0.039-0.346,0.057c-0.176,0.028-0.353,0.054-0.526,0.089c-0.123,0.025-0.244,0.057-0.366,0.085
				c-0.164,0.038-0.328,0.073-0.49,0.116c-0.127,0.035-0.251,0.076-0.377,0.114c-0.154,0.046-0.31,0.09-0.462,0.142
				c-0.127,0.043-0.251,0.093-0.376,0.14c-0.148,0.056-0.297,0.108-0.443,0.169c-0.125,0.052-0.247,0.11-0.37,0.165
				c-0.143,0.064-0.285,0.126-0.425,0.194c-0.124,0.061-0.244,0.128-0.366,0.192c-0.136,0.071-0.271,0.141-0.404,0.217
				c-0.121,0.07-0.239,0.145-0.358,0.218c-0.129,0.079-0.258,0.157-0.385,0.24c-0.117,0.078-0.231,0.161-0.347,0.242
				c-0.122,0.087-0.246,0.172-0.366,0.263c-0.112,0.085-0.223,0.176-0.333,0.265c-0.116,0.094-0.233,0.188-0.347,0.285
				c-0.108,0.093-0.212,0.19-0.317,0.287c-0.11,0.102-0.221,0.203-0.328,0.308c-0.103,0.1-0.2,0.204-0.3,0.308
				c-0.103,0.108-0.207,0.217-0.308,0.329c-0.096,0.107-0.188,0.217-0.279,0.327c-0.098,0.117-0.195,0.233-0.29,0.353
				c-0.087,0.112-0.172,0.228-0.256,0.342c-0.092,0.125-0.182,0.249-0.27,0.377c-0.08,0.118-0.156,0.238-0.233,0.358
				C2.108,26.022,2.051,26.102,2,26.186V24.951z M39.592,44.338L28.46,37.872c-0.534-0.312-1.144-0.477-1.762-0.477
				c-1.266,0-2.437,0.68-3.054,1.77C21.581,42.764,17.726,45,13.583,45c0,0,0,0-0.001,0c-2.021,0-4.019-0.541-5.778-1.565
				C4.224,41.362,2,37.483,2,33.311c0-1.316,0.22-2.612,0.653-3.85c0.242-0.692,0.547-1.36,0.908-1.985
				c2.062-3.601,5.912-5.837,10.049-5.837c2.022,0,4.024,0.542,5.788,1.566l3.666,2.13l5.171,3.007
				c0.004,0.002,0.008,0.002,0.011,0.004l15.391,8.945L39.592,44.338z"/>
			<path fill="#004AE1" d="M29.022,11.899c0.157,0.091,0.329,0.134,0.499,0.134c0.346,0,0.682-0.179,0.867-0.5L35.17,3.25
				c0.276-0.478,0.112-1.09-0.366-1.366c-0.478-0.276-1.09-0.112-1.366,0.366l-4.781,8.283
				C28.38,11.012,28.544,11.623,29.022,11.899z"/>
			<path fill="#004AE1" d="M32.269,16.129c0.119,0.447,0.523,0.742,0.965,0.742c0.086,0,0.173-0.011,0.26-0.035l9.239-2.475
				c0.533-0.143,0.85-0.691,0.707-1.225c-0.143-0.534-0.691-0.851-1.225-0.707l-9.239,2.475
				C32.442,15.047,32.126,15.595,32.269,16.129z"/>
			<path fill="#004AE1" d="M22.509,10.495c0.119,0.447,0.523,0.742,0.965,0.742c0.086,0,0.173-0.011,0.26-0.035
				c0.533-0.143,0.85-0.691,0.707-1.225l-2.475-9.236c-0.143-0.534-0.689-0.851-1.225-0.707c-0.533,0.143-0.85,0.691-0.707,1.225
				L22.509,10.495z"/>
		</g>
	</g>
</g>
<g id="JDIH">
</g>
<g id="PPID">
</g>
<g id="Open_Data">
</g>
<g id="Satu_Peta">
</g>
<g id="Foto">
</g>
<g id="Video">
</g>
<g id="Infografis">
</g>
<g id="Podcast">
</g>
<g id="Berita_Terbaru">
</g>
<g id="Siaran_Pers">
</g>
<g id="Visi__x26__Misi">
</g>
<g id="Struktur_Organisasi_Pemerintahan_Surabaya">
</g>
<g id="Perangkat_Daerah">
</g>
<g id="Profil_Walikota_Surabaya">
</g>
<g id="Alamat_Pemerintah_Kota_Surabaya">
</g>
<g id="Transportasi">
</g>
<g id="Bisnis__x26__Investasi">
</g>
<g id="Akomodasi">
</g>
<g id="Wisata">
</g>
<g id="Media_Center">
</g>
<g id="SSW_Alfa">
</g>
<g id="EHealth">
</g>
<g id="Lawan_Covid">
</g>
<g id="Wadul_Sertifikat_Vaksin">
</g>
<g id="Profil_Sekolah">
</g>
<g id="Rapor_Online">
</g>
<g id="Sistem_Informasi_Aplikasi_Guru">
</g>
<g id="EPemuktakhiran_Data">
</g>
<g id="Klampid">
</g>
<g id="EPeken_Surabaya">
</g>
<g id="Username">
</g>
<g id="Password_1_">
</g>
<g id="Pencarian">
</g>
<g id="Share">
</g>
<g id="Lihat_Semua">
</g>
<g id="User">
</g>
<g id="Contact">
</g>
<g id="Location">
</g>
<g id="Play_Podcast">
</g>
<g id="Previous_Blue">
</g>
<g id="Next">
</g>
<g id="Navigasi_Previous">
</g>
<g id="Navigasi_Next">
</g>
<g id="Play_Video">
</g>
<g id="Facebook_1_">
</g>
<g id="Twitter">
</g>
<g id="Instagram_1_">
</g>
<g id="Youtube">
</g>
</svg>
