<?xml version="1.0" encoding="UTF-8"?>
<!DOCTYPE svg PUBLIC "-//W3C//DTD SVG 1.1//EN" "http://www.w3.org/Graphics/SVG/1.1/DTD/svg11.dtd">
<!-- Creator: CorelDRAW X8 -->
<svg xmlns="http://www.w3.org/2000/svg" xml:space="preserve" width="3.04154in" height="0.493701in" version="1.1" style="shape-rendering:geometricPrecision; text-rendering:geometricPrecision; image-rendering:optimizeQuality; fill-rule:evenodd; clip-rule:evenodd"
viewBox="0 0 577 94"
 xmlns:xlink="http://www.w3.org/1999/xlink">
 <defs>
  <style type="text/css">
   <![CDATA[
    .fil11 {fill:#004242}
    .fil8 {fill:#006633}
    .fil6 {fill:#0F295D}
    .fil7 {fill:#5FC764}
    .fil3 {fill:#A4D2E0}
    .fil9 {fill:#E4FAD5}
    .fil10 {fill:#FF6161}
    .fil5 {fill:#FF6161}
    .fil4 {fill:white}
    .fil0 {fill:#FEFEFE;fill-rule:nonzero}
    .fil13 {fill:#004242;fill-rule:nonzero}
    .fil12 {fill:#006633;fill-rule:nonzero}
    .fil14 {fill:#18A347;fill-rule:nonzero}
    .fil17 {fill:#1CB04E;fill-rule:nonzero}
    .fil15 {fill:#DBAA37;fill-rule:nonzero}
    .fil16 {fill:#FFDE66;fill-rule:nonzero}
    .fil18 {fill:#C3952B;fill-rule:nonzero;fill-opacity:0.200000}
    .fil20 {fill:#373435;fill-opacity:0.301961}
    .fil19 {fill:#0F295D;fill-opacity:0.301961}
    .fil2 {fill:#373435;fill-opacity:0.501961}
    .fil1 {fill:#0F295D;fill-opacity:0.501961}
   ]]>
  </style>
 </defs>
 <g id="Layer_x0020_1">
  <metadata id="CorelCorpID_0Corel-Layer"/>
  <path class="fil0" d="M115 78l-11 0 0 -41 12 0c4,0 8,0 9,1 2,0 4,1 5,2 2,1 3,3 3,5 1,1 2,4 2,6 0,2 -1,4 -2,6 0,2 -1,4 -3,5 -1,1 -2,1 -4,2 -2,0 -4,0 -7,0l-2 0 -2 0 0 14zm0 -23l2 0c2,0 4,0 5,-1 1,-1 2,-2 2,-4 0,-1 -1,-2 -2,-3 -1,-1 -3,-1 -5,-1l-2 0 0 9z"/>
  <polygon id="1" class="fil0" points="140,78 140,37 165,37 165,46 151,46 151,53 164,53 164,62 151,62 151,68 165,68 165,78 "/>
  <polygon id="2" class="fil0" points="172,78 172,37 183,37 183,55 196,37 209,37 194,57 210,78 196,78 183,59 183,78 "/>
  <polygon id="3" class="fil0" points="213,78 213,37 238,37 238,46 224,46 224,53 237,53 237,62 224,62 224,68 238,68 238,78 "/>
  <path id="4" class="fil0" d="M246 78l0 -41 10 0 16 21c0,0 0,1 1,2 1,2 1,3 2,5 0,-2 0,-3 0,-4 0,-2 0,-3 0,-4l0 -20 10 0 0 41 -10 0 -16 -21c0,-1 -1,-2 -1,-3 -1,-1 -2,-3 -2,-4 0,1 0,3 0,4 0,1 0,3 0,4l0 20 -10 0z"/>
  <path id="5" class="fil0" d="M313 64c2,2 4,4 5,5 2,1 3,1 5,1 2,0 3,0 4,-1 1,-1 1,-2 1,-3 0,-2 0,-3 -1,-3 -1,-1 -3,-2 -6,-3 -4,-1 -6,-2 -8,-4 -2,-1 -3,-4 -3,-7 0,-4 2,-7 4,-9 3,-3 6,-4 10,-4 3,0 5,0 7,1 2,1 4,1 5,3l-3 8c-1,-1 -3,-2 -4,-3 -1,0 -2,-1 -4,-1 -1,0 -2,1 -3,1 -1,1 -1,2 -1,3 0,1 0,2 1,2 1,1 2,1 4,2l1 0c4,1 7,3 8,4 1,1 2,2 3,4 0,1 0,3 0,4 0,5 -1,8 -4,11 -3,2 -6,4 -11,4 -3,0 -6,-1 -8,-2 -2,-1 -4,-2 -7,-4l5 -9z"/>
  <path id="6" class="fil0" d="M373 50l0 14c0,3 -1,5 -1,7 -1,1 -2,3 -3,4 -1,1 -3,2 -4,3 -2,0 -4,1 -7,1 -2,0 -5,-1 -6,-1 -2,-1 -4,-2 -5,-3 -1,-1 -2,-3 -3,-4 0,-2 0,-4 0,-7l0 -14 9 0 0 15c0,2 0,4 1,5 1,1 2,1 4,1 2,0 3,0 4,-1 1,-1 1,-3 1,-5l0 -15 10 0z"/>
  <path id="7" class="fil0" d="M380 78l0 -28 9 0 0 6c1,-2 2,-4 4,-5 2,-1 4,-2 6,-2 0,0 1,0 1,0 1,0 1,0 1,0l-1 9c0,0 -1,0 -1,0 -1,0 -1,0 -2,0 -2,0 -4,0 -6,2 -1,1 -2,3 -2,6l0 12 -9 0z"/>
  <path id="8" class="fil0" d="M426 64c0,-3 0,-4 -1,-6 -2,-1 -3,-2 -5,-2 -2,0 -4,1 -5,2 -1,2 -2,3 -2,6 0,2 1,3 2,5 1,1 3,2 5,2 2,0 3,-1 5,-2 1,-2 1,-3 1,-5zm9 -14l0 28 -9 0 0 -5c-1,2 -3,3 -4,4 -2,1 -4,2 -6,2 -4,0 -7,-2 -9,-4 -2,-3 -3,-7 -3,-11 0,-5 1,-9 3,-11 2,-3 6,-4 9,-4 3,0 4,0 6,1 1,1 3,2 4,4l0 -4 9 0z"/>
  <path id="9" class="fil0" d="M451 64c0,2 1,4 2,5 1,1 3,2 5,2 2,0 3,-1 4,-2 1,-1 2,-3 2,-5 0,-3 -1,-4 -2,-6 -1,-1 -2,-1 -4,-1 -2,0 -4,0 -5,1 -1,2 -2,3 -2,6zm-9 -29l10 0 0 14c0,1 0,2 0,3 0,1 0,2 0,2 1,-2 2,-3 4,-4 1,-1 3,-1 5,-1 4,0 7,1 9,4 3,3 4,6 4,11 0,4 -1,8 -4,11 -2,2 -5,4 -9,4 -2,0 -4,-1 -5,-2 -2,-1 -3,-2 -4,-4l0 5 -10 0 0 -43z"/>
  <path id="10" class="fil0" d="M501 64c0,-3 0,-4 -2,-6 -1,-1 -2,-2 -4,-2 -2,0 -4,1 -5,2 -1,2 -2,3 -2,6 0,2 1,3 2,5 1,1 3,2 5,2 2,0 3,-1 4,-2 2,-2 2,-3 2,-5zm9 -14l0 28 -9 0 0 -5c-2,2 -3,3 -5,4 -1,1 -3,2 -5,2 -4,0 -7,-2 -9,-4 -3,-3 -4,-7 -4,-11 0,-5 2,-9 4,-11 2,-3 5,-4 9,-4 2,0 4,0 6,1 1,1 3,2 4,4l0 -4 9 0z"/>
  <path id="11" class="fil0" d="M516 90l8 -17 -12 -23 11 0 4 10c0,1 1,1 1,2 0,1 0,1 0,2 1,-1 1,-1 1,-2 0,-1 0,-1 1,-2l4 -10 10 0 -17 40 -11 0z"/>
  <path id="12" class="fil0" d="M569 64c0,-3 -1,-4 -2,-6 -1,-1 -3,-2 -5,-2 -2,0 -3,1 -5,2 -1,2 -1,3 -1,6 0,2 0,3 1,5 2,1 3,2 5,2 2,0 4,-1 5,-2 1,-2 2,-3 2,-5zm8 -14l0 28 -9 0 0 -5c-1,2 -2,3 -4,4 -2,1 -4,2 -6,2 -3,0 -6,-2 -9,-4 -2,-3 -3,-7 -3,-11 0,-5 1,-9 3,-11 3,-3 6,-4 10,-4 2,0 4,0 5,1 2,1 3,2 4,4l0 -4 9 0z"/>
  <g id="_2505411659296">
   <path class="fil1" d="M45 52c0,0 0,0 0,0l1 -1 1 2c0,2 -1,4 -1,6 -1,1 0,1 0,2 1,2 2,4 2,7l-1 1 -1 0c-1,0 -2,0 -3,0 0,0 -1,0 -1,-1 0,0 0,0 0,0 -1,0 -2,0 -3,-1 0,1 0,0 -1,0 -2,-1 -3,-3 -5,-5 -1,-2 -2,-5 -2,-8l0 -1c0,0 0,0 0,0l0 0c0,-1 0,-1 1,-1 0,0 -1,-1 -1,-2 0,-1 0,-2 0,-3 0,-1 0,-1 0,-1l0 -3 2 3c0,0 1,1 1,1 5,-6 13,-8 20,-6 0,1 1,0 1,0 1,0 1,-1 2,-1 2,-2 3,-2 6,-3l2 0 -1 2c-1,1 -3,2 -4,4 0,0 0,0 0,1 0,0 0,1 1,2 0,1 1,1 2,2l3 2 -3 0c-5,0 -6,-3 -9,-4 -4,-1 -6,1 -8,3l0 1 -1 0 0 1 0 0 0 1 0 0z"/>
   <path class="fil2" d="M52 67c0,0 0,0 0,0 -1,-1 -1,-1 -1,-1 0,0 0,0 0,0l0 -1 1 0c1,0 1,0 1,0 0,0 0,0 1,0 -1,0 -2,-1 -2,-1l0 0c0,0 -1,0 -1,0l0 -1c0,0 0,0 -1,0l0 0c0,0 0,0 0,0l-1 -1c0,0 0,0 0,0 0,0 0,0 0,0 -1,0 -1,-1 -1,-1 0,0 0,0 0,0l0 0c0,0 0,-1 -1,-1 0,0 0,-1 1,-1 0,0 0,-1 0,-1 0,0 0,0 0,0l0 0c1,-1 1,-2 2,-2 1,-1 1,-1 1,0 1,0 1,0 1,0 0,0 0,0 0,0 2,1 4,3 6,3 1,0 2,0 2,2 2,0 1,0 2,1 0,0 1,0 1,0 1,1 0,1 1,2 0,0 0,0 0,0 1,1 1,1 1,1 0,0 0,0 0,1 1,1 0,1 0,1 1,1 1,1 1,2l0 0 0 0 0 1 0 1 0 0c0,0 0,1 0,1 0,1 0,2 -1,3 0,0 0,0 0,0 -2,4 -5,7 -9,8 0,0 0,0 0,0 0,1 0,1 -1,2 0,0 -1,0 -1,0 -1,0 -2,0 -2,-1 -4,1 -7,0 -10,-1 -3,-1 -6,-2 -9,-2 -2,0 -4,0 -5,1l-6 2 5 -4c0,-1 1,-1 2,-2l0 0c1,0 2,0 2,-1l1 0c0,0 1,0 1,0 0,0 0,0 1,0l0 0c0,0 0,0 0,0 0,0 1,0 1,0 0,0 0,0 0,0 1,0 1,0 1,0 0,0 1,0 1,0 0,0 0,0 1,0 0,0 0,0 1,0 0,0 1,0 1,0 1,0 1,1 1,1 1,0 1,-1 1,-1 1,1 1,1 1,1 0,0 1,0 1,0 0,0 1,0 1,0 0,0 0,0 1,0 0,0 0,0 0,0 1,0 1,0 2,0 0,0 0,0 1,0 0,0 0,0 0,0 0,0 1,0 1,0 0,0 0,0 0,-1 0,0 1,0 1,-1 0,0 1,0 1,0 0,0 1,0 1,0 0,0 0,0 0,0 2,-1 3,-4 3,-6 0,0 0,-1 -1,-1 0,0 -1,-1 -2,-1l0 0c-1,0 -1,0 -1,-1 0,0 0,0 0,0z"/>
   <g>
    <g>
     <path class="fil3" d="M63 38c-2,3 -3,3 -5,6 1,1 2,3 5,5 -5,0 -5,-3 -9,-4 -8,-2 -11,6 -11,9 1,0 2,-1 2,-1 1,2 0,4 0,6 -1,1 -1,1 0,2 1,2 2,4 1,7 -1,0 -2,0 -2,0 -1,0 -1,0 -2,0 0,0 0,-1 0,-1 -1,0 -3,-3 -4,-5 0,1 1,4 1,4 0,0 -7,-2 -6,-14 0,0 -1,-3 -1,-6 1,2 2,3 2,3 4,-6 11,-9 19,-7 1,1 2,1 3,0 2,-1 3,-3 7,-4z"/>
     <path class="fil4" d="M46 68c-1,0 -2,0 -2,0 -1,0 -1,0 -2,0 0,0 0,-1 0,-1 -1,0 -3,-3 -4,-5 0,1 1,4 1,4 0,0 0,0 0,0 -5,-2 -7,-7 -6,-14 1,6 4,8 8,11 0,0 1,0 1,0 1,0 1,1 1,1 1,1 3,3 3,4z"/>
     <path class="fil5" d="M39 66c-1,0 -1,-3 -1,-4 1,2 3,4 4,5 0,0 -3,-1 -3,-1z"/>
     <ellipse class="fil6" transform="matrix(0.353822 -0.171251 0.134696 0.278302 42.1202 63.2878)" rx="1" ry="3"/>
     <path class="fil1" d="M45 49c-1,2 -2,4 -2,5 1,0 2,-1 2,-1 -1,1 -3,1 -4,2 1,-1 1,-1 2,-2 0,-2 0,-3 2,-4z"/>
     <g>
      <path class="fil1" d="M40 59c0,0 -2,0 -2,2 -1,-1 0,-2 2,-2z"/>
      <path class="fil1" d="M39 59c0,0 -2,0 -2,2 -1,-2 0,-3 2,-2z"/>
     </g>
    </g>
    <g>
     <path class="fil7" d="M27 81c2,-2 5,-3 7,-3 0,0 1,0 1,0 0,0 0,0 0,0 0,0 1,0 1,0 0,0 1,0 1,0 0,0 1,0 1,0 0,0 0,0 1,0 0,0 1,0 1,0 0,0 1,0 1,1 0,0 1,-1 1,-1 0,0 1,1 1,1 0,0 1,0 1,0 0,0 0,0 1,0 0,0 0,0 1,0 0,0 0,0 0,0 1,0 1,0 2,0 0,0 0,0 1,0 0,0 1,0 2,0 0,0 0,-1 0,-1 0,-1 0,-1 1,-1 0,0 0,0 0,0 0,0 0,0 0,0 1,0 0,0 0,0 0,0 1,0 1,0 0,0 0,0 0,0 0,0 0,0 0,0 0,1 0,1 -1,1 5,-2 5,-7 4,-10 0,0 0,0 0,0 -1,0 -2,0 -3,-1 0,0 0,0 0,0 0,0 0,0 0,0 0,-1 -1,-1 -1,-1 0,0 1,0 1,0 0,0 -1,0 -1,0 1,0 1,0 2,0 0,0 0,0 0,-1 5,1 -5,-3 -6,-5 0,0 0,-1 0,-1 0,0 1,0 1,0 0,0 0,0 0,0 0,0 0,0 0,-1 0,0 0,0 0,0 0,-1 1,-1 2,-1 0,-1 0,-1 0,-1 0,0 0,1 0,1 0,0 1,0 1,0 1,1 4,3 6,3 1,0 1,0 2,1 1,0 1,1 1,2 1,0 1,0 2,0 0,0 0,1 0,1 0,0 0,0 1,1 0,0 0,0 0,1 0,0 0,0 1,0 0,1 -1,1 0,2 0,0 0,0 0,1 0,0 0,1 0,2 0,0 0,1 0,1 0,1 -1,2 -1,3 -1,3 -5,7 -10,8 0,0 1,0 1,0 0,0 0,0 0,0 0,0 0,0 0,0 0,0 0,1 0,1 0,0 0,0 0,0 0,0 0,0 0,0 0,0 -1,0 -1,0 -1,0 -2,-1 -2,-1 -10,2 -16,-6 -25,-2z"/>
     <path class="fil8" d="M60 61c1,0 1,1 1,2 1,0 1,0 2,0 0,0 0,1 0,1 0,0 0,0 1,1 0,0 0,0 0,1 0,0 0,0 1,0 0,1 -1,1 0,2 0,0 0,0 0,1 0,0 0,1 0,2 0,0 0,1 0,1 0,1 0,2 -1,2 0,0 0,0 0,0 1,-1 0,-2 0,-3 0,-1 1,-1 1,-2 0,-1 -1,-1 -1,-2 0,-1 0,0 -1,-1 0,-1 0,-1 0,-2 0,-1 -1,-1 -1,-1 -1,0 -2,-2 -2,-2z"/>
     <path class="fil8" d="M30 79c0,0 0,0 0,0 0,0 0,0 0,0zm2 -1c0,0 1,0 2,0 0,0 1,0 1,0 0,0 0,0 0,0 0,0 1,0 1,0 0,0 1,0 1,0 0,0 1,0 1,0 0,0 0,0 1,0 0,0 1,0 1,0 0,0 1,0 1,1 0,0 1,-1 1,-1 0,0 1,1 1,1 0,0 1,0 1,0 0,0 0,0 1,0 0,0 0,0 1,0 0,0 0,0 0,0 1,0 1,0 2,0 0,0 0,0 1,0 0,0 0,0 0,0l2 1 0 0 0 0c0,0 0,0 -1,0 -1,-1 -1,0 -1,0 -1,-1 -1,-1 -2,-1 0,1 -1,0 -2,1 -1,0 -1,-1 -1,-1 -1,0 -2,0 -2,0 -1,0 -2,-1 -3,-1 -1,1 -1,0 -2,0 -1,0 -1,0 -1,0 -2,0 -3,0 -4,0z"/>
     <path class="fil9" d="M55 65c0,-1 -5,-3 -6,-5 2,3 9,5 8,5 -1,0 -2,0 -2,0z"/>
     <path class="fil8" d="M54 66c0,0 0,0 0,-1 1,1 2,0 1,0 1,0 2,0 2,0 0,0 -2,1 -2,1 -1,0 -1,0 -1,0z"/>
     <path class="fil9" d="M52 78c3,-1 6,-6 4,-10 4,4 1,5 1,6 1,1 -3,4 -5,4z"/>
     <path class="fil10" d="M49 58c1,1 3,3 6,3 -2,0 -5,0 -6,-2 0,0 0,0 0,-1z"/>
     <ellipse class="fil11" transform="matrix(0.151215 0.0660274 -0.0681672 0.0992579 50.8667 56.7619)" rx="1" ry="3"/>
     <path class="fil12" d="M49 79c2,0 2,1 3,1 0,0 0,0 0,-1 0,0 1,1 2,1l0 0c0,0 0,0 0,0 1,0 1,0 2,0 0,0 0,0 0,0 0,-1 0,-1 0,-1 1,0 1,0 1,0 1,0 1,0 1,0 0,0 0,0 0,0 1,0 1,-1 1,-1 1,0 1,0 1,0 0,0 0,0 0,-1 0,0 0,0 1,0 0,0 0,0 0,0 1,0 1,0 1,0 -1,-1 0,-1 0,-1 0,0 0,0 1,0 0,0 0,0 0,0 0,0 0,0 0,-1 0,0 0,0 0,0 1,-1 1,-1 2,-2 0,1 -1,2 -2,2 0,0 0,0 0,0 1,1 0,1 0,1 0,0 0,0 0,0 0,0 -1,0 -1,0 0,0 0,0 0,1 0,0 0,0 -1,1 0,0 0,0 0,0l0 0c0,0 0,0 0,0 0,0 -1,1 -1,1 -1,0 -1,0 -1,0 0,0 0,0 0,0 0,0 0,1 0,1 -1,0 -1,0 -2,0 0,0 0,0 0,0 0,0 0,0 0,0 0,0 -1,0 -1,0 -1,0 -1,0 -1,0 0,0 0,0 0,0 0,0 0,1 0,1 0,0 -1,0 -2,-1 0,0 0,0 0,0 0,0 0,0 -1,0 -1,1 -1,-1 -3,-1zm3 1c0,0 0,0 0,0 0,0 0,0 0,0zm8 -2l0 0c0,0 0,0 0,0zm0 0c0,0 0,0 0,0l0 0z"/>
     <path class="fil13" d="M57 60c0,0 0,0 0,0 0,0 0,0 0,0 0,0 2,0 2,1 0,1 0,1 0,1 0,0 -1,-1 0,-1 0,-1 -2,-1 -2,-1z"/>
    </g>
   </g>
   <g>
    <g>
     <g>
      <path class="fil14" d="M19 28l1 -17c0,-6 5,-11 12,-11l6 0c0,0 0,0 0,0 7,0 12,5 12,11l1 17c0,1 0,2 -1,2 0,0 0,0 0,0 -1,0 -2,-1 -2,-2l-1 -17c-1,-4 -4,-7 -9,-7 0,0 0,0 0,0l-6 0c-5,0 -8,3 -9,8l-1 16c0,1 -1,2 -1,2 0,0 -1,0 -1,0 -1,0 -1,-1 -1,-2z"/>
     </g>
     <path class="fil15" d="M62 23l9 58c1,7 -4,12 -11,12l-48 0c-6,0 -13,-3 -12,-9l11 -61c1,-2 2,-3 4,-3l44 0c1,0 3,2 3,3z"/>
     <path class="fil16" d="M72 23l8 59c1,6 -4,12 -10,12l-59 -1c0,0 4,-1 5,-8 3,-13 5,-62 5,-62 0,-2 2,-3 4,-3l43 0c2,0 4,1 4,3z"/>
     <g>
      <path class="fil17" d="M29 28l0 -16c1,-7 6,-12 12,-12l7 0c0,0 0,0 0,0 6,0 12,5 12,11l1 17c0,1 -1,2 -2,2 0,0 0,0 0,0 -1,0 -1,-1 -1,-2l-1 -16c-1,-5 -4,-8 -9,-8 0,0 0,0 0,0l-7 0c-4,0 -8,3 -8,8l-1 16c0,1 -1,2 -2,2 0,0 0,0 0,0 -1,0 -2,-1 -1,-2z"/>
     </g>
     <path class="fil18" d="M16 25c0,0 -5,49 -5,54 0,5 1,13 1,13 0,0 -3,-10 -4,-10 -2,1 -7,3 -7,3 0,0 7,-6 8,-10 1,-2 7,-50 7,-50z"/>
    </g>
    <path class="fil19" d="M44 52c1,0 1,0 1,0l1 -1 0 2c0,2 0,4 -1,6 0,0 0,1 1,1 1,3 2,5 1,8l0 1 -1 0c-1,0 -2,0 -3,0 0,0 -1,0 -1,-1 -1,0 -1,0 -1,0 0,0 -1,0 -2,-1 0,0 -1,0 -1,0 -2,-1 -4,-3 -5,-5 -1,-3 -2,-6 -2,-9l0 0c0,0 0,0 0,0l0 -1c0,0 0,0 0,0 0,0 0,-1 0,-2 0,-1 0,-2 0,-4 0,0 0,0 0,0l0 -4 2 4c0,0 0,1 1,1 4,-6 12,-8 20,-6 0,0 0,0 1,0 0,0 1,-1 2,-1 2,-2 3,-3 5,-3l3 -1 -2 3c-1,1 -2,2 -3,3 0,1 0,1 -1,1 1,1 1,2 2,2 0,2 1,2 2,3l3 2 -4 0c-4,0 -5,-3 -9,-4 -3,-1 -6,0 -7,3l-1 1 0 0 0 1 0 0 -1 1 0 0z"/>
    <path class="fil20" d="M51 67c0,-1 0,-1 0,-1 0,0 0,0 0,0 0,0 0,0 0,0l0 -1 1 0c1,-1 1,0 1,0 0,0 0,0 0,0 0,-1 -1,-1 -1,-1l0 0c-1,0 -1,0 -1,-1l0 0c0,0 -1,0 -1,0l0 0c0,-1 0,-1 -1,-1l0 0c0,0 0,0 0,0 0,0 -1,0 -1,-1 0,0 0,0 0,0 0,0 0,0 0,0l0 0c-1,-1 -1,-1 -1,-1 0,-1 0,-1 0,-1 0,0 1,-1 1,-1 0,0 0,0 0,0l0 0c0,-1 1,-2 2,-2 0,-1 1,-1 1,-1 0,0 1,1 1,1 0,0 0,0 0,0 2,1 4,2 5,2 2,0 3,1 3,2 1,1 1,1 2,2 0,0 0,0 1,0 0,1 0,1 0,1 1,1 1,1 1,1 0,0 0,1 0,1 1,0 1,0 1,1 0,0 0,1 0,1 0,1 1,1 1,2l0 0 0 0 0 1 0 0 0 0c0,1 0,2 0,2 0,1 0,2 -1,3 0,0 0,0 0,0 -2,4 -5,7 -9,8 0,0 0,0 0,0 0,1 0,1 -1,1 0,1 -1,1 -2,1 0,0 -1,-1 -1,-1 -4,1 -7,0 -11,-1 -2,-1 -5,-2 -8,-2 -2,-1 -4,0 -6,0l-5 3 4 -4c1,-1 2,-1 3,-2l0 0c1,0 1,-1 2,-1l0 0c1,0 1,0 2,0 0,0 0,0 0,0l0 0c1,0 1,0 1,0 0,0 0,0 1,0 0,0 0,0 0,0 0,0 0,0 1,0 0,0 0,0 1,0 0,0 0,0 1,0 0,0 0,0 1,0 0,0 0,0 1,0 0,0 1,0 1,0 0,0 1,0 1,0 1,0 1,1 1,1 0,0 0,0 1,0 0,0 0,0 0,0 1,0 1,0 1,0 1,0 1,0 1,0 1,0 1,0 1,0 1,0 1,0 1,0 1,0 1,0 1,0 0,0 1,0 1,0 0,0 0,-1 0,-1 0,0 1,-1 1,-1 0,0 0,0 1,0 0,0 0,0 1,0 0,0 0,0 0,0 2,-1 3,-4 2,-6 0,-1 0,-1 0,-1 -1,0 -1,-1 -2,-1l0 0c-1,0 -1,-1 -2,-1 0,0 0,0 0,0z"/>
    <g>
     <g>
      <path class="fil3" d="M63 38c-3,3 -4,3 -5,5 1,2 2,4 4,6 -4,0 -4,-3 -8,-4 -8,-2 -11,6 -11,9 1,-1 2,-1 2,-1 0,2 0,4 -1,6 0,0 0,1 1,2 0,2 2,4 1,7 -1,0 -2,0 -3,0 0,0 0,0 -1,-1 0,0 0,0 0,0 -1,0 -3,-3 -4,-5 0,1 0,4 1,4 0,0 -7,-2 -7,-14 0,-1 0,-3 0,-6 1,2 2,3 2,2 4,-5 11,-8 19,-6 1,0 2,0 2,0 3,-1 3,-3 8,-4z"/>
      <path class="fil4" d="M46 68c-1,0 -2,0 -3,0 0,0 0,0 -1,-1 0,0 0,0 0,0 -1,0 -3,-3 -4,-5 0,1 0,4 1,4 0,0 0,0 0,0 -5,-2 -7,-7 -7,-14 2,6 5,8 9,11 0,0 1,0 1,0 1,0 1,1 1,1 1,1 2,3 3,4z"/>
      <path class="fil5" d="M39 66c-1,-1 -1,-3 -1,-4 1,1 3,4 4,5 -1,0 -3,-1 -3,-1z"/>
      <ellipse class="fil6" transform="matrix(0.353325 -0.17101 0.134507 0.277911 41.9252 63.128)" rx="1" ry="3"/>
      <path class="fil1" d="M45 49c-1,1 -2,4 -2,5 1,-1 2,-1 2,-1 -2,1 -3,1 -4,2 0,-1 1,-1 1,-2 1,-2 1,-3 3,-4z"/>
      <g>
       <path class="fil1" d="M39 59c0,0 -2,0 -1,2 -1,-1 0,-2 1,-2z"/>
       <path class="fil1" d="M39 59c0,0 -2,0 -2,2 -1,-2 0,-3 2,-2z"/>
      </g>
     </g>
     <g>
      <path class="fil7" d="M27 81c2,-2 4,-3 7,-3 0,0 1,-1 1,-1 0,0 0,1 0,1 0,0 1,-1 1,-1 0,0 0,1 1,1 0,0 0,-1 1,0 0,0 0,0 0,0 1,0 1,0 2,0 0,0 1,0 1,0 0,0 1,0 1,0 0,0 0,1 1,1 0,0 0,-1 1,-1 0,1 0,1 0,1 1,0 1,0 1,0 1,0 1,0 1,0 1,0 1,0 1,0 1,0 1,0 1,0 1,0 2,0 2,0 1,-1 1,-1 1,-1 0,-1 0,-1 0,-1 1,0 1,0 1,0 0,0 0,0 0,0 0,0 0,0 0,0 0,0 0,0 0,0 0,0 0,0 0,0 0,0 1,0 1,0 0,0 -1,1 -1,1 5,-2 5,-7 4,-10 0,0 0,0 -1,0 0,0 -1,-1 -2,-1 0,0 -1,0 -1,0 0,-1 1,-1 1,-1 0,0 -1,0 -1,0 0,0 1,0 0,0 0,0 0,0 0,0 1,-1 1,0 2,0 0,0 0,0 0,-1 5,1 -6,-3 -6,-6 0,0 0,0 0,0 0,0 0,0 0,0 0,0 1,0 1,0 0,0 0,0 0,-1 0,0 0,0 0,0 0,-1 1,-1 1,-2 0,0 1,0 1,0 0,0 0,0 0,1 0,0 0,0 1,0 1,1 3,2 5,2 2,0 2,1 3,2 1,0 0,1 1,1 1,1 1,1 1,1 1,0 1,1 1,1 0,0 0,0 0,0 1,1 0,1 1,1 0,1 0,1 0,1 0,0 0,1 0,2 0,0 1,0 1,1 0,0 0,1 0,1 0,1 0,2 0,2 0,1 -1,2 -1,3 -2,3 -5,7 -10,8 0,0 1,0 1,0 0,0 0,0 0,0 0,0 0,0 0,0 0,0 0,0 0,0 0,1 0,0 0,0 0,1 -1,1 -1,1 0,0 -1,0 -1,0 0,0 -1,-1 -1,-1 -10,2 -17,-6 -25,-2z"/>
      <path class="fil8" d="M60 61c1,0 0,1 1,1 1,1 1,1 1,1 1,0 1,1 1,1 0,0 0,0 0,0 1,1 0,1 1,1 0,1 0,1 0,1 0,0 0,1 0,2 0,0 1,0 1,1 0,0 0,1 0,1 0,1 0,2 0,2 0,1 0,2 -1,2 0,0 0,0 0,0 1,-1 0,-3 0,-3 0,-1 0,-1 0,-2 0,-1 -1,-1 0,-2 0,-1 -1,0 -1,-1 0,-2 -1,-1 -1,-2 0,-1 0,-1 -1,-1 -1,0 -1,-2 -1,-2z"/>
      <path class="fil8" d="M29 79c1,0 1,0 1,0 0,0 0,0 -1,0zm2 -1c1,0 2,0 3,0 0,0 1,-1 1,-1 0,0 0,1 0,1 0,0 1,-1 1,-1 0,0 0,1 1,1 0,0 0,-1 1,0 0,0 0,0 0,0 1,0 1,0 2,0 0,0 1,0 1,0 0,0 1,0 1,0 0,0 0,1 1,1 0,0 0,-1 1,-1 0,1 0,1 0,1 1,0 1,0 1,0 1,0 1,0 1,0 1,0 1,0 1,0 1,0 1,0 1,0 1,0 1,0 1,0l2 0 0 1 0 0c0,0 -1,0 -1,-1 -1,0 -1,1 -2,0 0,0 0,0 -1,0 -1,1 -1,0 -2,0 -1,1 -1,0 -2,0 0,0 -1,0 -2,0 0,0 -1,-1 -2,-1 -1,0 -2,0 -2,0 -1,0 -1,0 -2,0 -1,0 -2,0 -4,0z"/>
      <path class="fil9" d="M55 65c0,-1 -5,-3 -7,-5 3,3 10,5 9,5 -1,0 -2,0 -2,0z"/>
      <path class="fil8" d="M54 66c0,0 0,0 0,-1 1,0 1,0 1,0 1,0 1,0 2,0 0,0 -2,1 -3,1 0,0 0,0 0,0z"/>
      <path class="fil9" d="M52 78c3,-1 5,-6 4,-10 4,4 1,5 1,6 0,1 -3,3 -5,4z"/>
      <path class="fil10" d="M49 58c1,1 3,3 6,3 -3,0 -5,0 -6,-2 0,0 0,0 0,-1z"/>
      <ellipse class="fil11" transform="matrix(0.151002 0.0659346 -0.0680715 0.0991184 50.6595 56.6113)" rx="1" ry="3"/>
      <path class="fil12" d="M48 79c2,0 2,1 4,1 0,0 0,-1 0,-1 0,0 1,0 1,1l1 0c0,0 0,0 0,0 0,-1 1,-1 1,-1 1,1 1,1 1,1 0,-1 0,-1 0,-1 0,0 1,0 1,0 1,0 1,0 1,0 0,0 0,0 0,0 0,-1 1,-1 1,-1 1,0 1,0 1,0 0,0 0,-1 0,-1 0,0 0,0 1,0 0,0 0,0 0,0 0,0 1,0 0,0 0,-1 1,-1 1,-1 0,0 0,0 0,-1 0,0 1,0 1,0 0,0 0,0 0,0 -1,0 0,0 0,-1 1,0 1,0 1,-1 1,1 0,2 -1,2 0,0 0,0 0,0 0,0 0,1 0,1 0,0 0,0 -1,0 0,0 0,0 0,0 0,0 0,0 0,0 0,1 0,1 -1,1 0,0 0,0 0,0l-1 1c1,0 1,0 0,0 0,0 0,0 -1,1 0,0 0,0 -1,0 0,0 0,0 0,0 1,0 0,0 0,0 0,1 0,1 -1,0 0,0 0,0 0,0 0,1 0,1 0,1 -1,0 -1,0 -2,0 0,0 0,0 -1,0 0,0 1,0 1,0 0,0 0,0 0,0 -1,1 -1,0 -2,0 0,0 0,0 -1,0 0,0 0,0 0,0 -1,1 -1,-1 -4,-1zm4 1c0,0 0,0 0,0 0,0 0,0 0,0zm8 -2l0 0c0,0 0,0 0,0zm0 0c0,0 0,0 0,0l0 0z"/>
      <path class="fil13" d="M57 60c0,0 0,0 0,0 0,0 0,0 0,0 0,0 2,0 2,1 0,0 0,0 -1,0 0,0 0,0 0,0 1,-1 -1,-1 -1,-1z"/>
     </g>
    </g>
   </g>
  </g>
 </g>
</svg>
